<svg width="480" height="480" viewBox="0 0 480 480" fill="none" xmlns="http://www.w3.org/2000/svg">
<path d="M240 480C107.452 480 0 372.548 0 240C0 107.452 107.452 0 240 0C372.548 0 480 107.452 480 240C479.85 372.486 372.486 479.85 240 480ZM240 16C116.288 16 16 116.288 16 240C16 363.712 116.288 464 240 464C363.712 464 464 363.712 464 240C463.859 116.347 363.653 16.141 240 16Z" fill="url(#paint0_linear)"/>
<path d="M205.824 309.824C203.702 309.824 201.668 308.98 200.168 307.48L132.288 239.6C129.219 236.422 129.307 231.357 132.485 228.288C135.585 225.294 140.5 225.294 143.6 228.288L205.824 290.512L335.928 160.4C338.997 157.222 344.062 157.134 347.24 160.204C350.418 163.273 350.506 168.338 347.436 171.516C347.372 171.583 347.306 171.648 347.24 171.712L211.48 307.48C209.98 308.98 207.946 309.824 205.824 309.824Z" fill="url(#paint1_linear)"/>
<defs>
<linearGradient id="paint0_linear" x1="240" y1="464.96" x2="240" y2="-38.28" gradientUnits="userSpaceOnUse">
<stop stop-color="#F05E3C"/>
<stop offset="1" stop-color="#1F100C"/>
</linearGradient>
<linearGradient id="paint1_linear" x1="239.862" y1="464.96" x2="239.862" y2="-38.28" gradientUnits="userSpaceOnUse">
<stop stop-color="#F05E3C"/>
<stop offset="1" stop-color="#F05E3C"/>
</linearGradient>
</defs>
</svg>
