<?xml version="1.0" encoding="UTF-8"?>
<!DOCTYPE svg PUBLIC "-//W3C//DTD SVG 1.1//EN" "http://www.w3.org/Graphics/SVG/1.1/DTD/svg11.dtd">
<!-- Creator: CorelDRAW X8 -->
<svg xmlns="http://www.w3.org/2000/svg" xml:space="preserve" width="6.30205in" height="5.36404in" version="1.1" style="shape-rendering:geometricPrecision; text-rendering:geometricPrecision; image-rendering:optimizeQuality; fill-rule:evenodd; clip-rule:evenodd"
viewBox="0 0 4568 3888"
 xmlns:xlink="http://www.w3.org/1999/xlink">
 <defs>
  <style type="text/css">
   <![CDATA[
    .str0 {stroke:#F58634;stroke-width:42.8082}
    .fil12 {fill:none}
    .fil76 {fill:#FEFEFE}
    .fil6 {fill:black;fill-rule:nonzero}
    .fil4 {fill:#161616;fill-rule:nonzero}
    .fil30 {fill:#1ABC9C;fill-rule:nonzero}
    .fil52 {fill:#2A363B;fill-rule:nonzero}
    .fil68 {fill:#2FAC66;fill-rule:nonzero}
    .fil31 {fill:#30D8B8;fill-rule:nonzero}
    .fil33 {fill:#34495E;fill-rule:nonzero}
    .fil16 {fill:#34B67A;fill-rule:nonzero}
    .fil0 {fill:#42580C;fill-rule:nonzero}
    .fil10 {fill:#4C1415;fill-rule:nonzero}
    .fil26 {fill:#4DBFD9;fill-rule:nonzero}
    .fil38 {fill:#4ECDC4;fill-rule:nonzero}
    .fil36 {fill:#556270;fill-rule:nonzero}
    .fil58 {fill:#5FD0BA;fill-rule:nonzero}
    .fil72 {fill:#64B044;fill-rule:nonzero}
    .fil53 {fill:#663F30;fill-rule:nonzero}
    .fil55 {fill:#6A7376;fill-rule:nonzero}
    .fil61 {fill:#6F85BF;fill-rule:nonzero}
    .fil56 {fill:#71808F;fill-rule:nonzero}
    .fil19 {fill:#795547;fill-rule:nonzero}
    .fil74 {fill:#7BD0A9;fill-rule:nonzero}
    .fil7 {fill:#873217;fill-rule:nonzero}
    .fil73 {fill:#8DC375;fill-rule:nonzero}
    .fil57 {fill:#94796F;fill-rule:nonzero}
    .fil3 {fill:#99391A;fill-rule:nonzero}
    .fil66 {fill:#9AAAD2;fill-rule:nonzero}
    .fil14 {fill:#B23630;fill-rule:nonzero}
    .fil46 {fill:#B6F1FF;fill-rule:nonzero}
    .fil71 {fill:#BADBAC;fill-rule:nonzero}
    .fil48 {fill:#CCF5FF;fill-rule:nonzero}
    .fil28 {fill:#CFF6FF;fill-rule:nonzero}
    .fil24 {fill:#D8AE00;fill-rule:nonzero}
    .fil13 {fill:#DC4437;fill-rule:nonzero}
    .fil20 {fill:#E49306;fill-rule:nonzero}
    .fil43 {fill:#E57368;fill-rule:nonzero}
    .fil51 {fill:#E6E6E6;fill-rule:nonzero}
    .fil22 {fill:#E97F02;fill-rule:nonzero}
    .fil44 {fill:#E9E9E9;fill-rule:nonzero}
    .fil15 {fill:#ED9C98;fill-rule:nonzero}
    .fil59 {fill:#ED9D96;fill-rule:nonzero}
    .fil54 {fill:#EEEEEE;fill-rule:nonzero}
    .fil60 {fill:#F0F0F0;fill-rule:nonzero}
    .fil27 {fill:#F15723;fill-rule:nonzero}
    .fil47 {fill:#F27572;fill-rule:nonzero}
    .fil62 {fill:#F2F2F2;fill-rule:nonzero}
    .fil29 {fill:#F5815A;fill-rule:nonzero}
    .fil50 {fill:#F69F9D;fill-rule:nonzero}
    .fil67 {fill:#F6F6F6;fill-rule:nonzero}
    .fil11 {fill:#F7A972;fill-rule:nonzero}
    .fil2 {fill:#F7C29C;fill-rule:nonzero}
    .fil63 {fill:#F8A78C;fill-rule:nonzero}
    .fil23 {fill:#F8CA00;fill-rule:nonzero}
    .fil17 {fill:#F9B256;fill-rule:nonzero}
    .fil39 {fill:#F9B39A;fill-rule:nonzero}
    .fil9 {fill:#FB9F1B;fill-rule:nonzero}
    .fil65 {fill:#FBCAB8;fill-rule:nonzero}
    .fil18 {fill:#FBD099;fill-rule:nonzero}
    .fil69 {fill:#FC5249;fill-rule:nonzero}
    .fil21 {fill:#FCF6A8;fill-rule:nonzero}
    .fil8 {fill:#FDC00F;fill-rule:nonzero}
    .fil64 {fill:#FDF9C2;fill-rule:nonzero}
    .fil32 {fill:#FECEA8;fill-rule:nonzero}
    .fil70 {fill:#FF6D69;fill-rule:nonzero}
    .fil40 {fill:#FF847C;fill-rule:nonzero}
    .fil35 {fill:#FF9900;fill-rule:nonzero}
    .fil49 {fill:#FFA9A4;fill-rule:nonzero}
    .fil41 {fill:#FFB5B3;fill-rule:nonzero}
    .fil37 {fill:#FFBDBB;fill-rule:nonzero}
    .fil42 {fill:#FFD2D2;fill-rule:nonzero}
    .fil25 {fill:#FFDB45;fill-rule:nonzero}
    .fil34 {fill:#FFDD4D;fill-rule:nonzero}
    .fil45 {fill:#FFDFBD;fill-rule:nonzero}
    .fil75 {fill:#FFE2C2;fill-rule:nonzero}
    .fil1 {fill:white;fill-rule:nonzero}
    .fil5 {fill:url(#id3)}
   ]]>
  </style>
    <clipPath id="id0">
     <path d="M2289 2352l563 0 0 258 -563 0 0 -258z"/>
    </clipPath>
     <clipPath id="id1">
      <path d="M2296 2378l555 0 -7 222 -554 0 6 -222z"/>
     </clipPath>
     <clipPath id="id2">
      <path d="M2289 2352l563 0 0 258 -563 0 0 -258z"/>
     </clipPath>
  <linearGradient id="id3" gradientUnits="userSpaceOnUse" x1="2672.87" y1="1419.11" x2="2994.96" y2="2093.69">
   <stop offset="0" style="stop-opacity:1; stop-color:#535353"/>
   <stop offset="1" style="stop-opacity:1; stop-color:#161616"/>
  </linearGradient>
 </defs>
 <g id="Layer_x0020_1">
  <metadata id="CorelCorpID_0Corel-Layer"/>
  <g id="_708492968">
   <g>
    <path class="fil0" d="M2167 2698c-329,-130 -562,-450 -562,-825 0,-3 0,-7 0,-10l192 60 2 -45 73 3 0 0c8,0 15,-7 15,-15 0,-8 -6,-15 -14,-15l-73 -3 2 -45 -197 44c14,-478 405,-861 886,-861 490,0 887,397 887,887 0,326 -176,610 -438,764l0 -1074c0,-62 -44,-112 -97,-112l-579 0c-53,0 -97,50 -97,112l0 1135z"/>
    <path class="fil1" d="M3442 1847l-225 -59 0 45 -73 1c-8,0 -14,6 -14,14 0,9 6,15 14,15l1 0 72 0 1 45 224 -61z"/>
    <path class="fil1" d="M3001 1422c3,0 7,-1 10,-4l55 -48 30 35 130 -193 -209 102 29 34 -55 48c-6,5 -7,14 -1,21 3,3 7,5 11,5z"/>
    <path class="fil1" d="M2489 841l-58 226 46 -1 0 73c1,8 7,15 15,15l0 0c9,0 15,-7 15,-15l-1 -73 46 -1 -63 -224z"/>
    <path class="fil1" d="M1904 1367l52 50c3,3 7,5 11,5 3,0 7,-2 10,-5 6,-6 6,-15 0,-21l-52 -51 31 -32 -203 -114 119 200 32 -32z"/>
    <path class="fil1" d="M1872 1881l0 0c8,0 15,-7 15,-15 0,-8 -6,-15 -14,-15l-73 -3 2 -45 -227 51 222 69 2 -45 73 3z"/>
    <path class="fil1" d="M3511 1899c-3,15 46,46 110,69 64,24 119,31 123,17 4,-15 -56,-10 -120,-34 -64,-23 -109,-66 -113,-52z"/>
    <path class="fil2" d="M2264 2864c-53,0 -97,-51 -97,-113l0 -615c-52,27 -99,56 -99,56l0 -306c0,0 71,-105 99,-193l0 -112c-8,-39 -25,-78 -55,-101 -10,-7 -20,-6 -31,1 19,14 43,47 43,47 0,0 -44,76 -56,88 -13,13 -34,0 -34,0l-22 -9c-11,31 -8,25 -11,31 -41,85 -124,74 -130,166 -8,117 -132,313 -102,413 27,94 7,196 6,292 0,26 -20,64 -20,83 -46,52 -304,213 -304,213l300 475c0,0 303,-230 448,-259 220,-43 274,-109 330,-157l-265 0z"/>
    <path class="fil3" d="M2068 1616c12,-12 56,-88 56,-88 0,0 4,-91 -43,-47 -26,18 -51,78 -69,126l22 9c0,0 21,13 34,0z"/>
    <path class="fil2" d="M2964 2284c-10,0 -17,2 -24,6l0 177c7,4 14,6 24,6 40,0 92,-42 92,-94 0,-53 -52,-95 -92,-95z"/>
    <path class="fil2" d="M3024 1735c-27,-5 -58,-1 -84,11l0 187c72,2 119,-70 138,-133 15,-51 -54,-65 -54,-65z"/>
    <path class="fil2" d="M3044 2085c-35,-37 -90,-10 -104,-2l0 197c9,-4 19,-8 30,-13 103,-46 148,-103 74,-182z"/>
    <path class="fil4" d="M2940 2751c0,62 -44,113 -97,113l-579 0c-53,0 -97,-51 -97,-113l0 -1188c0,-62 44,-112 97,-112l579 0c53,0 97,50 97,112l0 1188z"/>
    <path class="fil5" d="M2843 1451l-343 0 45 145 331 0 0 556 64 205 0 -794c0,-62 -44,-112 -97,-112z"/>
    <polygon class="fil1" points="2231,2718 2876,2718 2876,1596 2231,1596 "/>
    <path class="fil6" d="M2473 1493c-5,0 -10,5 -10,12 0,8 5,13 10,13l181 0c5,0 10,-5 10,-13 0,-7 -5,-12 -10,-12l-181 0zm181 35l-181 0c-11,0 -20,-10 -20,-23 0,-12 9,-22 20,-22l181 0c11,0 20,10 20,22 0,13 -9,23 -20,23z"/>
    <path class="fil7" d="M0 3649l465 239 671 0c0,0 643,-244 686,-444 45,-207 -253,-667 -460,-712 -261,-56 -1362,917 -1362,917z"/>
    <polygon class="fil7" points="1770,3363 1414,2813 1692,2633 2048,3184 "/>
    <path class="fil8" d="M2717 1850c0,9 -8,17 -18,17l-308 0c-9,0 -17,-8 -17,-17l0 -110c0,-10 8,-18 17,-18l308 0c10,0 18,8 18,18l0 110z"/>
    <path class="fil9" d="M2717 1795l-343 0 0 55c0,9 8,17 17,17l308 0c10,0 18,-8 18,-17l0 0 0 -55z"/>
    <path class="fil10" d="M2483 1824c4,0 6,-1 9,-3 2,-3 3,-6 3,-10 0,-3 -1,-5 -1,-6 -1,-2 -2,-3 -3,-4 -1,-1 -3,-1 -4,-1 -2,-1 -4,-1 -5,-1l-6 0 0 24c0,0 1,0 3,1 2,0 3,0 4,0zm-4 -37c1,0 2,0 3,0 1,0 2,0 3,0 2,-1 4,-3 6,-5 2,-2 2,-4 2,-7 0,-2 0,-4 0,-6 -1,-1 -2,-2 -3,-3 -1,-1 -2,-2 -3,-2 -1,0 -3,0 -4,0 -4,0 -6,0 -7,0l0 23 3 0zm30 -16c0,2 -1,4 -1,6 -1,2 -1,4 -2,6 -1,2 -2,3 -4,5 -2,1 -3,2 -6,3l0 1c2,0 4,1 6,2 2,1 3,2 4,4 2,1 3,3 3,6 1,2 2,5 2,8 0,4 -1,8 -3,11 -1,3 -3,6 -6,8 -2,2 -5,3 -8,4 -4,1 -7,2 -11,2 -1,0 -3,0 -4,0 -2,0 -4,0 -6,0 -2,0 -4,-1 -6,-1 -3,0 -5,0 -6,-1l0 -83c2,0 5,-1 9,-1 4,0 8,0 12,0 3,0 7,0 10,0 3,1 6,2 9,3 2,2 4,4 5,7 2,2 3,6 3,10z"/>
    <path class="fil10" d="M2556 1752l15 0 0 54c0,11 -3,19 -7,24 -4,5 -11,7 -18,7 -10,0 -16,-2 -21,-7 -4,-5 -6,-12 -6,-22l0 -56 15 0 0 54c0,6 1,11 3,13 1,3 4,4 8,4 4,0 7,-1 9,-4 2,-3 2,-7 2,-13l0 -54z"/>
    <polygon class="fil10" points="2598,1804 2575,1752 2593,1752 2605,1783 2606,1793 2607,1793 2608,1783 2619,1752 2635,1752 2613,1804 2613,1836 2598,1836 "/>
    <path class="fil11" d="M3181 3075c-42,-94 -84,-187 -125,-280 -39,-87 -76,-174 -110,-262l-1 -1c0,0 60,372 68,413 20,103 127,182 197,252 13,13 207,196 207,196l0 0c-12,-13 -26,-29 -41,-48 -69,-85 -150,-169 -195,-270z"/>
    <path class="fil2" d="M4097 3157c-89,-98 -12,-315 -68,-432 -40,-85 -110,-317 -214,-340 -48,-11 -79,18 -123,-26 -48,-49 -81,4 -130,-10 -48,-13 -66,-85 -125,-39 -35,17 -58,48 -102,21 -37,-23 -67,-60 -114,-26 -29,12 -45,42 -82,26 -34,-15 -53,-74 -68,-105 -63,-123 -126,-245 -189,-368 -18,-35 -38,-96 -72,-114 -113,-60 -99,137 -80,190 41,118 83,236 124,354 29,82 60,164 92,245 34,88 71,175 110,262 41,93 83,186 125,280 45,101 126,185 195,270 15,19 29,35 41,48 40,43 74,65 137,104 76,46 209,217 209,217l497 -295c0,0 -128,-223 -163,-262z"/>
    <path class="fil3" d="M2743 1761c0,0 10,69 39,84 44,22 84,-17 83,-23 -15,-32 -30,-62 -53,-82 -14,-13 -79,-64 -69,21z"/>
    <path class="fil7" d="M4551 3591c0,0 -92,-217 -161,-229 -209,-37 -658,278 -694,486 -2,12 28,40 28,40l827 0 0 -297z"/>
    <polygon class="fil7" points="4311,3417 3775,3793 3585,3522 4121,3146 "/>
    <g>
     <circle class="fil12 str0" cx="4108" cy="1810" r="386"/>
     <g>
      <path class="fil13" d="M4020 1989c0,103 -83,172 -186,172 -102,0 -185,-69 -185,-172 0,-102 78,-147 185,-121 103,-26 186,19 186,121z"/>
      <path class="fil14" d="M3895 1882c0,5 -26,19 -58,19 -32,0 -55,-12 -55,-17 0,-5 23,0 55,0 32,0 58,-7 58,-2z"/>
      <path class="fil15" d="M3960 1904c16,9 -3,57 -110,57 -109,0 -120,-41 -109,-53 0,0 42,12 104,8 61,-3 115,-12 115,-12z"/>
      <path class="fil16" d="M3833 1889c0,0 -12,-41 -9,-77 4,-37 26,-61 26,-61l27 0c0,0 -36,29 -41,63 -3,23 5,75 5,75l-8 0z"/>
      <path class="fil16" d="M3995 1764c0,0 -20,49 -65,74 -45,24 -97,15 -97,15 0,0 20,-49 65,-74 45,-24 97,-15 97,-15z"/>
      <path class="fil17" d="M4194 1849l0 -15c0,-48 -40,-82 -88,-82 -49,0 -88,34 -88,82l0 15c0,25 -8,50 -24,69 -21,26 -34,59 -34,96 0,83 65,141 146,141 80,0 146,-58 146,-141 0,-37 -13,-70 -34,-96 -16,-19 -24,-44 -24,-69z"/>
      <path class="fil18" d="M4176 1829c0,0 -20,-16 -43,-29 -23,-13 -55,-22 -55,-22 9,-16 47,-14 70,-1 23,13 37,36 28,52z"/>
      <path class="fil18" d="M4223 2026c10,-15 11,-66 -29,-104 -51,-47 -123,-33 -136,-20 0,0 45,35 67,52 57,42 98,72 98,72z"/>
      <path class="fil19" d="M4102 1759c0,0 -3,-35 28,-70 18,-20 44,-25 44,-25l31 10c0,0 -52,4 -75,34 -17,23 -22,51 -22,51l-6 0z"/>
      <path class="fil20" d="M4568 1995c0,102 -84,184 -189,184 -104,0 -189,-82 -189,-184 0,-101 85,-184 189,-184 105,0 189,83 189,184z"/>
      <path class="fil21" d="M4551 1995c10,113 -76,159 -172,168 -95,9 -167,-75 -167,-168 0,-92 72,-162 167,-162 95,0 162,45 172,162z"/>
      <path class="fil22" d="M4355 1848l30 134 42 -134c-21,-5 -45,-5 -72,0z"/>
      <path class="fil22" d="M4343 1851c-24,6 -45,16 -63,31l94 102 -30 -133 -1 0z"/>
      <path class="fil22" d="M4272 1890c-18,16 -31,37 -38,60l131 42 -93 -102z"/>
      <path class="fil22" d="M4231 1961c-5,21 -5,43 0,65 0,2 1,4 1,5l130 -28 -131 -42z"/>
      <path class="fil22" d="M4395 1985l102 -93c-16,-20 -36,-34 -59,-41l-43 134z"/>
      <path class="fil22" d="M4533 1965c-1,-2 -1,-3 -2,-5 -7,-23 -16,-43 -27,-59l-101 93 130 -29z"/>
      <path class="fil22" d="M4484 2105c20,-15 34,-31 43,-50l-125 -40 82 90z"/>
      <path class="fil22" d="M4236 2042c7,22 19,42 34,58l94 -86 -128 28z"/>
      <path class="fil22" d="M4535 1976l-129 29 126 39c7,-20 9,-43 3,-68z"/>
      <path class="fil22" d="M4475 2112l-81 -89 25 115c21,-7 40,-16 56,-26z"/>
      <path class="fil22" d="M4345 2144c18,4 37,4 55,0 2,0 5,-1 8,-2l0 -1 -25 -115 -38 118z"/>
      <path class="fil22" d="M4278 2108c16,16 36,27 56,34l38 -120 -94 86z"/>
      <path class="fil23" d="M4544 2019l-1 -2c-3,-5 -10,-7 -15,-4l-21 13c-42,-14 -186,66 -385,66 -218,0 -395,-105 -395,-59 0,46 177,198 395,198 198,0 383,-131 397,-184l22 -14c5,-3 6,-9 3,-14z"/>
      <path class="fil24" d="M4543 2017l-2 -3 0 0 -22 14c-14,53 -199,185 -397,185 -203,0 -370,-132 -393,-187 -2,1 -2,4 -2,7 0,46 177,198 395,198 198,0 383,-131 397,-184l22 -14c5,-3 6,-9 3,-14l-1 -2z"/>
      <path class="fil25" d="M4121 2145c164,0 320,-59 376,-121 -53,-1 -190,68 -375,68 -169,0 -313,-63 -370,-70 57,63 200,123 369,123z"/>
      <path class="fil19" d="M4528 2013l13 -5c3,-1 6,0 8,2l8 10c3,5 0,11 -5,12l-11 1 -13 -20z"/>
     </g>
    </g>
    <g>
     <circle class="fil12 str0" cx="3718" cy="882" r="386"/>
     <g>
      <path class="fil26" d="M3486 764c-17,-9 -29,-29 -31,-52l-4 -64 0 -29 -92 0 0 29 -4 64c-2,23 -14,43 -31,52 -23,13 -38,40 -38,72l0 418c0,16 11,29 24,29l190 0c13,0 24,-13 24,-29l0 -418c0,-32 -16,-59 -38,-72z"/>
      <path class="fil1" d="M3473 790c-26,-14 -43,-43 -46,-76l-44 0c-3,33 -20,62 -46,76 -14,8 -23,26 -23,46l0 418 182 0 0 -418c0,-20 -9,-38 -23,-46z"/>
      <path class="fil27" d="M3449 636l-88 0c-7,0 -12,-5 -12,-12l0 -3c0,-7 5,-13 12,-13l88 0c7,0 12,6 12,13l0 3c0,7 -5,12 -12,12z"/>
      <path class="fil28" d="M3441 783c15,22 37,25 27,40 -4,8 -36,-5 -49,-28 -20,-34 -7,-53 1,-50 10,2 6,16 21,38z"/>
      <path class="fil28" d="M3477 1012c0,73 -11,133 -25,133 -14,0 -25,-60 -25,-133 0,-74 11,-134 25,-134 14,0 25,60 25,134z"/>
      <polygon class="fil29" points="3286,1035 3524,1035 3524,920 3286,920 "/>
      <path class="fil21" d="M3365 954l0 48c0,2 -2,4 -4,4 -2,0 -4,-2 -4,-4l0 -34 -11 16c-1,1 -2,2 -4,2l0 0c-1,0 -3,-1 -3,-2l-11 -16 0 34c0,2 -2,4 -5,4 -2,0 -4,-2 -4,-4l0 -48c0,-2 2,-4 4,-4l1 0c1,0 2,0 3,1l15 23 15 -23c1,-1 3,-1 4,-1l0 0c2,0 4,2 4,4z"/>
      <path class="fil21" d="M3384 954c0,-3 2,-4 5,-4 2,0 4,1 4,4l0 48c0,2 -2,4 -4,4 -3,0 -5,-2 -5,-4l0 -48z"/>
      <path class="fil21" d="M3407 1002l0 -48c0,-2 2,-4 4,-4 3,0 5,2 5,4l0 43 20 0c3,0 5,2 5,5 0,2 -2,4 -5,4l-25 0c-2,0 -4,-2 -4,-4z"/>
      <path class="fil21" d="M3450 1002l0 -48c0,-2 2,-4 5,-4 2,0 4,2 4,4l0 23 25 -26c1,-1 4,-1 6,0 1,2 1,5 0,7l-17 17 17 24c1,2 1,4 -1,6 -1,1 -2,1 -3,1 -1,0 -2,-1 -3,-2l-16 -22 -8 8 0 12c0,2 -2,4 -4,4 -3,0 -5,-2 -5,-4z"/>
      <polygon class="fil30" points="3484,1283 3708,1283 3708,714 3484,714 "/>
      <polygon class="fil31" points="3708,714 3484,714 3525,619 3667,619 "/>
      <path class="fil30" d="M3667 619l-142 0 0 -36c0,-16 12,-29 28,-29l87 0c15,0 27,13 27,29l0 36z"/>
      <path class="fil31" d="M3687 920c-7,100 -8,181 -18,181 -10,0 18,-88 -18,-181 -66,-171 -50,-189 18,-181 26,3 26,56 18,181z"/>
      <path class="fil32" d="M3695 974c0,57 -44,104 -99,104 -54,0 -99,-47 -99,-104 0,-58 45,-104 99,-104 55,0 99,46 99,104z"/>
      <polygon class="fil33" points="3516,1004 3516,944 3527,944 3544,986 3560,944 3571,944 3571,1004 3563,1004 3563,953 3547,997 3540,997 3523,952 3523,1004 "/>
      <polygon class="fil33" points="3581,1004 3589,1004 3589,944 3581,944 "/>
      <polygon class="fil33" points="3607,944 3607,997 3635,997 3633,1004 3599,1004 3599,944 "/>
      <polygon class="fil33" points="3649,944 3649,970 3655,970 3671,944 3679,944 3662,973 3683,1004 3674,1004 3655,976 3649,976 3649,1004 3641,1004 3641,944 "/>
      <path class="fil23" d="M4067 880c7,4 11,11 14,19 6,20 -5,42 -25,49 -15,5 -31,1 -40,-11l-70 78c3,3 5,6 6,10 5,16 -3,33 -18,38 -13,4 -27,-2 -34,-14l-81 -21c-2,8 -8,16 -16,19 -13,4 -27,-3 -31,-16 -1,-5 -2,-10 0,-15l-37 -10c-6,29 -6,59 -1,88 6,-1 12,-1 19,0 20,6 33,27 28,48 -3,12 -11,21 -21,25 6,12 13,23 21,33 58,71 154,102 246,71 72,-26 124,-84 146,-153 2,-6 3,-13 5,-19 -12,-2 -24,-11 -28,-24 -5,-18 4,-37 21,-43 4,-1 8,-2 12,-2 -1,-19 -4,-38 -10,-56 -16,-50 -46,-90 -85,-118l-21 24z"/>
      <path class="fil34" d="M4147 946c16,30 22,59 13,65 -9,5 -30,-15 -47,-45 -16,-30 -22,-58 -13,-64 9,-5 30,14 47,44z"/>
      <path class="fil34" d="M3873 1050c32,11 54,28 51,38 -3,10 -31,10 -62,0 -31,-11 -54,-28 -51,-38 3,-10 31,-10 62,0z"/>
      <path class="fil35" d="M3829 1049c15,-5 31,3 36,19 5,16 -3,33 -18,38 -15,5 -31,-3 -36,-19 -5,-16 3,-33 18,-38z"/>
      <path class="fil35" d="M3913 1090c23,-8 47,5 55,30 8,25 -4,51 -27,59 -23,8 -48,-6 -56,-30 -7,-25 5,-51 28,-59z"/>
      <path class="fil35" d="M4001 996c28,-9 57,5 66,33 9,28 -7,59 -34,68 -28,10 -57,-5 -66,-33 -9,-28 6,-58 34,-68z"/>
      <path class="fil35" d="M4105 952c18,-6 36,3 42,21 5,18 -4,37 -22,43 -17,6 -36,-3 -42,-21 -5,-18 4,-37 22,-43z"/>
      <path class="fil35" d="M4105 1038c10,-4 21,2 24,13 3,10 -2,22 -12,25 -10,4 -21,-2 -25,-13 -3,-10 3,-22 13,-25z"/>
      <path class="fil35" d="M4110 1100c17,-5 34,3 39,19 5,16 -4,33 -21,39 -16,5 -33,-3 -38,-19 -5,-16 4,-33 20,-39z"/>
      <path class="fil35" d="M4030 1139c22,-8 47,6 55,32 9,26 -3,53 -26,61 -23,8 -48,-7 -56,-32 -8,-26 4,-53 27,-61z"/>
      <path class="fil35" d="M3842 1172c13,-5 26,3 31,16 4,13 -3,28 -16,32 -12,5 -26,-2 -30,-16 -5,-13 2,-28 15,-32z"/>
      <path class="fil35" d="M3962 1200c18,-6 38,5 44,24 6,19 -4,40 -22,46 -19,6 -38,-4 -44,-23 -6,-19 4,-40 22,-47z"/>
      <path class="fil15" d="M3909 950l-279 0 36 303c2,17 15,30 31,30l144 0c16,0 30,-13 32,-30l36 -303z"/>
      <path class="fil36" d="M3609 939l0 11 197 0 0 19c0,12 7,22 18,24 13,2 25,-9 25,-23l0 -20 81 0 0 -11c0,-7 -6,-13 -13,-13l-295 0c-7,0 -13,6 -13,13z"/>
      <path class="fil37" d="M3834 1091c-6,63 -2,115 10,116 12,2 27,-48 33,-111 7,-63 3,-115 -9,-116 -12,-2 -27,48 -34,111z"/>
      <polygon class="fil38" points="3884,1158 3654,1158 3642,1049 3897,1049 "/>
      <path class="fil1" d="M3696 1090l-11 15 0 14c0,2 -1,3 -2,3 -2,0 -3,-1 -3,-3l0 -14 -10 -15c-1,-1 -1,-3 0,-4 1,-1 3,0 4,1l9 12 8 -12c1,-1 3,-2 4,-1 1,1 1,3 1,4z"/>
      <path class="fil1" d="M3726 1103c0,-3 -2,-7 -4,-9 -2,-2 -5,-4 -8,-4 -3,0 -6,2 -8,4 -2,2 -3,6 -3,9 0,4 1,7 3,10 2,2 5,3 8,3 3,0 6,-1 8,-3 2,-3 4,-6 4,-10zm0 -13c3,3 5,8 5,13 0,6 -2,10 -5,14 -3,3 -7,5 -12,5 -5,0 -9,-2 -12,-5 -3,-4 -5,-8 -5,-14 0,-5 2,-10 5,-13 3,-4 7,-6 12,-6 5,0 9,2 12,6z"/>
      <path class="fil1" d="M3740 1103c0,-10 8,-19 18,-19 5,0 9,2 12,4 1,1 1,3 0,5 -1,1 -3,1 -4,0 -2,-2 -5,-3 -8,-3 -3,0 -7,2 -9,4 -2,3 -4,6 -4,9 0,4 2,7 4,9 2,3 6,4 9,4 3,0 5,0 7,-2l0 -7 -7 0c-2,0 -3,-1 -3,-3 0,-2 1,-3 3,-3l10 0c2,0 3,1 3,3l0 12 0 1 0 0 0 0 -1 1c-4,3 -7,4 -12,4 -10,0 -18,-8 -18,-19z"/>
      <path class="fil1" d="M3797 1122c-8,0 -15,-7 -15,-15l0 -19c0,-1 1,-3 3,-3 2,0 3,2 3,3l0 19c0,5 4,9 9,9 5,0 9,-4 9,-9l0 -19c0,-1 1,-3 3,-3 1,0 2,2 2,3l0 19c0,8 -6,15 -14,15z"/>
      <path class="fil1" d="M3838 1097c0,-3 -2,-6 -5,-6l-6 0 0 11 6 0c3,0 5,-2 5,-5zm7 21c1,2 0,3 -2,4l-1 0 0 0 -2 -1 -1 -2c-1,-1 -1,-3 -1,-6 0,-1 -1,-2 -1,-2l-1 -2c-2,-1 -3,-1 -3,-1l-6 0 0 11c0,2 -1,3 -3,3 -2,0 -3,-1 -3,-3l0 -31c0,-1 1,-3 3,-3l9 0c6,0 11,5 11,12 0,3 -2,6 -4,8l2 2c1,2 1,4 1,6 0,2 0,3 0,3l2 2z"/>
      <path class="fil1" d="M3874 1091l-8 0 0 28c0,2 -1,3 -3,3 -1,0 -3,-1 -3,-3l0 -28 -8 0c-1,0 -2,-1 -2,-3 0,-1 1,-3 2,-3l22 0c1,0 3,2 3,3 0,2 -2,3 -3,3z"/>
     </g>
    </g>
    <g>
     <circle class="fil12 str0" cx="979" cy="1886" r="386"/>
     <g>
      <path class="fil29" d="M939 1626l159 3c34,0 61,23 70,53 2,7 3,14 3,22l0 2 14 6c2,-2 5,-4 8,-6 35,-21 81,-10 102,26l81 137c17,28 13,64 -8,87 -5,6 -11,10 -17,14 -2,1 -3,2 -4,2l1 9c34,7 59,36 60,71l4 159c0,34 -21,62 -51,72 -7,3 -14,4 -22,4 -41,1 -75,-31 -76,-72l-3 -160c-1,-36 25,-67 59,-74l0 -1c-27,3 -55,-10 -70,-35l-82 -137c-14,-24 -13,-51 -1,-73l-2 -1c-12,26 -38,43 -68,43l-160 -3c-41,-1 -73,-34 -73,-75 1,-41 35,-74 76,-73z"/>
      <path class="fil39" d="M1274 1727c15,14 19,34 9,46 -10,11 -31,10 -47,-3 -15,-14 -19,-34 -9,-46 10,-12 31,-10 47,3z"/>
      <path class="fil39" d="M1136 1666c10,8 13,22 6,29 -6,8 -20,7 -30,-2 -10,-8 -13,-22 -6,-29 7,-8 20,-7 30,2z"/>
      <path class="fil39" d="M1376 2011c16,13 20,34 9,46 -10,11 -31,10 -46,-3 -15,-14 -19,-34 -9,-46 10,-12 31,-10 46,3z"/>
      <path class="fil40" d="M1079 1907c86,344 -65,347 -220,327 -138,-18 -210,-43 -283,-330 -44,-172 6,-343 288,-326 367,22 176,172 215,329z"/>
      <path class="fil41" d="M968 1879c0,25 -19,34 -42,33 -23,0 -41,-8 -41,-34 0,-25 1,-59 24,-59 50,1 59,35 59,60z"/>
      <path class="fil41" d="M1026 2156c-8,11 -24,23 -72,25 -9,1 8,-56 3,-106 -3,-33 -17,-63 -25,-77 44,-10 80,-25 99,-35 27,128 9,176 -5,193zm-112 24c-17,-2 -34,-3 -48,-5 -67,-9 -101,-18 -131,-47 -20,-20 -40,-51 -58,-94 34,-10 98,-28 172,-28 27,1 53,-2 77,-7 3,15 10,43 11,73 1,52 -11,109 -23,108zm-200 -307c55,-3 120,11 120,7 -1,-5 -64,-29 -120,-30 -44,-1 -85,21 -85,17 -3,-15 -6,-33 -7,-52 26,-8 100,-33 187,-33 86,1 173,27 208,36 -4,32 -5,67 4,104 3,12 6,23 8,34 -31,9 -100,31 -180,30 -76,-1 -143,23 -176,40 -13,-34 -26,-76 -36,-126 -2,-5 34,-24 77,-27zm-62 -176c32,-41 92,-62 178,-61 3,0 -20,36 -17,70 3,22 -13,43 -27,57 -77,4 -140,31 -164,45 -1,-38 5,-80 30,-111zm208 -60c131,8 163,31 170,41 10,13 4,45 -3,80 -4,16 -7,34 -10,53 -33,-16 -122,-48 -207,-49 -5,0 -10,0 -15,0 18,-14 39,-35 40,-57 1,-34 23,-68 25,-68zm219 270c-39,-157 152,-307 -215,-329 -12,-1 -23,-1 -33,-1 -253,-2 -297,162 -255,327 73,287 145,312 283,330 28,3 57,6 83,7 120,1 207,-53 137,-334z"/>
      <path class="fil42" d="M1062 1817c-10,69 6,136 -4,136 -11,0 -28,-64 -21,-134 8,-73 8,-136 38,-126 19,6 -3,51 -13,124z"/>
      <path class="fil42" d="M603 1813c0,70 16,119 5,119 -10,0 -25,-44 -30,-117 -4,-73 9,-135 38,-126 19,6 -12,46 -13,124z"/>
      <path class="fil43" d="M420 2176c0,-62 50,-111 111,-111l718 0c61,0 111,49 111,111 0,61 -50,111 -111,111l-718 0c-61,0 -111,-50 -111,-111z"/>
      <path class="fil15" d="M1249 2287c-62,0 -112,-50 -112,-111 0,-62 50,-111 112,-111 61,0 111,49 111,111 0,61 -50,111 -111,111z"/>
      <path class="fil44" d="M1262 2100c-4,0 -8,-3 -8,-8 0,-4 4,-8 8,-8 5,0 8,4 8,8 0,5 -3,8 -8,8z"/>
      <path class="fil44" d="M1297 2125c-4,0 -8,-3 -8,-8 0,-4 4,-7 8,-7 4,0 7,3 7,7 0,5 -3,8 -7,8z"/>
      <path class="fil44" d="M1230 2147c-5,0 -9,-4 -9,-9 0,-5 4,-8 9,-8 5,0 8,3 8,8 0,5 -3,9 -8,9z"/>
      <path class="fil44" d="M1268 2177c-3,0 -6,-2 -6,-6 0,-3 3,-6 6,-6 4,0 6,3 6,6 0,4 -2,6 -6,6z"/>
      <path class="fil44" d="M1316 2181c-4,0 -8,-3 -8,-8 0,-4 4,-8 8,-8 5,0 8,4 8,8 0,5 -3,8 -8,8z"/>
      <path class="fil44" d="M1265 2141c-3,0 -6,-3 -6,-6 0,-3 3,-5 6,-5 3,0 5,2 5,5 0,3 -2,6 -5,6z"/>
      <path class="fil44" d="M1192 2188c-4,0 -8,-3 -8,-8 0,-5 4,-9 8,-9 5,0 9,4 9,9 0,5 -4,8 -9,8z"/>
      <path class="fil44" d="M1196 2130c-5,0 -9,-5 -9,-10 0,-6 4,-10 9,-10 6,0 10,4 10,10 0,5 -4,10 -10,10z"/>
      <path class="fil44" d="M1242 2226c-3,0 -6,-3 -6,-7 0,-3 3,-6 6,-6 4,0 7,3 7,6 0,4 -3,7 -7,7z"/>
      <path class="fil44" d="M1297 2215c-4,0 -8,-3 -8,-7 0,-4 4,-8 8,-8 4,0 7,4 7,8 0,4 -3,7 -7,7z"/>
      <path class="fil44" d="M1186 2231c-3,0 -6,-2 -6,-6 0,-3 3,-6 6,-6 3,0 6,3 6,6 0,4 -3,6 -6,6z"/>
      <path class="fil44" d="M1228 2194c-3,0 -7,-3 -7,-7 0,-4 4,-7 7,-7 4,0 8,3 8,7 0,4 -4,7 -8,7z"/>
      <path class="fil44" d="M1330 2150c-3,0 -6,-2 -6,-6 0,-3 3,-6 6,-6 4,0 6,3 6,6 0,4 -2,6 -6,6z"/>
      <path class="fil44" d="M1260 2257c-3,0 -6,-2 -6,-5 0,-3 3,-6 6,-6 2,0 5,3 5,6 0,3 -3,5 -5,5z"/>
      <path class="fil44" d="M1214 2262c-4,0 -8,-4 -8,-8 0,-4 4,-8 8,-8 4,0 7,4 7,8 0,4 -3,8 -7,8z"/>
      <path class="fil44" d="M1164 2165c-4,0 -8,-3 -8,-7 0,-4 4,-8 8,-8 4,0 7,4 7,8 0,4 -3,7 -7,7z"/>
      <path class="fil15" d="M1119 2109c0,9 -128,16 -286,16 -157,0 -285,-7 -285,-16 0,-9 128,-17 285,-17 158,0 286,8 286,17z"/>
      <path class="fil18" d="M654 2304l0 -156 -45 0 0 156c-14,0 -26,12 -26,26 0,15 12,26 26,26 10,0 18,-5 22,-12 5,7 13,12 23,12 14,0 26,-11 26,-26 0,-14 -12,-26 -26,-26z"/>
      <path class="fil22" d="M605 2167c-9,0 -18,-5 -24,-12 -27,-35 -101,-139 -92,-239 12,-135 142,-135 142,-135 0,0 92,2 129,70 48,86 -37,251 -66,301 -5,9 -15,15 -25,15l-64 0z"/>
      <path class="fil35" d="M753 1893c8,41 -7,79 -33,84 -26,5 -54,-24 -62,-65 -9,-41 6,-79 33,-84 26,-5 54,24 62,65z"/>
      <path class="fil45" d="M648 2240c0,38 -3,68 -6,68 -3,0 -6,-30 -6,-68 0,-37 3,-68 6,-68 3,0 6,31 6,68z"/>
     </g>
    </g>
    <g>
     <circle class="fil12 str0" cx="1420" cy="892" r="386"/>
     <g>
      <path class="fil46" d="M1216 929c6,0 11,-4 11,-10l0 -260c0,-12 -6,-24 -15,-32l-71 -54c-10,-8 -16,-20 -16,-32l0 -67 -102 0 0 67c0,12 -5,24 -15,32l-71 54c-10,8 -15,20 -15,32l0 260c0,6 4,10 10,10 6,0 11,5 11,11l0 39c0,6 -5,11 -11,11 -6,0 -10,4 -10,10l0 267c0,22 18,40 40,40l225 0c22,0 40,-18 40,-40l0 -267c0,-6 -5,-10 -11,-10 -6,0 -10,-5 -10,-11l0 -39c0,-6 4,-11 10,-11z"/>
      <polygon class="fil1" points="1116,604 1032,604 962,659 961,659 961,1267 962,1267 1187,1267 1187,1267 1187,659 1187,659 "/>
      <path class="fil40" d="M1136 474l-123 0 0 -28c0,-4 3,-8 8,-8l107 0c4,0 8,4 8,8l0 28z"/>
      <path class="fil47" d="M1024 471c-2,0 -4,-2 -4,-4l0 -21c0,-2 2,-4 4,-4 2,0 4,2 4,4l0 21c0,2 -2,4 -4,4z"/>
      <path class="fil47" d="M1040 471c-2,0 -4,-2 -4,-4l0 -21c0,-2 2,-4 4,-4 3,0 4,2 4,4l0 21c0,2 -1,4 -4,4z"/>
      <path class="fil47" d="M1057 471c-2,0 -4,-2 -4,-4l0 -21c0,-2 2,-4 4,-4 2,0 4,2 4,4l0 21c0,2 -2,4 -4,4z"/>
      <path class="fil47" d="M1074 471c-3,0 -4,-2 -4,-4l0 -21c0,-2 1,-4 4,-4 2,0 4,2 4,4l0 21c0,2 -2,4 -4,4z"/>
      <path class="fil47" d="M1090 471c-2,0 -4,-2 -4,-4l0 -21c0,-2 2,-4 4,-4 2,0 4,2 4,4l0 21c0,2 -2,4 -4,4z"/>
      <path class="fil47" d="M1107 471c-2,0 -4,-2 -4,-4l0 -21c0,-2 2,-4 4,-4 2,0 4,2 4,4l0 21c0,2 -2,4 -4,4z"/>
      <path class="fil47" d="M1123 471c-2,0 -4,-2 -4,-4l0 -21c0,-2 2,-4 4,-4 3,0 4,2 4,4l0 21c0,2 -1,4 -4,4z"/>
      <polygon class="fil46" points="922,780 1227,780 1227,692 922,692 "/>
      <polygon class="fil46" points="922,904 1227,904 1227,816 922,816 "/>
      <polygon class="fil46" points="922,1100 1227,1100 1227,1013 922,1013 "/>
      <polygon class="fil46" points="922,1225 1227,1225 1227,1137 922,1137 "/>
      <path class="fil46" d="M1040 935c0,9 -7,16 -15,16 -9,0 -16,-7 -16,-16 0,-8 7,-15 16,-15 8,0 15,7 15,15z"/>
      <path class="fil46" d="M1122 961c0,5 -4,10 -10,10 -6,0 -10,-5 -10,-10 0,-6 4,-10 10,-10 6,0 10,4 10,10z"/>
      <path class="fil46" d="M1074 980c0,5 -4,9 -8,9 -5,0 -9,-4 -9,-9 0,-5 4,-9 9,-9 4,0 8,4 8,9z"/>
      <path class="fil46" d="M1168 988c0,5 -3,9 -8,9 -5,0 -8,-4 -8,-9 0,-4 3,-8 8,-8 5,0 8,4 8,8z"/>
      <path class="fil46" d="M1057 1120c0,4 -4,8 -9,8 -4,0 -8,-4 -8,-8 0,-5 4,-9 8,-9 5,0 9,4 9,9z"/>
      <path class="fil46" d="M1048 670c0,5 -4,9 -8,9 -5,0 -9,-4 -9,-9 0,-5 4,-9 9,-9 4,0 8,4 8,9z"/>
      <path class="fil46" d="M1102 634c0,5 -4,9 -9,9 -5,0 -9,-4 -9,-9 0,-5 4,-9 9,-9 5,0 9,4 9,9z"/>
      <path class="fil46" d="M1057 638c0,7 -6,13 -13,13 -7,0 -13,-6 -13,-13 0,-7 6,-13 13,-13 7,0 13,6 13,13z"/>
      <path class="fil46" d="M1112 671c0,3 -2,5 -5,5 -3,0 -5,-2 -5,-5 0,-3 2,-5 5,-5 3,0 5,2 5,5z"/>
      <path class="fil46" d="M985 672c0,3 -2,6 -6,6 -3,0 -6,-3 -6,-6 0,-3 3,-6 6,-6 4,0 6,3 6,6z"/>
      <path class="fil46" d="M1160 675c0,1 -1,2 -2,2 -2,0 -3,-1 -3,-2 0,-2 1,-3 3,-3 1,0 2,1 2,3z"/>
      <path class="fil46" d="M1040 801c0,4 -4,8 -8,8 -4,0 -7,-4 -7,-8 0,-4 3,-8 7,-8 4,0 8,4 8,8z"/>
      <path class="fil46" d="M1152 1248c0,4 -3,6 -7,6 -3,0 -6,-2 -6,-6 0,-4 3,-6 6,-6 4,0 7,2 7,6z"/>
      <path class="fil46" d="M988 1226c0,-5 -4,-8 -9,-8 -4,0 -8,3 -8,8 0,4 4,8 8,8 5,0 9,-4 9,-8z"/>
      <path class="fil46" d="M1178 1134c0,5 -4,9 -9,9 -5,0 -9,-4 -9,-9 0,-5 4,-9 9,-9 5,0 9,4 9,9z"/>
      <path class="fil46" d="M1066 1250c0,5 -4,9 -9,9 -5,0 -9,-4 -9,-9 0,-5 4,-8 9,-8 5,0 9,3 9,8z"/>
      <path class="fil48" d="M1187 1307l-113 0 0 -40 60 0c7,23 28,39 54,40 -1,0 -1,0 -1,0z"/>
      <path class="fil1" d="M1134 1267l-60 0 0 -42 57 0 0 24c0,6 1,12 3,18zm-3 -130l-57 0 0 -37 57 0 0 37zm0 -124l-57 0 0 -109 57 0 0 109zm-19 -62c-6,0 -10,4 -10,10 0,5 4,10 10,10 6,0 10,-5 10,-10 0,-6 -4,-10 -10,-10z"/>
      <path class="fil48" d="M1157 636l-41 -32 -42 0 0 -130 51 0 0 67c0,12 6,24 16,32l34 26 -18 37z"/>
      <path class="fil1" d="M1131 816l-57 0 0 -36 57 0 0 36zm6 -124l-63 0 0 -88 42 0 41 32 -4 8c-7,15 -12,31 -16,48zm-30 -26c-3,0 -5,2 -5,5 0,3 2,5 5,5 3,0 5,-2 5,-5 0,-3 -2,-5 -5,-5zm-14 -41c-5,0 -9,4 -9,9 0,5 4,9 9,9 5,0 9,-4 9,-9 0,-5 -4,-9 -9,-9z"/>
      <path class="fil49" d="M1136 474l-62 0 0 -3c2,-1 4,-2 4,-4l0 -21c0,-2 -2,-4 -4,-4l0 -4 54 0c4,0 8,4 8,8l0 28zm-13 -32c-2,0 -4,2 -4,4l0 21c0,2 2,4 4,4 3,0 4,-2 4,-4l0 -21c0,-2 -1,-4 -4,-4zm-16 0c-2,0 -4,2 -4,4l0 21c0,2 2,4 4,4 2,0 4,-2 4,-4l0 -21c0,-2 -2,-4 -4,-4zm-17 0c-2,0 -4,2 -4,4l0 21c0,2 2,4 4,4 2,0 4,-2 4,-4l0 -21c0,-2 -2,-4 -4,-4z"/>
      <path class="fil50" d="M1074 471l0 -29c2,0 4,2 4,4l0 21c0,2 -2,3 -4,4z"/>
      <path class="fil50" d="M1090 471c-2,0 -4,-2 -4,-4l0 -21c0,-2 2,-4 4,-4 2,0 4,2 4,4l0 21c0,2 -2,4 -4,4z"/>
      <path class="fil50" d="M1107 471c-2,0 -4,-2 -4,-4l0 -21c0,-2 2,-4 4,-4 2,0 4,2 4,4l0 21c0,2 -2,4 -4,4z"/>
      <path class="fil50" d="M1123 471c-2,0 -4,-2 -4,-4l0 -21c0,-2 2,-4 4,-4 3,0 4,2 4,4l0 21c0,2 -1,4 -4,4z"/>
      <path class="fil48" d="M1131 780l-57 0 0 -88 63 0c-4,17 -6,35 -6,53l0 35z"/>
      <polygon class="fil48" points="1074,904 1131,904 1131,816 1074,816 "/>
      <polygon class="fil48" points="1074,1100 1131,1100 1131,1013 1074,1013 "/>
      <polygon class="fil48" points="1074,1225 1131,1225 1131,1137 1074,1137 "/>
      <path class="fil48" d="M1112 971c-6,0 -10,-5 -10,-10 0,-6 4,-10 10,-10 6,0 10,4 10,10 0,5 -4,10 -10,10z"/>
      <path class="fil48" d="M1093 643c-5,0 -9,-4 -9,-9 0,-5 4,-9 9,-9 5,0 9,4 9,9 0,5 -4,9 -9,9z"/>
      <path class="fil48" d="M1107 676c-3,0 -5,-2 -5,-5 0,-3 2,-5 5,-5 3,0 5,2 5,5 0,3 -2,5 -5,5z"/>
      <path class="fil51" d="M1417 644l-81 -173 0 -74 -101 0 0 74 -82 173c-15,31 -22,66 -22,101l0 504c0,32 26,58 58,58l193 0c32,0 58,-26 58,-58l0 -504c0,-35 -8,-70 -23,-101z"/>
      <path class="fil52" d="M1172 697c-1,3 -2,5 -2,8l0 544c0,10 9,18 19,18l193 0c10,0 18,-8 18,-18l0 -544c0,-3 -1,-5 -2,-8l-226 0z"/>
      <path class="fil33" d="M1344 397l-117 0 0 -46c0,-12 9,-21 20,-21l76 0c12,0 21,9 21,21l0 46z"/>
      <path class="fil53" d="M1231 757l0 0c-4,0 -7,-3 -7,-8 0,-4 3,-8 7,-8 5,0 8,4 8,8 0,5 -3,8 -8,8z"/>
      <path class="fil53" d="M1321 749c0,5 -4,8 -8,8 -5,0 -8,-3 -8,-8 0,-4 3,-8 8,-8 4,0 8,4 8,8z"/>
      <path class="fil53" d="M1305 822c0,8 -6,14 -14,14 -7,0 -14,-6 -14,-14 0,-7 7,-13 14,-13 8,0 14,6 14,13z"/>
      <path class="fil53" d="M1243 866c0,3 -3,6 -6,6 -3,0 -6,-3 -6,-6 0,-3 3,-6 6,-6 3,0 6,3 6,6z"/>
      <path class="fil53" d="M1382 726c0,5 -4,10 -9,10 -5,0 -9,-5 -9,-10 0,-5 4,-9 9,-9 5,0 9,4 9,9z"/>
      <path class="fil53" d="M1367 866c0,3 -2,6 -6,6 -3,0 -5,-3 -5,-6 0,-3 2,-6 5,-6 4,0 6,3 6,6z"/>
      <path class="fil53" d="M1313 939c0,7 -5,12 -11,12 -6,0 -11,-5 -11,-12 0,-6 5,-11 11,-11 6,0 11,5 11,11z"/>
      <polygon class="fil30" points="1131,1113 1440,1113 1440,891 1131,891 "/>
      <path class="fil1" d="M1154 1020c2,-2 5,-2 7,-1 5,4 12,8 19,8 5,0 9,-2 12,-4 3,-2 5,-4 5,-7 0,-1 -1,-2 -1,-3 -1,-1 -2,-2 -3,-3 -3,-2 -8,-3 -14,-4l0 0c-5,-1 -9,-3 -13,-4 -3,-2 -7,-5 -9,-8 -1,-2 -2,-5 -2,-8 0,-6 3,-11 8,-14 5,-4 11,-6 17,-6 9,0 16,5 21,8 3,2 3,5 2,7 -2,3 -5,3 -7,2 -5,-4 -10,-7 -16,-7 -5,0 -8,2 -11,4 -3,2 -4,4 -4,6 0,1 0,2 1,3 0,0 1,1 3,2 2,2 6,4 12,5l0 0c5,1 10,2 14,4 4,2 7,4 9,8 2,2 3,5 3,8 0,7 -4,12 -9,15 -5,4 -11,6 -18,6 -11,0 -19,-5 -25,-10 -2,-2 -3,-5 -1,-7z"/>
      <path class="fil1" d="M1275 1002c0,-7 -3,-13 -7,-17 -4,-5 -9,-7 -15,-7 -7,0 -12,2 -16,7 -4,4 -7,10 -7,17 0,6 3,13 7,17 4,4 9,7 16,7 6,0 11,-3 15,-7 4,-4 7,-11 7,-17zm1 -25c6,6 10,15 10,25 0,10 -4,18 -10,25 -6,6 -14,10 -23,10 -10,0 -18,-4 -24,-10 -6,-7 -10,-15 -10,-25 0,-10 4,-19 10,-25 6,-7 14,-11 24,-11 9,0 17,4 23,11z"/>
      <path class="fil1" d="M1314 1026l6 0c13,0 23,-10 23,-23 0,-13 -10,-24 -23,-24l-6 0 0 47zm-11 6l0 -58c0,-3 2,-6 5,-6l12 0c19,0 34,16 34,35 0,19 -15,34 -34,34l-12 0c-3,0 -5,-2 -5,-5z"/>
      <path class="fil1" d="M1398 1010l-8 -21 -8 21 16 0zm4 11l-24 0 -5 13c0,2 -3,3 -5,3l-2 0c-2,-1 -4,-4 -3,-7l22 -58c1,-2 3,-4 5,-4 2,0 4,2 5,4l22 58c1,3 0,6 -3,7l-2 0c-2,0 -4,-1 -5,-3l-5 -13z"/>
      <polygon class="fil1" points="1131,920 1440,920 1440,891 1131,891 "/>
      <polygon class="fil1" points="1131,1113 1440,1113 1440,1084 1131,1084 "/>
      <path class="fil54" d="M1382 1307l-96 0 0 -40 93 0c3,15 14,28 27,34 -7,4 -15,6 -24,6z"/>
      <path class="fil55" d="M1379 1267l-93 0 0 -154 91 0 0 142c0,4 1,8 2,12z"/>
      <path class="fil54" d="M1389 697l-103 0 0 -300 50 0 0 74 81 173c3,6 6,13 8,20l-31 28c-1,1 -3,3 -5,5z"/>
      <path class="fil55" d="M1377 891l-91 0 0 -56c2,1 3,1 5,1 8,0 14,-6 14,-14 0,-7 -6,-13 -14,-13 -2,0 -3,0 -5,1l0 -113 103 0c-5,6 -9,14 -10,22 -2,-2 -4,-2 -6,-2 -5,0 -9,4 -9,9 0,5 4,10 9,10 2,0 3,-1 4,-1l0 156zm-16 -31c-3,0 -5,3 -5,6 0,3 2,6 5,6 4,0 6,-3 6,-6 0,-3 -2,-6 -6,-6zm-48 -119c-5,0 -8,4 -8,8 0,5 3,8 8,8 4,0 8,-3 8,-8 0,-4 -4,-8 -8,-8z"/>
      <path class="fil56" d="M1344 397l-58 0 0 -67 37 0c12,0 21,9 21,21l0 46z"/>
      <path class="fil57" d="M1313 757c-5,0 -8,-3 -8,-8 0,-4 3,-8 8,-8 4,0 8,4 8,8 0,5 -4,8 -8,8z"/>
      <path class="fil57" d="M1291 836c-2,0 -3,0 -5,-1l0 -25c2,-1 3,-1 5,-1 8,0 14,6 14,13 0,8 -6,14 -14,14z"/>
      <path class="fil57" d="M1373 736c-5,0 -9,-5 -9,-10 0,-5 4,-9 9,-9 2,0 4,0 6,2 -1,4 -2,8 -2,12l0 4c-1,0 -2,1 -4,1z"/>
      <path class="fil57" d="M1361 872c-3,0 -5,-3 -5,-6 0,-3 2,-6 5,-6 4,0 6,3 6,6 0,3 -2,6 -6,6z"/>
      <path class="fil58" d="M1377 1084l-91 0 0 -164 91 0 0 73 -14 37c-1,3 1,6 3,7l2 0c2,0 5,-1 5,-3l4 -10 0 60zm-69 -116c-3,0 -5,3 -5,6l0 58c0,3 2,5 5,5l12 0c19,0 34,-15 34,-34 0,-19 -15,-35 -34,-35l-12 0zm12 58l-6 0 0 -47 6 0c13,0 23,11 23,24 0,13 -10,23 -23,23z"/>
      <path class="fil1" d="M1320 1037l-12 0c-3,0 -5,-2 -5,-5l0 -58c0,-3 2,-6 5,-6l12 0c19,0 34,16 34,35 0,19 -15,34 -34,34zm-6 -58l0 47 6 0c13,0 23,-10 23,-23 0,-13 -10,-24 -23,-24l-6 0z"/>
      <path class="fil1" d="M1368 1037l-2 0c-2,-1 -4,-4 -3,-7l14 -37 0 31 -4 10c0,2 -3,3 -5,3z"/>
      <polygon class="fil1" points="1286,920 1377,920 1377,891 1286,891 "/>
      <polygon class="fil1" points="1286,1113 1377,1113 1377,1084 1286,1084 "/>
      <polygon class="fil43" points="1592,1276 1791,1276 1791,859 1592,859 "/>
      <polygon class="fil44" points="1592,859 1624,829 1759,829 1791,859 "/>
      <polygon class="fil44" points="1592,1276 1624,1306 1759,1306 1791,1276 "/>
      <path class="fil1" d="M1664 1211l0 8 55 9 0 -7c0,-15 -12,-30 -27,-32 -16,-3 -28,7 -28,22zm61 31l-67 -12c-4,-1 -6,-4 -6,-8l0 -13c0,-22 17,-37 40,-33 22,4 39,25 39,47l0 14c0,3 -2,5 -6,5z"/>
      <path class="fil1" d="M1688 1142l0 -14c0,-6 -5,-12 -12,-14 -6,-1 -12,4 -12,10l0 14 24 4zm42 -30c0,0 0,1 0,3 0,1 0,2 -1,4 -1,1 -2,2 -4,3 -3,1 -7,1 -14,0 -2,-1 -3,0 -4,0 -2,1 -3,2 -4,3 -1,2 -2,5 -3,6l0 13 25 5c4,0 6,4 6,7 0,4 -2,6 -6,5l-67 -11c-3,-1 -6,-4 -6,-8l0 -20c0,-14 11,-23 24,-20 8,1 14,6 19,12 1,-1 2,-2 4,-3 3,-2 8,-3 12,-2 4,1 6,1 7,1 1,-2 2,-3 4,-3 3,-1 7,1 8,5z"/>
      <path class="fil1" d="M1732 1083c0,3 -3,6 -7,5l-67 -12c-3,-1 -6,-4 -6,-7 0,-4 3,-6 6,-5l67 11c4,1 7,4 7,8z"/>
      <path class="fil1" d="M1658 1042c-2,0 -4,-1 -5,-3 -2,-4 -2,-7 1,-9l52 -28 -48 -8c-3,-1 -6,-4 -6,-8 0,-3 3,-5 6,-5l67 12c4,1 6,4 6,7 0,2 0,4 -2,5l-1 0 -51 28 48 8c4,1 6,4 6,8 0,3 -2,6 -6,5l-67 -12z"/>
      <path class="fil1" d="M1658 940l33 5 -37 -44c-3,-3 -3,-7 0,-8 2,-3 6,-2 8,1l26 30 33 -22c3,-1 7,0 9,3 1,1 1,3 1,4 0,2 0,3 -2,4l-32 21 12 14 16 3c4,1 6,4 6,8 0,3 -2,6 -6,5l-67 -12c-3,0 -6,-4 -6,-7 0,-4 3,-6 6,-5z"/>
      <polygon class="fil1" points="1759,1306 1692,1306 1759,1306 1791,1276 1692,1276 1791,1276 1791,859 1759,829 1759,829 1791,859 1791,1276 "/>
      <path class="fil59" d="M1791 1276l-99 0 0 -40 33 6c0,0 1,0 1,0 3,0 5,-2 5,-5l0 -14c0,-22 -17,-43 -39,-47l0 -20 33 5c1,1 1,1 1,1 3,0 5,-3 5,-6 0,-3 -2,-7 -6,-7l-25 -5 0 -13c1,-1 2,-4 3,-6 1,-1 2,-2 4,-3 0,0 1,0 3,0 0,0 1,0 1,0 4,0 6,1 8,1 3,0 4,-1 6,-1 2,-1 3,-2 4,-3 1,-2 1,-3 1,-4 0,-2 0,-3 0,-3 -1,-3 -4,-6 -7,-6 0,0 -1,1 -1,1 -2,0 -3,1 -4,3 0,0 -1,0 -1,0 -1,0 -3,0 -6,-1 -1,0 -2,0 -4,0 -3,0 -6,1 -8,2 -2,1 -3,2 -4,3 -1,-2 -2,-3 -3,-4l0 -28 33 6c1,0 1,0 1,0 3,0 6,-2 6,-5 0,-4 -3,-7 -7,-8l-33 -6 0 -21 33 6c1,0 1,0 1,0 3,0 5,-2 5,-5 0,-4 -2,-7 -6,-8l-33 -5 0 -11 36 -20 1 0c2,-1 2,-3 2,-5 0,-3 -2,-6 -6,-7l-33 -6 0 -29 33 6c1,0 1,0 1,0 3,0 5,-2 5,-5 0,-4 -2,-7 -6,-8l-16 -3 -12 -14 32 -21c2,-1 2,-2 2,-4 0,-1 0,-3 -1,-4 -2,-2 -4,-4 -6,-4 -1,0 -2,1 -3,1l-29 19 0 -62 99 0 0 417z"/>
      <path class="fil60" d="M1791 859l0 0zm0 0l-99 0 0 -30 67 0 32 30z"/>
      <path class="fil59" d="M1719 1228l-27 -5 0 -34c15,3 27,17 27,32l0 7z"/>
      <polygon class="fil60" points="1759,1306 1692,1306 1692,1276 1791,1276 "/>
      <path class="fil1" d="M1726 1242c0,0 -1,0 -1,0l-33 -6 0 -13 27 5 0 -7c0,-15 -12,-29 -27,-32l0 -13c22,4 39,25 39,47l0 14c0,3 -2,5 -5,5z"/>
      <path class="fil1" d="M1726 1162c0,0 0,0 -1,-1l-33 -5 0 -46c1,1 2,2 3,4 1,-1 2,-2 4,-3 2,-1 5,-2 8,-2 2,0 3,0 4,0 3,1 5,1 6,1 0,0 1,0 1,0 1,-2 2,-3 4,-3 0,0 1,-1 1,-1 3,0 6,3 7,6 0,0 0,1 0,3 0,1 0,2 -1,4 -1,1 -2,2 -4,3 -2,0 -3,1 -6,1 -2,0 -4,-1 -8,-1 0,0 -1,0 -1,0 -2,0 -3,0 -3,0 -2,1 -3,2 -4,3 -1,2 -2,5 -3,6l0 13 25 5c4,0 6,4 6,7 0,3 -2,6 -5,6z"/>
      <polygon class="fil59" points="1692,1010 1692,1000 1706,1002 "/>
      <path class="fil1" d="M1726 1088c0,0 0,0 -1,0l-33 -6 0 -13 33 6c4,1 7,4 7,8 0,3 -3,5 -6,5z"/>
      <path class="fil1" d="M1726 1054c0,0 0,0 -1,0l-33 -6 0 -12 33 5c4,1 6,4 6,8 0,3 -2,5 -5,5zm-34 -29l0 -15 14 -8 -14 -2 0 -13 33 6c4,1 6,4 6,7 0,2 0,4 -2,5l-1 0 -36 20z"/>
      <path class="fil1" d="M1726 964c0,0 0,0 -1,0l-33 -6 0 -37 29 -19c1,0 2,-1 3,-1 2,0 4,2 6,4 1,1 1,3 1,4 0,2 0,3 -2,4l-32 21 12 14 16 3c4,1 6,4 6,8 0,3 -2,5 -5,5z"/>
      <path class="fil29" d="M1550 562l-102 0 0 -65c0,-14 11,-25 25,-25l53 0c13,0 24,11 24,25l0 65z"/>
      <path class="fil21" d="M1541 611l0 -49 -83 0 0 49c0,15 -6,29 -17,39l-47 42c-11,10 -17,24 -17,39l0 524c0,28 24,52 52,52l140 0c29,0 53,-24 53,-52l0 -524c0,-15 -7,-29 -18,-39l-46 -42c-11,-10 -17,-24 -17,-39z"/>
      <path class="fil29" d="M1531 680l-64 0 -46 41c-3,3 -4,6 -4,10l0 524c0,6 6,12 12,12l140 0c7,0 13,-6 13,-12l0 -524c0,-4 -2,-7 -4,-10l-47 -41z"/>
      <path class="fil39" d="M1472 805c0,6 -6,11 -12,11 -6,0 -12,-5 -12,-11 0,-7 6,-12 12,-12 6,0 12,5 12,12z"/>
      <path class="fil39" d="M1523 749c0,5 -4,8 -8,8 -5,0 -8,-3 -8,-8 0,-4 3,-8 8,-8 4,0 8,4 8,8z"/>
      <path class="fil39" d="M1550 821c0,3 -2,5 -4,5 -3,0 -5,-2 -5,-5 0,-2 2,-5 5,-5 2,0 4,3 4,5z"/>
      <path class="fil39" d="M1515 875c0,3 -2,4 -4,4 -2,0 -4,-1 -4,-4 0,-2 2,-3 4,-3 2,0 4,1 4,3z"/>
      <path class="fil39" d="M1479 708c0,2 -1,4 -3,4 -3,0 -4,-2 -4,-4 0,-2 1,-4 4,-4 2,0 3,2 3,4z"/>
      <path class="fil39" d="M1460 732c0,3 -3,6 -6,6 -3,0 -6,-3 -6,-6 0,-3 3,-6 6,-6 3,0 6,3 6,6z"/>
      <path class="fil39" d="M1534 714c0,3 -2,6 -6,6 -3,0 -5,-3 -5,-6 0,-3 2,-6 5,-6 4,0 6,3 6,6z"/>
      <path class="fil39" d="M1566 749c0,5 -3,8 -8,8 -4,0 -8,-3 -8,-8 0,-4 4,-8 8,-8 5,0 8,4 8,8z"/>
      <path class="fil39" d="M1456 897c0,4 -3,7 -7,7 -4,0 -7,-3 -7,-7 0,-3 3,-6 7,-6 4,0 7,3 7,6z"/>
      <path class="fil39" d="M1519 924c0,2 -2,4 -4,4 -2,0 -4,-2 -4,-4 0,-2 2,-4 4,-4 2,0 4,2 4,4z"/>
      <path class="fil39" d="M1558 879c0,3 -1,4 -4,4 -2,0 -4,-1 -4,-4 0,-2 2,-4 4,-4 3,0 4,2 4,4z"/>
      <path class="fil39" d="M1519 797c0,5 -4,10 -10,10 -5,0 -10,-5 -10,-10 0,-6 5,-10 10,-10 6,0 10,4 10,10z"/>
      <path class="fil39" d="M1442 761c0,2 -1,3 -3,3 -2,0 -4,-1 -4,-3 0,-2 2,-4 4,-4 2,0 3,2 3,4z"/>
      <path class="fil39" d="M1472 934c0,3 -3,6 -6,6 -3,0 -6,-3 -6,-6 0,-3 3,-6 6,-6 3,0 6,3 6,6z"/>
      <path class="fil39" d="M1566 986c0,3 -2,6 -6,6 -3,0 -6,-3 -6,-6 0,-3 3,-6 6,-6 4,0 6,3 6,6z"/>
      <polygon class="fil61" points="1377,1056 1622,1056 1622,883 1377,883 "/>
      <path class="fil62" d="M1418 938c0,-4 -1,-7 -4,-10 -2,-2 -5,-4 -8,-4 -4,0 -7,2 -9,4 -2,3 -4,6 -4,10 0,3 2,7 4,9 2,2 5,4 9,4 3,0 6,-2 8,-4 3,-2 4,-6 4,-9zm1 -14c3,4 5,8 5,14 0,5 -2,10 -5,13 -3,4 -8,6 -13,6 -5,0 -10,-2 -13,-6 -4,-3 -6,-8 -6,-13 0,-6 2,-10 6,-14 3,-3 8,-6 13,-6 5,0 10,3 13,6z"/>
      <path class="fil62" d="M1452 931c0,-3 -2,-6 -5,-6l-7 0 0 11 7 0c3,0 5,-2 5,-5zm8 22c0,1 -1,3 -2,3l-1 1 -1 0 -2 -1 -1 -2c-1,-2 -1,-3 -1,-6 -1,-1 -1,-2 -1,-3l-2 -1c-1,-1 -2,-1 -3,-2l-6 0 0 12c0,2 -1,3 -3,3 -2,0 -3,-1 -3,-3l0 -32c0,-1 1,-3 3,-3l10 0c6,0 11,6 11,12 0,4 -2,7 -4,9l2 2c1,1 2,3 2,6 -1,1 0,2 0,3l2 2z"/>
      <path class="fil62" d="M1485 942l-4 -11 -4 11 8 0zm3 6l-14 0 -2 7c-1,1 -2,2 -3,2l-1 0c-2,-1 -2,-2 -2,-4l12 -32c1,-1 2,-2 3,-2 1,0 2,1 3,2l12 32c0,2 -1,3 -2,4l-1 0c-1,0 -2,-1 -3,-2l-2 -7z"/>
      <path class="fil62" d="M1509 954c0,2 -1,3 -3,3 -2,0 -3,-1 -3,-3l0 -31 1 -3c2,-1 3,0 4,1l18 24 0 -22c0,-2 1,-3 3,-3 1,0 3,1 3,3l0 31c0,2 -2,3 -3,3l-3 -1 0 0 -17 -24 0 22z"/>
      <path class="fil62" d="M1540 938c0,-11 9,-20 20,-20 5,0 9,2 12,5 2,1 2,3 1,4 -1,1 -3,1 -5,0 -2,-1 -5,-3 -8,-3 -4,0 -7,2 -10,4 -2,3 -4,6 -4,10 0,3 2,7 4,9 3,2 6,4 10,4 3,0 5,-1 7,-2l0 -7 -7 0c-2,0 -3,-2 -3,-4 0,-1 1,-3 3,-3l10 0c2,0 3,2 3,3l0 12 0 1 0 1 0 0 -1 1c-3,2 -7,4 -12,4 -11,0 -20,-8 -20,-19z"/>
      <path class="fil62" d="M1586 954l0 -32c0,-1 1,-3 3,-3l17 0c2,0 3,2 3,3 0,2 -1,3 -3,3l-14 0 0 10 12 0c2,0 3,2 3,3 0,2 -1,3 -3,3l-12 0 0 10 14 0c2,0 3,1 3,3 0,2 -1,3 -3,3l-17 0 0 0 0 0c-2,0 -3,-1 -3,-3z"/>
      <path class="fil62" d="M1425 1010c1,3 3,6 7,6 4,0 7,-4 7,-8l0 -21c0,-2 2,-3 3,-3 2,0 3,1 3,3l0 21c0,8 -6,14 -13,14 -6,0 -11,-4 -13,-10 0,-1 0,-3 2,-3 2,-1 3,0 4,1z"/>
      <path class="fil62" d="M1469 1022c-8,0 -15,-7 -15,-16l0 -19c0,-2 1,-3 3,-3 1,0 3,1 3,3l0 19c0,5 4,10 9,10 6,0 10,-5 10,-10l0 -19c0,-2 1,-3 3,-3 2,0 3,1 3,3l0 19c0,9 -7,16 -16,16z"/>
      <path class="fil62" d="M1495 987c0,-2 2,-3 3,-3 2,0 3,1 3,3l0 32c0,1 -1,3 -3,3 -1,0 -3,-2 -3,-3l0 -32z"/>
      <path class="fil62" d="M1510 1002c0,-10 9,-19 19,-19 5,0 9,1 13,4 1,1 1,3 0,4 -1,2 -3,2 -4,1 -2,-2 -5,-3 -9,-3 -3,0 -7,1 -9,4 -3,2 -4,6 -4,9 0,4 1,7 4,10 2,2 6,3 9,3 4,0 7,-1 9,-3 1,0 3,0 4,1 1,1 1,3 0,4 -4,3 -8,5 -13,5 -10,0 -19,-9 -19,-20z"/>
      <path class="fil62" d="M1553 1019l0 -32c0,-2 1,-3 3,-3l17 0c2,0 3,1 3,3 0,2 -1,3 -3,3l-14 0 0 10 12 0c2,0 3,1 3,3 0,1 -1,3 -3,3l-12 0 0 10 14 0c2,0 3,1 3,3 0,1 -1,3 -3,3l-17 0 0 -1 0 1c-2,0 -3,-2 -3,-3z"/>
      <path class="fil63" d="M1550 562l-51 0 0 -90 27 0c13,0 24,11 24,25l0 65z"/>
      <path class="fil64" d="M1569 1307l-70 0 0 -40 70 0c7,0 13,-6 13,-12l0 -199 40 0 0 199c0,7 -2,14 -5,21l0 0c-2,5 -6,10 -10,14 -9,11 -23,17 -38,17zm53 -424l-40 0 0 -152c0,-4 -2,-7 -4,-10l-47 -41 -32 0 0 -118 42 0 0 49c0,15 6,29 17,39l46 42c11,10 18,24 18,39l0 152z"/>
      <path class="fil63" d="M1569 1267l-70 0 0 -211 83 0 0 199c0,6 -6,12 -13,12zm13 -384l-83 0 0 -86c0,5 5,10 10,10 6,0 10,-5 10,-10 0,-6 -4,-10 -10,-10 -5,0 -10,4 -10,10l0 -117 32 0 47 41c2,3 4,6 4,10l0 152zm-28 -8c-2,0 -4,2 -4,4 0,3 2,4 4,4 3,0 4,-1 4,-4 0,-2 -1,-4 -4,-4zm-43 -3c-2,0 -4,1 -4,3 0,3 2,4 4,4 2,0 4,-1 4,-4 0,-2 -2,-3 -4,-3zm35 -56c-3,0 -5,3 -5,5 0,3 2,5 5,5 2,0 4,-2 4,-5 0,-2 -2,-5 -4,-5zm12 -75c-4,0 -8,4 -8,8 0,5 4,8 8,8 5,0 8,-3 8,-8 0,-4 -3,-8 -8,-8zm-43 0c-5,0 -8,4 -8,8 0,5 3,8 8,8 4,0 8,-3 8,-8 0,-4 -4,-8 -8,-8zm13 -33c-3,0 -5,3 -5,6 0,3 2,6 5,6 4,0 6,-3 6,-6 0,-3 -2,-6 -6,-6z"/>
      <path class="fil65" d="M1515 757c-5,0 -8,-3 -8,-8 0,-4 3,-8 8,-8 4,0 8,4 8,8 0,5 -4,8 -8,8z"/>
      <path class="fil65" d="M1546 826c-3,0 -5,-2 -5,-5 0,-2 2,-5 5,-5 2,0 4,3 4,5 0,3 -2,5 -4,5z"/>
      <path class="fil65" d="M1511 879c-2,0 -4,-1 -4,-4 0,-2 2,-3 4,-3 2,0 4,1 4,3 0,3 -2,4 -4,4z"/>
      <path class="fil65" d="M1528 720c-3,0 -5,-3 -5,-6 0,-3 2,-6 5,-6 4,0 6,3 6,6 0,3 -2,6 -6,6z"/>
      <path class="fil65" d="M1558 757c-4,0 -8,-3 -8,-8 0,-4 4,-8 8,-8 5,0 8,4 8,8 0,5 -3,8 -8,8z"/>
      <path class="fil65" d="M1554 883c-2,0 -4,-1 -4,-4 0,-2 2,-4 4,-4 3,0 4,2 4,4 0,3 -1,4 -4,4z"/>
      <path class="fil65" d="M1509 807c-5,0 -10,-5 -10,-10l0 0c0,-6 5,-10 10,-10 6,0 10,4 10,10 0,5 -4,10 -10,10z"/>
      <path class="fil66" d="M1622 1056l-123 0 0 -35c1,0 2,-1 2,-2l0 -32c0,-1 -1,-2 -2,-3l0 -101 123 0 0 173zm-66 -35l0 1 17 0c2,0 3,-2 3,-3 0,-2 -1,-3 -3,-3l-14 0 0 -10 12 0c2,0 3,-2 3,-3 0,-2 -1,-3 -3,-3l-12 0 0 -10 14 0c2,0 3,-1 3,-3 0,-2 -1,-3 -3,-3l-17 0c-2,0 -3,1 -3,3l0 32c0,1 1,3 3,3l0 -1zm-27 -38c-10,0 -19,9 -19,19 0,11 9,20 19,20 5,0 9,-2 13,-5 1,-1 1,-3 0,-4 0,-1 -1,-1 -2,-1 -1,0 -2,0 -2,0 -2,2 -5,3 -9,3 -3,0 -7,-1 -9,-3 -3,-3 -4,-6 -4,-10 0,-3 1,-7 4,-9 2,-3 6,-4 9,-4 4,0 7,1 9,3 1,0 1,1 2,1 1,0 2,-1 2,-2 1,-1 1,-3 0,-4 -4,-3 -8,-4 -13,-4zm60 -26l0 0 17 0c2,0 3,-1 3,-3 0,-2 -1,-3 -3,-3l-14 0 0 -10 12 0c2,0 3,-1 3,-3 0,-1 -1,-3 -3,-3l-12 0 0 -10 14 0c2,0 3,-1 3,-3 0,-1 -1,-3 -3,-3l-17 0c-2,0 -3,2 -3,3l0 32c0,2 1,3 3,3l0 0zm-29 -39c-11,0 -20,9 -20,20 0,11 9,19 20,19 5,0 9,-2 12,-4l1 -1 0 0 0 -1 0 -1 0 -12c0,-1 -1,-3 -3,-3l-10 0c-2,0 -3,2 -3,3 0,2 1,4 3,4l7 0 0 7c-2,1 -4,2 -7,2 -4,0 -7,-2 -10,-4 -2,-2 -4,-6 -4,-9 0,-4 2,-7 4,-10 3,-2 6,-4 10,-4 3,0 6,2 8,3 1,1 2,1 2,1 1,0 2,0 3,-1 1,-1 1,-3 -1,-4 -3,-3 -7,-5 -12,-5zm-51 14l17 24 0 0 3 1c1,0 3,-1 3,-3l0 -31c0,-2 -2,-3 -3,-3 -2,0 -3,1 -3,3l0 22 -18 -24c0,-1 -1,-1 -2,-1 -1,0 -1,0 -2,0l-1 3 0 31c0,2 1,3 3,3 2,0 3,-1 3,-3l0 -22z"/>
      <path class="fil67" d="M1529 957l-3 -1 0 0 -17 -24 0 22c0,2 -1,3 -3,3 -2,0 -3,-1 -3,-3l0 -31 1 -3c1,0 1,0 2,0 1,0 2,0 2,1l18 24 0 -22c0,-2 1,-3 3,-3 1,0 3,1 3,3l0 31c0,2 -2,3 -3,3z"/>
      <path class="fil67" d="M1560 957c-11,0 -20,-8 -20,-19 0,-11 9,-20 20,-20 5,0 9,2 12,5 2,1 2,3 1,4 -1,1 -2,1 -3,1 0,0 -1,0 -2,-1 -2,-1 -5,-3 -8,-3 -4,0 -7,2 -10,4 -2,3 -4,6 -4,10 0,3 2,7 4,9 3,2 6,4 10,4 3,0 5,-1 7,-2l0 -7 -7 0c-2,0 -3,-2 -3,-4 0,-1 1,-3 3,-3l10 0c2,0 3,2 3,3l0 12 0 1 0 1 0 0 -1 1c-3,2 -7,4 -12,4z"/>
      <path class="fil67" d="M1606 957l-17 0 0 0 0 0c-2,0 -3,-1 -3,-3l0 -32c0,-1 1,-3 3,-3l17 0c2,0 3,2 3,3 0,2 -1,3 -3,3l-14 0 0 10 12 0c2,0 3,2 3,3 0,2 -1,3 -3,3l-12 0 0 10 14 0c2,0 3,1 3,3 0,2 -1,3 -3,3z"/>
      <path class="fil67" d="M1499 1021l0 -37c1,1 2,2 2,3l0 32c0,1 -1,2 -2,2z"/>
      <path class="fil67" d="M1529 1022c-10,0 -19,-9 -19,-20 0,-10 9,-19 19,-19 5,0 9,1 13,4 1,1 1,3 0,4 0,1 -1,2 -2,2 -1,0 -1,-1 -2,-1 -2,-2 -5,-3 -9,-3 -3,0 -7,1 -9,4 -3,2 -4,6 -4,9 0,4 1,7 4,10 2,2 6,3 9,3 4,0 7,-1 9,-3 0,0 1,0 2,0 1,0 2,0 2,1 1,1 1,3 0,4 -4,3 -8,5 -13,5z"/>
      <path class="fil67" d="M1573 1022l-17 0 0 -1 0 1c-2,0 -3,-2 -3,-3l0 -32c0,-2 1,-3 3,-3l17 0c2,0 3,1 3,3 0,2 -1,3 -3,3l-14 0 0 10 12 0c2,0 3,1 3,3 0,1 -1,3 -3,3l-12 0 0 10 14 0c2,0 3,1 3,3 0,1 -1,3 -3,3z"/>
     </g>
    </g>
    <g>
     <circle class="fil12 str0" cx="2507" cy="410" r="389"/>
     <g>
      <path class="fil68" d="M2860 291c-7,0 -12,-5 -12,-11l0 -72c0,-51 42,-92 93,-92 6,0 11,5 11,11 0,7 -5,12 -11,12 -39,0 -70,31 -70,69l0 72c0,6 -5,11 -11,11z"/>
      <path class="fil13" d="M2808 665l0 0c-38,9 -77,-16 -85,-55l-55 -249c-8,-39 17,-77 55,-86 39,-8 78,17 86,55l54 250c9,39 -16,77 -55,85z"/>
      <path class="fil13" d="M2923 669l0 0c-39,-6 -66,-43 -60,-82l39 -253c6,-39 43,-66 82,-60 39,6 66,43 60,82l-39 253c-6,39 -42,66 -82,60z"/>
      <path class="fil69" d="M2860 671l0 0c-40,0 -72,-33 -72,-72l0 -256c0,-39 32,-72 72,-72 39,0 72,33 72,72l0 256c0,39 -33,72 -72,72z"/>
      <path class="fil70" d="M3023 322c9,19 5,40 -10,47 -15,8 -34,-1 -44,-20 -9,-19 -5,-40 10,-47 15,-8 34,1 44,20z"/>
      <path class="fil70" d="M2901 323c6,13 3,28 -7,33 -10,5 -24,-1 -31,-14 -6,-13 -3,-28 7,-33 10,-6 24,1 31,14z"/>
      <path class="fil71" d="M2754 447c0,130 -121,235 -269,235 -149,0 -269,-105 -269,-235 0,-130 259,-201 326,-215 5,43 212,85 212,215z"/>
      <path class="fil72" d="M2350 315c0,-28 -44,-60 -74,-50 -3,47 -72,90 -72,182 0,130 132,235 281,235 117,0 177,-132 134,-132 -149,0 -269,-105 -269,-235z"/>
      <path class="fil73" d="M2408 252c-25,-10 -47,-45 -69,-20 7,45 -76,59 -76,152 0,130 73,298 222,298 117,0 340,-271 -77,-430z"/>
      <path class="fil72" d="M2595 288c-72,0 -156,15 -186,47 -53,57 -19,116 -70,163 -24,22 12,36 18,49 17,51 34,135 128,135 148,0 278,-113 278,-243 0,-210 -139,-51 -168,-151z"/>
      <path class="fil73" d="M2716 265c-25,0 -70,31 -76,56 -28,115 -62,48 -124,110 -55,55 -31,66 -72,126 -33,48 -172,-12 -191,23 20,33 59,100 222,111 148,10 288,-122 288,-252 0,-101 -18,-74 -47,-174z"/>
      <path class="fil71" d="M2723 455c-8,3 -16,7 -23,12 13,-29 20,-60 18,-93 -1,-21 -34,-21 -33,0 1,22 -2,43 -9,62 -1,-8 -3,-17 -5,-26 -3,-10 -19,-5 -16,5 5,18 7,37 7,55 -10,19 -23,37 -36,54 -5,6 -10,12 -15,18 1,-10 2,-21 1,-31 -1,-23 -19,-44 -31,-62 -6,-8 -20,0 -14,9 11,15 23,31 28,49 5,17 0,40 -5,59 -17,17 -36,31 -58,39 -12,4 -24,8 -36,10 9,-25 10,-53 10,-80 0,-11 -16,-11 -16,0 -1,28 -1,58 -13,84 -18,2 -36,4 -54,4 -33,1 -72,-1 -101,-19 -18,-12 -35,17 -17,28 34,21 76,24 114,24 43,0 88,-6 128,-21 6,-3 12,-5 18,-8 16,-2 31,0 47,3 10,3 15,-13 4,-16 -9,-2 -18,-3 -27,-4 25,-19 45,-44 64,-68 11,-13 21,-28 30,-43 15,-12 31,-22 49,-30 9,-4 1,-19 -9,-14z"/>
      <path class="fil16" d="M2170 212c3,-78 45,-141 39,-140 -6,1 -59,62 -62,144 -3,79 30,139 36,138 7,-1 -17,-63 -13,-142z"/>
      <path class="fil16" d="M2196 178c28,-74 81,-121 75,-122 -7,-1 -69,41 -98,119 -27,73 -14,141 -7,142 6,1 3,-66 30,-139z"/>
      <path class="fil74" d="M2173 266c13,-77 63,-135 57,-134 -7,0 -66,54 -80,135 -13,77 13,142 19,141 7,0 -9,-65 4,-142z"/>
      <path class="fil18" d="M2338 498c0,95 -81,173 -181,173 -100,0 -182,-78 -182,-173 0,-83 82,-112 145,-168 18,-17 11,-81 16,-79 15,9 22,4 25,0l2 1c0,8 0,26 5,27 23,6 33,-11 35,-11 6,0 -31,38 -15,61 16,22 150,84 150,169z"/>
      <path class="fil75" d="M2267 417c34,35 47,77 29,95 -18,18 -61,4 -94,-30 -34,-35 -47,-77 -29,-95 18,-18 61,-4 94,30z"/>
      <path class="fil27" d="M2865 675c0,141 -214,99 -475,70 -261,-29 -475,-31 -475,-70 0,-39 213,-48 475,-70 261,-22 475,-82 475,70z"/>
      <path class="fil16" d="M3075 695c-22,-7 -47,-13 -74,-18 85,-2 139,4 171,57l20 -12c-39,-65 -106,-70 -199,-68 5,-2 10,-4 14,-6 46,-19 77,-32 153,9l11 -21c-86,-46 -124,-30 -173,-9 -35,15 -74,31 -142,31l0 31c172,0 293,46 293,88l23 0c0,-33 -34,-61 -97,-82z"/>
      <path class="fil29" d="M2837 651c0,26 -58,48 -130,48 -72,0 -130,-22 -130,-48 0,-27 58,-49 130,-49 72,0 130,22 130,49z"/>
      <path class="fil39" d="M2630 681c-4,0 -7,-3 -7,-7l0 -76c0,-4 3,-7 7,-7 4,0 7,3 7,7l0 76c0,4 -3,7 -7,7z"/>
      <path class="fil39" d="M2567 745c-4,0 -7,-4 -7,-7l0 -78c0,-3 3,-7 7,-7 3,0 7,4 7,7l0 78c0,3 -4,7 -7,7z"/>
      <path class="fil39" d="M2488 681c-4,0 -7,-3 -7,-7l0 -44c0,-4 3,-7 7,-7 4,0 7,3 7,7l0 44c0,4 -3,7 -7,7z"/>
      <path class="fil39" d="M2390 725c-4,0 -7,-3 -7,-7l0 -44c0,-3 3,-7 7,-7 3,0 7,4 7,7l0 44c0,4 -4,7 -7,7z"/>
      <path class="fil39" d="M2331 659c-4,0 -7,-3 -7,-7l0 -22c0,-4 3,-7 7,-7 4,0 7,3 7,7l0 22c0,4 -3,7 -7,7z"/>
      <path class="fil39" d="M2272 703c-4,0 -7,-3 -7,-7l0 -36c0,-3 3,-7 7,-7 4,0 7,4 7,7l0 36c0,4 -3,7 -7,7z"/>
      <path class="fil39" d="M2209 667c-4,0 -7,-3 -7,-7l0 -19c0,-4 3,-7 7,-7 4,0 7,3 7,7l0 19c0,4 -3,7 -7,7z"/>
      <path class="fil39" d="M2077 703c-3,0 -7,-3 -7,-7l0 -36c0,-3 4,-7 7,-7 4,0 7,4 7,7l0 36c0,4 -3,7 -7,7z"/>
      <path class="fil39" d="M2707 757c-4,0 -7,-3 -7,-7l0 -76c0,-3 3,-7 7,-7 4,0 7,4 7,7l0 76c0,4 -3,7 -7,7z"/>
      <path class="fil39" d="M2770 667c-4,0 -7,-3 -7,-7l0 -46c0,-4 3,-7 7,-7 4,0 7,3 7,7l0 46c0,4 -3,7 -7,7z"/>
     </g>
    </g>
   </g>
   <polygon class="fil76" points="2289,2352 2852,2352 2852,2610 2289,2610 "/>
   <g style="clip-path:url(#id0)">
    <g>
    </g>
    <g style="clip-path:url(#id1)">
     <image x="2258" y="2339" width="1541" height="1541" xlink:href="onling shoping background12_Images\onling shoping background12_ImgID1.png"/>
    </g>
    <g style="clip-path:url(#id2)">
    </g>
   </g>
   <polygon class="fil12" points="2289,2352 2852,2352 2852,2610 2289,2610 "/>
  </g>
 </g>
</svg>
