<?xml version="1.0" encoding="UTF-8"?>
<!DOCTYPE svg PUBLIC "-//W3C//DTD SVG 1.1//EN" "http://www.w3.org/Graphics/SVG/1.1/DTD/svg11.dtd">
<!-- Creator: CorelDRAW X8 -->
<svg xmlns="http://www.w3.org/2000/svg" xml:space="preserve" width="5.94137in" height="6.69439in" version="1.1" style="shape-rendering:geometricPrecision; text-rendering:geometricPrecision; image-rendering:optimizeQuality; fill-rule:evenodd; clip-rule:evenodd"
viewBox="0 0 9919 11176"
 xmlns:xlink="http://www.w3.org/1999/xlink">
 <defs>
  <style type="text/css">
   <![CDATA[
    .fil16 {fill:#A498D8}
    .fil4 {fill:#CE5964}
    .fil26 {fill:#D2405C}
    .fil45 {fill:#E37C69}
    .fil42 {fill:white}
    .fil18 {fill:white;fill-rule:nonzero}
    .fil23 {fill:url(#id74)}
    .fil12 {fill:url(#id75)}
    .fil46 {fill:url(#id76)}
    .fil53 {fill:url(#id77)}
    .fil22 {fill:url(#id78)}
    .fil56 {fill:url(#id79)}
    .fil54 {fill:url(#id80)}
    .fil60 {fill:url(#id81)}
    .fil15 {fill:url(#id82)}
    .fil38 {fill:url(#id83)}
    .fil11 {fill:url(#id84)}
    .fil17 {fill:url(#id85)}
    .fil39 {fill:url(#id86)}
    .fil57 {fill:url(#id87)}
    .fil61 {fill:url(#id88)}
    .fil58 {fill:url(#id89)}
    .fil37 {fill:url(#id90)}
    .fil31 {fill:url(#id91)}
    .fil52 {fill:url(#id92)}
    .fil44 {fill:url(#id93)}
    .fil2 {fill:url(#id94)}
    .fil32 {fill:url(#id95)}
    .fil29 {fill:url(#id96)}
    .fil47 {fill:url(#id97)}
    .fil1 {fill:url(#id98)}
    .fil33 {fill:url(#id99)}
    .fil5 {fill:url(#id100)}
    .fil9 {fill:url(#id101)}
    .fil7 {fill:url(#id102)}
    .fil30 {fill:url(#id103)}
    .fil43 {fill:url(#id104)}
    .fil59 {fill:url(#id105)}
    .fil27 {fill:url(#id106)}
    .fil35 {fill:url(#id107)}
    .fil48 {fill:url(#id108)}
    .fil55 {fill:url(#id109)}
    .fil8 {fill:url(#id110)}
    .fil3 {fill:url(#id111)}
    .fil25 {fill:url(#id112)}
    .fil41 {fill:url(#id113)}
    .fil51 {fill:url(#id114)}
    .fil24 {fill:url(#id115)}
    .fil28 {fill:url(#id116)}
    .fil6 {fill:url(#id117)}
    .fil50 {fill:url(#id118)}
    .fil10 {fill:url(#id119)}
    .fil13 {fill:url(#id120)}
    .fil20 {fill:url(#id121)}
    .fil14 {fill:url(#id122)}
    .fil34 {fill:url(#id123)}
    .fil21 {fill:url(#id124)}
    .fil19 {fill:url(#id125)}
    .fil36 {fill:url(#id126)}
    .fil40 {fill:url(#id127)}
    .fil0 {fill:url(#id128)}
    .fil49 {fill:url(#id129)}
   ]]>
  </style>
    <clipPath id="id0" style="clip-rule:nonzero">
     <path d="M7902 5884l-1 0 43 -51 -42 51 0 0z"/>
    </clipPath>
    <clipPath id="id1" style="clip-rule:nonzero">
     <path d="M7776 9982c-200,-69 -473,-209 -693,-496 0,0 0,0 0,0 0,0 0,0 0,0 -5,-11 -8,-20 -12,-30l529 23c56,205 117,396 176,503zm-709 -537c-27,-76 -44,-144 -54,-197 -3,-19 -4,-43 -4,-66 14,0 24,-2 30,-4 171,-41 353,-182 385,-358l0 0c1,-6 2,-13 3,-26l3 -27c9,40 19,85 30,132l-393 546zm1148 -1378c-22,-6 -44,-13 -67,-24l7 -3 60 27 0 0zm9 -1034c-108,-271 -543,-454 -674,-505 24,-468 49,-976 74,-1492l277 849 1 0 0 0 42 -52 17 -22c34,-476 -136,-1749 -136,-1749 0,0 -1,0 -1,0 0,0 0,0 0,0 0,0 -13,-4 -37,-16 -21,-11 -51,-31 -88,-67 -7,-7 -15,-14 -22,-23 4,-98 9,-195 13,-291 97,64 183,116 208,119 3,0 5,0 8,0 77,0 208,-126 208,-126l-111 231c0,0 437,1011 440,1700 0,0 137,0 368,0 0,0 -450,121 -637,296 0,0 -128,490 -37,866 20,85 51,181 87,282l0 0z"/>
    </clipPath>
    <clipPath id="id2" style="clip-rule:nonzero">
     <path d="M8513 7705c-59,-124 -192,-409 -289,-673 0,0 1,1 1,1 97,242 231,541 290,671 -1,0 -1,1 -2,1l0 0z"/>
    </clipPath>
    <clipPath id="id3" style="clip-rule:nonzero">
     <path d="M8148 8044c0,0 0,0 0,0l0 0c-17,-10 -36,-21 -54,-33l61 28 -7 5zm-66 -40c-186,-116 -428,-296 -586,-416 16,-315 35,-674 54,-1060 131,51 566,235 674,504 97,264 230,549 289,673 -134,129 -304,268 -431,299l0 0z"/>
    </clipPath>
    <clipPath id="id4" style="clip-rule:nonzero">
     <path d="M7071 9456l-12 -1 0 0 8 -11c1,4 3,8 4,12l0 0z"/>
    </clipPath>
    <clipPath id="id5" style="clip-rule:nonzero">
     <path d="M7600 9479l-529 -23c-1,-4 -3,-8 -4,-12l392 -545c39,169 88,382 141,580l0 0z"/>
    </clipPath>
    <clipPath id="id6" style="clip-rule:nonzero">
     <path d="M1427 8989l0 0c-25,-18 -689,-495 -1020,-1075l0 -1c0,0 0,0 0,0 429,605 995,1057 1020,1076l0 0 0 0z"/>
    </clipPath>
    <clipPath id="id7" style="clip-rule:nonzero">
     <path d="M3021 9441c10,-111 16,-202 21,-268 0,0 0,0 0,0 -4,66 -11,157 -21,268l0 0 0 0z"/>
    </clipPath>
    <clipPath id="id8" style="clip-rule:nonzero">
     <path d="M2902 10507c-177,-561 -596,-1521 -1386,-1521 -29,0 -59,1 -89,4l0 -1 0 0c-25,-19 -591,-471 -1020,-1075 0,-1 0,-1 -1,-1l0 -3c16,9 550,284 874,321 34,4 72,6 114,6 171,0 400,-30 639,-60 182,-23 372,-46 544,-55 10,216 19,397 27,528 -50,-5 -96,-7 -139,-7 -270,0 -410,86 -410,86 115,-17 220,-24 313,-24 89,0 169,6 240,18 7,105 12,167 15,180 41,143 262,243 419,270 -5,66 -12,157 -21,268 -2,28 -4,57 -7,87 -20,228 -50,521 -93,842 -6,45 -12,91 -19,137l0 0z"/>
    </clipPath>
    <clipPath id="id9" style="clip-rule:nonzero">
     <path d="M2055 8729c0,0 140,-86 410,-86 43,0 89,2 139,7 2,26 3,51 4,73 -71,-12 -151,-18 -240,-18 -94,0 -198,7 -313,24l0 0z"/>
    </clipPath>
    <clipPath id="id10">
     <path d="M1810 4765l0 -81c55,6 113,10 173,15 -60,22 -118,44 -173,66l0 0z"/>
    </clipPath>
    <clipPath id="id11">
     <path d="M1873 4467l0 0c5,-14 179,-447 382,-938 -206,499 -382,938 -382,938l0 0z"/>
    </clipPath>
    <clipPath id="id12">
     <path d="M2279 4584l-290 -83 -116 -34c0,0 0,0 0,0l0 0c0,0 176,-439 382,-938 39,-96 80,-194 121,-292 16,412 33,849 50,1290 -2,0 -3,1 -5,2 -48,19 -95,37 -142,55l0 0z"/>
    </clipPath>
    <clipPath id="id13" style="clip-rule:nonzero">
     <path d="M1712 4433c3,-94 17,-373 58,-691 14,-105 38,-228 66,-350l1 0c-29,122 -53,245 -67,350 -41,317 -54,597 -58,691l0 0z"/>
    </clipPath>
    <clipPath id="id14" style="clip-rule:nonzero">
     <path d="M1426 4494c-95,0 -214,-7 -356,-27l0 0c0,0 335,-376 402,-698 137,-656 120,-1274 120,-1274 193,74 394,92 394,92 126,-48 272,-273 349,-406 0,17 1,34 2,51 -6,14 -11,28 -16,41 -32,79 -65,151 -101,215 -21,37 -42,71 -64,101 -43,60 -89,107 -137,136 -1,0 -1,1 -2,2l0 0c0,0 0,0 0,0 0,0 -44,139 -95,326 -28,103 -58,221 -85,338 -29,123 -53,246 -67,351 -41,318 -55,597 -58,691 -1,22 -1,34 -1,34l0 0c0,0 -97,27 -285,27l0 0z"/>
    </clipPath>
    <clipPath id="id15" style="clip-rule:nonzero">
     <path d="M241 6581c2,-4 3,-9 5,-14 -3,9 -4,13 -4,14 0,0 -1,0 -1,0l0 0 0 0z"/>
    </clipPath>
    <clipPath id="id16" style="clip-rule:nonzero">
     <path d="M242 6581c0,-1 1,-5 4,-14 195,-630 560,-1573 616,-2104 20,9 43,19 69,29l-45 8c0,0 25,1 69,2 161,62 432,140 846,181l-9 89c-170,65 -315,124 -423,177 -44,20 -75,37 -89,49 0,0 0,0 0,0 0,0 0,0 0,0 0,0 0,0 0,0l-16 15c-62,72 -117,254 -149,354 -34,108 -544,1032 -873,1214l0 0z"/>
    </clipPath>
    <clipPath id="id17" style="clip-rule:nonzero">
     <path d="M1792 4772l9 -89c3,1 6,1 9,1l0 81c-6,2 -12,4 -18,7zm-837 -270c-44,-1 -70,-1 -70,-1l45 -9c8,3 17,7 25,10l0 0z"/>
    </clipPath>
    <clipPath id="id18" style="clip-rule:nonzero">
     <path d="M1810 4684c-3,0 -6,0 -9,-1l9 -90 0 0 0 91zm-483 -165c-149,-10 -291,-15 -372,-17 -9,-3 -17,-7 -25,-10l72 -13c86,10 203,25 325,40l0 0z"/>
    </clipPath>
    <clipPath id="id19" style="clip-rule:nonzero">
     <path d="M2521 6856c-279,-464 -687,-649 -737,-670 4,-103 12,-237 26,-358l0 0 0 -1c12,-102 28,-194 50,-250l0 0 0 0 154 -55c152,-20 306,-50 448,-84l3 68c19,471 38,930 56,1350zm-689 -139c0,-4 0,-8 0,-11 0,-110 -19,-212 -34,-275l0 -1c0,0 45,21 115,61l-81 226zm-34 -287l-18 -117c0,-22 1,-51 2,-85l16 202 0 0z"/>
    </clipPath>
    <clipPath id="id20" style="clip-rule:nonzero">
     <path d="M2167 6662c-23,-17 -45,-33 -65,-49 21,16 43,32 65,49l0 0z"/>
    </clipPath>
    <clipPath id="id21" style="clip-rule:nonzero">
     <path d="M1810 5828c0,0 0,-1 0,-1l0 1 0 0 0 0z"/>
    </clipPath>
    <clipPath id="id22" style="clip-rule:nonzero">
     <path d="M2522 6887c-143,-79 -262,-157 -355,-225l0 0c-22,-17 -43,-33 -65,-49l0 0c-117,-91 -178,-153 -178,-153l-11 31 0 0c-70,-40 -115,-61 -115,-61l0 0 -16 -202c1,-13 1,-27 2,-42 50,21 458,205 737,669 0,11 1,22 1,32l0 0z"/>
    </clipPath>
    <clipPath id="id23" style="clip-rule:nonzero">
     <path d="M5195 8767l0 0c-207,0 -395,0 -567,0l-1909 -1817c-16,-364 -34,-775 -52,-1210 146,-65 355,-183 548,-381 14,-14 30,-30 42,-46l2 21c7,129 113,230 242,230l27 0c38,53 102,88 173,88l2804 0c70,0 133,-35 172,-88l31 0c130,0 236,-101 243,-230l27 -784 449 620c-44,839 -87,1649 -121,2264 -70,-64 -206,-186 -387,-350 -91,-81 -254,-261 -418,-441 -3,-2 -3,-4 -3,-4l-1 0c-210,-231 -418,-457 -465,-473 -7,-2 -15,-4 -25,-4 -75,-47 -163,-74 -258,-74l-1368 0c-272,0 -493,221 -493,493 0,169 83,316 211,404 68,122 198,203 348,203l1217 0c32,0 64,-3 95,-12 69,268 185,595 378,890 248,383 644,575 932,669 -25,7 -54,12 -85,16 -41,5 -288,16 -1789,16zm-2584 -4317c-49,-1166 -99,-2398 -140,-3440 -5,-129 101,-275 217,-298 150,-32 566,-43 1473,-48l707 975 -856 -7 41 111 64 0 125 918 -486 92 1912 -9 128 178 -2407 -5c-139,0 -249,115 -242,256l0 9c0,9 0,21 0,32l17 309 -6 0 26 418 1 0 11 217c-61,32 -154,80 -253,133 -24,14 -48,28 -72,42 -77,37 -163,76 -260,117l0 0z"/>
    </clipPath>
    <clipPath id="id24">
     <path d="M5664 7189l-1217 0c-150,0 -279,-82 -348,-203 80,55 177,88 282,88l1352 0c8,33 16,68 26,103 -31,8 -62,12 -95,12l0 0z"/>
    </clipPath>
    <clipPath id="id25" style="clip-rule:nonzero">
     <path d="M4939 9064l-1762 -16c0,0 -292,-15 -412,-251l-93 -1893 48 46c42,915 73,1556 87,1654 24,53 50,164 237,164 2,0 5,0 8,0 33,0 113,0 262,0 236,0 646,0 1315,0l310 296 0 0z"/>
    </clipPath>
    <clipPath id="id26" style="clip-rule:nonzero">
     <path d="M3044 8768c-186,0 -213,-111 -237,-163 -13,-100 -46,-740 -87,-1655l1909 1818c-668,0 -1078,0 -1315,0 -149,0 -229,0 -262,0 -3,0 -6,0 -8,0l0 0z"/>
    </clipPath>
    <clipPath id="id27" style="clip-rule:nonzero">
     <path d="M6505 5652l-2805 0c-71,0 -133,-34 -172,-88l3149 0c-39,54 -102,88 -172,88l0 0z"/>
    </clipPath>
    <clipPath id="id28" style="clip-rule:nonzero">
     <path d="M3581 4362c-13,-63 -54,-132 -152,-185 -20,-11 -41,-21 -65,-31l0 -49 2268 -27 0 280 -2051 12 0 0z"/>
    </clipPath>
    <clipPath id="id29" style="clip-rule:nonzero">
     <path d="M6000 4362l0 -292 617 -17 215 297 0 7 -832 5 0 0z"/>
    </clipPath>
    <clipPath id="id30">
     <path d="M3755 2752l487 -90 6 41 1384 -9 36 50 -1913 8 0 0z"/>
    </clipPath>
    <clipPath id="id31">
     <path d="M7484 5247l-57 -76c104,-1972 211,-4108 212,-4291 -25,-76 -29,-160 -202,-198 -85,-10 -598,-20 -1802,-20 -596,0 -1081,2 -1475,3l-267 -370c0,0 1340,-17 2361,-17 587,0 1069,6 1131,23 279,75 316,347 316,347l-217 4599zm-2297 -4930c-77,0 -139,62 -139,138 0,77 62,139 139,139 76,0 140,-62 140,-139 0,-76 -64,-138 -140,-138l0 0z"/>
    </clipPath>
    <clipPath id="id32">
     <path d="M7427 5170l-449 -620 46 -1329c0,-10 0,-21 -1,-31l1 -13c7,-139 -104,-254 -243,-254l-985 -3 -128 -176 730 -3 -394 -78 144 -904 62 7 15 -88 -211 -29 -10 94 -72 0 72 0 10 -94 -554 -5 0 -34 -48 -2 436 -482 -20 -82 -131 -158 -716 690 -84 0 4 64 -34 -1 -707 -975c394,-1 880,-1 1475,-1 1203,0 1718,9 1802,18 173,40 177,122 203,198 -1,184 -110,2321 -213,4291l0 0z"/>
    </clipPath>
    <clipPath id="id33">
     <path d="M5187 594c-76,0 -139,-62 -139,-138 0,-77 63,-139 139,-139 77,0 139,62 139,139 0,76 -62,138 -139,138zm29 -71c5,4 11,6 17,6 15,0 28,-12 28,-28 0,-6 -2,-12 -6,-17 4,-8 6,-18 6,-28 0,-41 -33,-74 -74,-74 -40,0 -73,33 -73,74 0,40 33,73 73,73 10,0 20,-2 29,-6l0 0z"/>
    </clipPath>
    <clipPath id="id34">
     <path d="M5187 529c-40,0 -73,-33 -73,-73 0,-41 33,-74 73,-74 41,0 74,33 74,74 0,10 -2,20 -6,28 -5,-6 -13,-10 -22,-10 -15,0 -28,12 -28,27 0,9 4,17 11,22 -9,4 -19,6 -29,6l0 0z"/>
    </clipPath>
    <clipPath id="id35" style="clip-rule:nonzero">
     <path d="M7023 3190c-10,-125 -114,-225 -242,-225l-954 -1 -31 -43 985 1c139,0 249,117 243,256l-1 12 0 0z"/>
    </clipPath>
    <clipPath id="id36" style="clip-rule:nonzero">
     <path d="M5209 1643l-6 -1 1 -64 186 -159 -107 184 -69 -2 -5 42 0 0z"/>
    </clipPath>
    <clipPath id="id37" style="clip-rule:nonzero">
     <path d="M6978 4551l-146 -201 -1 -303 -214 6 -106 -146 485 -6 17 -419 -803 9 -383 -527 954 2c128,0 232,99 242,224 1,10 1,20 1,31l-46 1330 0 0z"/>
    </clipPath>
    <clipPath id="id38" style="clip-rule:nonzero">
     <path d="M6511 3907l-302 -416 804 -9 -17 420 -485 5 0 0z"/>
    </clipPath>
    <clipPath id="id39" style="clip-rule:nonzero">
     <path d="M6832 4350l-215 -297 214 -6 1 303 0 0z"/>
    </clipPath>
    <clipPath id="id40" style="clip-rule:nonzero">
     <path d="M5668 2744l-37 -50 155 -2 213 0 4 -29 395 78 -730 3 0 0z"/>
    </clipPath>
    <clipPath id="id41" style="clip-rule:nonzero">
     <path d="M5460 1645l-81 -1 32 -36 49 2 0 35zm-138 -1l-113 -1 5 -42 69 2 -23 40 62 1 0 0z"/>
    </clipPath>
    <clipPath id="id42" style="clip-rule:nonzero">
     <path d="M5379 1644l-57 0 -62 -1 23 -40 107 -184 438 -376 -132 -157 132 157 20 83 -437 482 -32 36 0 0z"/>
    </clipPath>
    <clipPath id="id43" style="clip-rule:nonzero">
     <path d="M5204 1578l0 -2 -224 0 716 -690 132 157 -439 376 -185 159 0 0z"/>
    </clipPath>
    <clipPath id="id44" style="clip-rule:nonzero">
     <path d="M5631 2693l-49 -68 4 0 105 -702 211 16 -116 754 -155 0 0 0z"/>
    </clipPath>
    <clipPath id="id45" style="clip-rule:nonzero">
     <path d="M5902 1939l-211 -16 27 -180 214 0 -30 196 0 0z"/>
    </clipPath>
    <clipPath id="id46" style="clip-rule:nonzero">
     <path d="M5540 2568l-307 -424 17 -254 369 28 -79 650 0 0z"/>
    </clipPath>
    <clipPath id="id47" style="clip-rule:nonzero">
     <path d="M5619 1918l-369 -28 10 -147 380 0 -21 175 0 0z"/>
    </clipPath>
    <clipPath id="id48" style="clip-rule:nonzero">
     <path d="M5159 2042l-122 -168 125 9 -3 159 0 0z"/>
    </clipPath>
    <clipPath id="id49" style="clip-rule:nonzero">
     <path d="M5162 1883l-125 -9 -94 -131 222 0 -3 140 0 0z"/>
    </clipPath>
    <clipPath id="id50" style="clip-rule:nonzero">
     <path d="M6004 1743l-72 0 0 0 -214 0 -78 0 -380 0 -95 0 -222 0 -22 -30 280 0 2 -70 6 0 113 1 56 0 82 1 554 5 -10 93zm-1101 -54l-35 -49 33 0 2 49 0 0z"/>
    </clipPath>
    <clipPath id="id51" style="clip-rule:nonzero">
     <path d="M5201 1713l-280 0 -18 -24 -2 -49 -4 -64 83 0 224 0 0 2 -1 65 -2 70 0 0z"/>
    </clipPath>
    <clipPath id="id52" style="clip-rule:nonzero">
     <path d="M2465 5506l-3 -68 0 0c1,23 2,45 3,68l0 0z"/>
    </clipPath>
    <clipPath id="id53" style="clip-rule:nonzero">
     <path d="M2666 5740c-5,-115 -10,-232 -15,-351 155,-44 279,-90 344,-126 75,-40 164,-96 251,-175l12 225c-14,15 -29,31 -44,47 -191,197 -401,315 -548,380l0 0z"/>
    </clipPath>
    <clipPath id="id54" style="clip-rule:nonzero">
     <path d="M3575 4362c-14,-64 -53,-133 -146,-185 99,53 139,122 152,185l-6 0 0 0z"/>
    </clipPath>
    <clipPath id="id55">
     <path d="M780 7764c-25,0 -49,-1 -73,-6 -216,-39 -475,-288 -589,-504 78,69 230,172 441,172 51,0 106,-5 164,-20 364,-208 421,-844 421,-844 0,0 -180,-275 -438,-275 -32,0 -66,4 -100,14 0,0 -326,242 -489,505 53,-127 124,-225 124,-225 329,-182 840,-1106 874,-1214 32,-100 87,-283 149,-354l15 -15c30,109 106,209 193,296 0,4 0,7 0,10 0,31 25,55 56,55 4,0 9,0 14,-1 155,134 318,219 318,219 -49,122 -68,418 -76,609 -1,15 -1,28 -2,42 -1,34 -2,63 -2,85 -1,30 -1,48 -1,48l0 0 0 0c0,0 9,26 19,70l0 0 0 0c15,63 34,165 34,275 0,105 -17,218 -70,317 -139,256 -601,741 -982,741l0 0z"/>
    </clipPath>
    <clipPath id="id56">
     <path d="M118 7254c-38,-34 -59,-60 -59,-60 -67,-114 -26,-254 58,-389 -32,76 -58,163 -58,245 0,27 3,53 9,79 10,39 27,81 50,125l0 0z"/>
    </clipPath>
    <clipPath id="id57">
     <path d="M559 7426c-212,0 -363,-103 -441,-172 -23,-44 -40,-86 -50,-125 -6,-26 -9,-52 -9,-79 0,-82 26,-169 58,-245 163,-262 489,-505 489,-505 34,-9 68,-13 100,-13 258,0 437,275 437,275 0,0 -56,636 -420,844 -58,14 -113,20 -164,20l0 0z"/>
    </clipPath>
    <clipPath id="id58" style="clip-rule:nonzero">
     <path d="M1528 5360c-31,0 -56,-25 -56,-56 0,-4 0,-7 1,-10 22,22 45,44 69,64 -5,1 -10,2 -14,2l0 0z"/>
    </clipPath>
    <clipPath id="id59">
     <path d="M7427 8795c0,-8 1,-18 2,-29 0,1 0,1 1,2l-3 27 0 0z"/>
    </clipPath>
    <clipPath id="id60" style="clip-rule:nonzero">
     <path d="M7068 8735c-287,-94 -683,-286 -931,-669 -192,-296 -309,-621 -379,-889 36,-8 70,-22 102,-40 152,284 352,554 478,623l1 1 0 0c113,61 337,127 453,159 39,11 65,18 72,19l0 0 0 0 0 0 0 0 2 1 0 0c0,0 230,267 383,462 -4,77 -8,125 -10,137 -16,82 -42,159 -171,196l0 0z"/>
    </clipPath>
    <clipPath id="id61" style="clip-rule:nonzero">
     <path d="M5759 7177c-10,-35 -18,-70 -26,-103l16 0c25,0 50,-2 75,-5 11,23 23,46 36,69 -32,17 -66,31 -101,39l0 0z"/>
    </clipPath>
    <clipPath id="id62">
     <path d="M8147 8043c-17,-8 -40,-21 -66,-37l66 37 0 0z"/>
    </clipPath>
    <clipPath id="id63">
     <path d="M8148 8044c0,0 -1,-1 -1,-1l-66 -37c-1,-1 -1,-1 -2,-1l14 6c19,12 38,23 55,33zm-69 -40c-145,-89 -410,-282 -583,-413 0,-1 0,-2 0,-3 158,120 400,300 586,416 -1,0 -2,0 -3,0l0 0z"/>
    </clipPath>
    <clipPath id="id64">
     <path d="M7496 7591c-38,-29 -72,-55 -99,-76 0,-1 0,-2 0,-3 27,20 60,46 99,76 0,1 0,2 0,3l0 0z"/>
    </clipPath>
    <clipPath id="id65">
     <path d="M7397 7515c-32,-26 -55,-44 -65,-54 6,5 30,23 65,51 0,1 0,2 0,3l0 0z"/>
    </clipPath>
    <clipPath id="id66" style="clip-rule:nonzero">
     <path d="M8238 10167c-173,0 -273,-25 -273,-25l0 0c-49,-25 -93,-53 -132,-84 -184,-147 -408,-1379 -451,-1472 -13,-29 -65,-99 -133,-184 -154,-195 -383,-462 -383,-462l0 0c0,0 -1,0 -3,-1 -16,-6 -95,-42 -194,-96 58,9 119,14 178,14 30,0 60,-1 88,-5 46,-5 88,-21 126,-43 11,10 25,16 40,16 32,0 57,-25 57,-56 0,-11 -3,-20 -8,-29 4,-4 9,-8 12,-12 117,-92 197,-240 169,-268l2 1 0 0c10,10 32,28 64,53 28,22 61,48 98,77 174,131 439,324 584,414 0,0 0,0 0,0 1,0 1,0 2,0 27,17 49,30 65,38 1,0 2,0 2,1l0 0c44,21 88,29 127,29 96,0 168,-46 168,-46 0,0 318,307 363,987 3,47 4,92 4,138 1,435 -135,802 -248,989 -125,20 -234,26 -324,26l0 0z"/>
    </clipPath>
    <clipPath id="id67" style="clip-rule:nonzero">
     <path d="M6792 7920c-116,-32 -340,-97 -453,-159 113,62 337,127 453,159l0 0z"/>
    </clipPath>
    <clipPath id="id68" style="clip-rule:nonzero">
     <path d="M7101 7825c-15,0 -29,-6 -39,-16 32,-19 62,-43 88,-69 5,9 8,18 8,29 0,31 -25,56 -57,56l0 0z"/>
    </clipPath>
    <clipPath id="id69" style="clip-rule:nonzero">
     <path d="M6864 7939c-6,-1 -33,-8 -72,-19 37,10 63,17 71,19 1,0 1,0 1,0l0 0z"/>
    </clipPath>
    <clipPath id="id70" style="clip-rule:nonzero">
     <path d="M6670 7843c-172,-26 -319,-78 -331,-82l0 0 -1 -1c-136,-75 -359,-384 -514,-691 -48,-94 -89,-188 -119,-275 0,0 436,621 626,809 96,94 229,179 339,240l0 0z"/>
    </clipPath>
    <clipPath id="id71" style="clip-rule:nonzero">
     <path d="M6863 7939c-8,-2 -34,-9 -71,-19 -116,-32 -340,-97 -453,-159 12,4 159,56 330,82 99,54 178,90 194,96l0 0z"/>
    </clipPath>
    <clipPath id="id72" style="clip-rule:nonzero">
     <path d="M8331 11144c0,-1 0,-2 -1,-3 -29,-401 -92,-643 -104,-685 -1,-4 -1,-6 -1,-6 0,0 -355,-35 -497,-79 -20,-5 -35,-12 -45,-18 1,0 7,2 18,2 41,0 147,-21 263,-213 156,83 341,132 440,132 15,0 28,-1 39,-3 28,-7 71,-53 119,-130 115,-19 242,-48 380,-94l-611 1097 0 0z"/>
    </clipPath>
    <clipPath id="id73" style="clip-rule:nonzero">
     <path d="M8404 10274c-99,0 -284,-49 -440,-132l0 0c0,0 101,25 275,25 89,0 198,-7 323,-26 -47,77 -91,123 -119,130 -11,2 -24,3 -39,3l0 0z"/>
    </clipPath>
  <linearGradient id="id74" gradientUnits="userSpaceOnUse" x1="6136.4" y1="5215.43" x2="6136.4" y2="4655.81">
   <stop offset="0" style="stop-opacity:1; stop-color:#FF8647"/>
   <stop offset="1" style="stop-opacity:1; stop-color:#FFB934"/>
  </linearGradient>
  <linearGradient id="id75" gradientUnits="userSpaceOnUse" x1="7682.9" y1="4061.08" x2="7682.9" y2="3289.11">
   <stop offset="0" style="stop-opacity:1; stop-color:#281742"/>
   <stop offset="0.0117647" style="stop-opacity:1; stop-color:#281742"/>
   <stop offset="1" style="stop-opacity:1; stop-color:#322D45"/>
  </linearGradient>
  <linearGradient id="id76" gradientUnits="userSpaceOnUse" x1="1857.42" y1="5647.23" x2="1857.42" y2="5412.45">
   <stop offset="0" style="stop-opacity:1; stop-color:#FF8166"/>
   <stop offset="0.0117647" style="stop-opacity:1; stop-color:#FF8166"/>
   <stop offset="1" style="stop-opacity:1; stop-color:#D9707E"/>
  </linearGradient>
  <linearGradient id="id77" gradientUnits="userSpaceOnUse" x1="6136.79" y1="7061.22" x2="6136.79" y2="6166.15">
   <stop offset="0" style="stop-opacity:1; stop-color:#FFB693"/>
   <stop offset="1" style="stop-opacity:1; stop-color:#FFCF9C"/>
  </linearGradient>
  <linearGradient id="id78" gradientUnits="userSpaceOnUse" x1="6136.4" y1="4942.02" x2="6786.44" y2="4942.02">
   <stop offset="0" style="stop-opacity:1; stop-color:#E03347"/>
   <stop offset="0" style="stop-opacity:1; stop-color:#E03347"/>
   <stop offset="1" style="stop-opacity:1; stop-color:#FF6E27"/>
  </linearGradient>
  <linearGradient id="id79" gradientUnits="userSpaceOnUse" x1="6338.95" y1="8866.96" x2="8810.64" y2="8866.96">
   <stop offset="0" style="stop-opacity:1; stop-color:#C14E63"/>
   <stop offset="0.0117647" style="stop-opacity:1; stop-color:#C14E63"/>
   <stop offset="1" style="stop-opacity:1; stop-color:#CE5460"/>
  </linearGradient>
  <linearGradient id="id80" gradientUnits="userSpaceOnUse" x1="6136.79" y1="7061.22" x2="6136.79" y2="6166.15">
   <stop offset="0" style="stop-opacity:1; stop-color:#FFCCAE"/>
   <stop offset="1" style="stop-opacity:1; stop-color:#FFDEB5"/>
  </linearGradient>
  <linearGradient id="id81" gradientUnits="userSpaceOnUse" x1="8456.27" y1="8948.84" x2="8456.27" y2="8232.64">
   <stop offset="0" style="stop-opacity:1; stop-color:#FFAE7F"/>
   <stop offset="1" style="stop-opacity:1; stop-color:#FFB384"/>
  </linearGradient>
  <linearGradient id="id82" gradientUnits="userSpaceOnUse" x1="5056.33" y1="9091.87" x2="5056.33" y2="246.507">
   <stop offset="0" style="stop-opacity:1; stop-color:#603082"/>
   <stop offset="0.988235" style="stop-opacity:1; stop-color:#2A0E51"/>
   <stop offset="1" style="stop-opacity:1; stop-color:#2A0E51"/>
  </linearGradient>
  <linearGradient id="id83" gradientUnits="userSpaceOnUse" xlink:href="#id81" x1="2421.02" y1="5393.47" x2="2421.02" y2="4118.83">
  </linearGradient>
  <linearGradient id="id84" gradientUnits="userSpaceOnUse" xlink:href="#id75" x1="7745.21" y1="2966.64" x2="7745.21" y2="1353.99">
  </linearGradient>
  <linearGradient id="id85" gradientUnits="userSpaceOnUse" xlink:href="#id78" x1="5064.8" y1="7074.26" x2="5064.8" y2="6088.12">
  </linearGradient>
  <linearGradient id="id86" gradientUnits="userSpaceOnUse" xlink:href="#id77" x1="3007.83" y1="4882.26" x2="3007.83" y2="4118.7">
  </linearGradient>
  <linearGradient id="id87" gradientUnits="userSpaceOnUse" xlink:href="#id81" x1="6976.11" y1="7804.25" x2="6976.11" y2="7237.17">
  </linearGradient>
  <linearGradient id="id88" gradientUnits="userSpaceOnUse" x1="8312.51" y1="11144.5" x2="8312.51" y2="10046.8">
   <stop offset="0" style="stop-opacity:1; stop-color:#F5DBE2"/>
   <stop offset="0.988235" style="stop-opacity:1; stop-color:#F2CFE7"/>
   <stop offset="1" style="stop-opacity:1; stop-color:#F2CFE7"/>
  </linearGradient>
  <linearGradient id="id89" gradientUnits="userSpaceOnUse" x1="7231.24" y1="10274.2" x2="7231.24" y2="6159.42">
   <stop offset="0" style="stop-opacity:1; stop-color:#FFC79E"/>
   <stop offset="1" style="stop-opacity:1; stop-color:#FFBAA2"/>
  </linearGradient>
  <linearGradient id="id90" gradientUnits="userSpaceOnUse" x1="1809.81" y1="7764.83" x2="1809.81" y2="4118.71">
   <stop offset="0" style="stop-opacity:1; stop-color:#FFAE7F"/>
   <stop offset="1" style="stop-opacity:1; stop-color:#FF9D84"/>
  </linearGradient>
  <linearGradient id="id91" gradientUnits="userSpaceOnUse" x1="5796.91" y1="5247.83" x2="5796.91" y2="278.634">
   <stop offset="0" style="stop-opacity:1; stop-color:#D94B81"/>
   <stop offset="0.141176" style="stop-opacity:1; stop-color:#D94B81"/>
   <stop offset="1" style="stop-opacity:1; stop-color:#D7618B"/>
  </linearGradient>
  <linearGradient id="id92" gradientUnits="userSpaceOnUse" xlink:href="#id90" x1="7231.27" y1="10274.3" x2="7231.27" y2="6159.34">
  </linearGradient>
  <linearGradient id="id93" gradientUnits="userSpaceOnUse" x1="2942.46" y1="4882.26" x2="2942.46" y2="4118.7">
   <stop offset="0" style="stop-opacity:1; stop-color:#FFD7C2"/>
   <stop offset="1" style="stop-opacity:1; stop-color:#FFE6C7"/>
  </linearGradient>
  <linearGradient id="id94" gradientUnits="userSpaceOnUse" xlink:href="#id88" x1="7868.96" y1="10046.8" x2="7868.96" y2="3501.46">
  </linearGradient>
  <linearGradient id="id95" gradientUnits="userSpaceOnUse" xlink:href="#id91" x1="5796.91" y1="5247.84" x2="5796.91" y2="278.621">
  </linearGradient>
  <linearGradient id="id96" gradientUnits="userSpaceOnUse" x1="5796.97" y1="5247.4" x2="5796.97" y2="278.654">
   <stop offset="0" style="stop-opacity:1; stop-color:#B29EE1"/>
   <stop offset="0.141176" style="stop-opacity:1; stop-color:#B29EE1"/>
   <stop offset="1" style="stop-opacity:1; stop-color:#AFAAE3"/>
  </linearGradient>
  <linearGradient id="id97" gradientUnits="userSpaceOnUse" xlink:href="#id89" x1="1809.79" y1="7764.79" x2="1809.79" y2="4118.73">
  </linearGradient>
  <linearGradient id="id98" gradientUnits="userSpaceOnUse" x1="8392.37" y1="11176" x2="8392.37" y2="1763.38">
   <stop offset="0" style="stop-opacity:1; stop-color:#FFAC81"/>
   <stop offset="1" style="stop-opacity:1; stop-color:#FF8A73"/>
  </linearGradient>
  <linearGradient id="id99" gradientUnits="userSpaceOnUse" xlink:href="#id91" x1="5796.91" y1="5247.82" x2="5796.91" y2="278.634">
  </linearGradient>
  <linearGradient id="id100" gradientUnits="userSpaceOnUse" xlink:href="#id88" x1="7324.78" y1="9477.82" x2="7324.78" y2="8889.36">
  </linearGradient>
  <linearGradient id="id101" gradientUnits="userSpaceOnUse" x1="1025.62" y1="6581.22" x2="1025.62" y2="4462.58">
   <stop offset="0" style="stop-opacity:1; stop-color:#C64D59"/>
   <stop offset="0.988235" style="stop-opacity:1; stop-color:#C3485A"/>
   <stop offset="1" style="stop-opacity:1; stop-color:#C3485A"/>
  </linearGradient>
  <linearGradient id="id102" gradientUnits="userSpaceOnUse" xlink:href="#id88" x1="3385.98" y1="7294.58" x2="3385.98" y2="882.332">
  </linearGradient>
  <linearGradient id="id103" gradientUnits="userSpaceOnUse" xlink:href="#id91" x1="5796.91" y1="5247.84" x2="5796.91" y2="278.634">
  </linearGradient>
  <linearGradient id="id104" gradientUnits="userSpaceOnUse" x1="2421.52" y1="5393.5" x2="2421.52" y2="4118.81">
   <stop offset="0" style="stop-opacity:1; stop-color:#FFD3B4"/>
   <stop offset="1" style="stop-opacity:1; stop-color:#FFD6B7"/>
  </linearGradient>
  <linearGradient id="id105" gradientUnits="userSpaceOnUse" x1="6978.44" y1="7804.27" x2="6978.44" y2="7237.15">
   <stop offset="0" style="stop-opacity:1; stop-color:#FFC79E"/>
   <stop offset="1" style="stop-opacity:1; stop-color:#FFCBA2"/>
  </linearGradient>
  <linearGradient id="id106" gradientUnits="userSpaceOnUse" x1="4012.99" y1="1687.76" x2="6013.66" y2="1687.76">
   <stop offset="0" style="stop-opacity:1; stop-color:#FFD034"/>
   <stop offset="1" style="stop-opacity:1; stop-color:#FFAE47"/>
  </linearGradient>
  <linearGradient id="id107" gradientUnits="userSpaceOnUse" x1="5055.54" y1="9091.85" x2="5055.54" y2="246.553">
   <stop offset="0" style="stop-opacity:1; stop-color:#4C1B5A"/>
   <stop offset="0.988235" style="stop-opacity:1; stop-color:#210838"/>
   <stop offset="1" style="stop-opacity:1; stop-color:#210838"/>
  </linearGradient>
  <linearGradient id="id108" gradientUnits="userSpaceOnUse" xlink:href="#id105" x1="2421" y1="5393.47" x2="2421" y2="4118.82">
  </linearGradient>
  <linearGradient id="id109" gradientUnits="userSpaceOnUse" xlink:href="#id93" x1="6202.72" y1="7061.22" x2="6202.72" y2="6166.15">
  </linearGradient>
  <linearGradient id="id110" gradientUnits="userSpaceOnUse" xlink:href="#id101" x1="3385.97" y1="7295.04" x2="3385.97" y2="882.023">
  </linearGradient>
  <linearGradient id="id111" gradientUnits="userSpaceOnUse" xlink:href="#id98" x1="2943.71" y1="11176" x2="2943.71" y2="665.665">
  </linearGradient>
  <linearGradient id="id112" gradientUnits="userSpaceOnUse" x1="5023" y1="2703.04" x2="5023" y2="1676.64">
   <stop offset="0" style="stop-opacity:1; stop-color:#DF643A"/>
   <stop offset="1" style="stop-opacity:1; stop-color:#DF812B"/>
  </linearGradient>
  <linearGradient id="id113" gradientUnits="userSpaceOnUse" xlink:href="#id80" x1="3009.75" y1="4882.26" x2="3009.75" y2="4118.7">
  </linearGradient>
  <linearGradient id="id114" gradientUnits="userSpaceOnUse" x1="5064.79" y1="7074.26" x2="5064.79" y2="6088.12">
   <stop offset="0" style="stop-opacity:1; stop-color:#B21D31"/>
   <stop offset="0" style="stop-opacity:1; stop-color:#B21D31"/>
   <stop offset="1" style="stop-opacity:1; stop-color:#CA3F1B"/>
  </linearGradient>
  <linearGradient id="id115" gradientUnits="userSpaceOnUse" x1="5023" y1="2703.04" x2="5023" y2="1676.64">
   <stop offset="0" style="stop-opacity:1; stop-color:#FF8647"/>
   <stop offset="1" style="stop-opacity:1; stop-color:#FFAD34"/>
  </linearGradient>
  <linearGradient id="id116" gradientUnits="userSpaceOnUse" x1="5050.64" y1="1713.42" x2="5050.64" y2="1575.89">
   <stop offset="0" style="stop-opacity:1; stop-color:#5C365B"/>
   <stop offset="0.0117647" style="stop-opacity:1; stop-color:#5C365B"/>
   <stop offset="1" style="stop-opacity:1; stop-color:#603082"/>
  </linearGradient>
  <linearGradient id="id117" gradientUnits="userSpaceOnUse" xlink:href="#id88" x1="2054.71" y1="10507.4" x2="2054.71" y2="7910.14">
  </linearGradient>
  <linearGradient id="id118" gradientUnits="userSpaceOnUse" xlink:href="#id107" x1="5055.51" y1="9091.88" x2="5055.51" y2="246.501">
  </linearGradient>
  <linearGradient id="id119" gradientUnits="userSpaceOnUse" xlink:href="#id76" x1="2306.56" y1="7997.13" x2="2306.56" y2="6183.93">
  </linearGradient>
  <radialGradient id="id120" gradientUnits="userSpaceOnUse" gradientTransform="matrix(0.70984 -0 -0 -0.709843 1470 397)" cx="5064.86" cy="232.001" r="1629.47" fx="5064.86" fy="232.001">
   <stop offset="0" style="stop-opacity:1; stop-color:aqua"/>
   <stop offset="0.988235" style="stop-opacity:1; stop-color:#26C3FF"/>
   <stop offset="1" style="stop-opacity:1; stop-color:#26C3FF"/>
  </radialGradient>
  <radialGradient id="id121" gradientUnits="userSpaceOnUse" gradientTransform="matrix(0.862107 -0 -0 -0.862161 703 7936)" cx="5100.5" cy="4261.74" r="1137.87" fx="5100.5" fy="4261.74">
   <stop offset="0" style="stop-opacity:1; stop-color:#7C65E0"/>
   <stop offset="0.988235" style="stop-opacity:1; stop-color:#954CB8"/>
   <stop offset="1" style="stop-opacity:1; stop-color:#954CB8"/>
  </radialGradient>
  <radialGradient id="id122" gradientUnits="userSpaceOnUse" gradientTransform="matrix(0.829446 -0 -0 -0.829447 862 8543)" cx="5055.51" cy="4669.91" r="2690.92" fx="5055.51" fy="4669.91">
   <stop offset="0" style="stop-opacity:1; stop-color:#00D1FF"/>
   <stop offset="0.988235" style="stop-opacity:1; stop-color:#2681E0"/>
   <stop offset="1" style="stop-opacity:1; stop-color:#2681E0"/>
  </radialGradient>
  <radialGradient id="id123" gradientUnits="userSpaceOnUse" gradientTransform="matrix(18.9004 -0 -0 -18.8984 -90501 92896)" cx="5055.81" cy="4668.5" r="118.104" fx="5055.81" fy="4668.5">
   <stop offset="0" style="stop-opacity:1; stop-color:#0078B2"/>
   <stop offset="0.988235" style="stop-opacity:1; stop-color:#1E4A9C"/>
   <stop offset="1" style="stop-opacity:1; stop-color:#1E4A9C"/>
  </radialGradient>
  <radialGradient id="id124" gradientUnits="userSpaceOnUse" gradientTransform="matrix(0.818688 -0 -0 -0.818706 919 6751)" cx="5069.02" cy="3711.79" r="995.934" fx="5069.02" fy="3711.79">
   <stop offset="0" style="stop-opacity:1; stop-color:#603082"/>
   <stop offset="0.988235" style="stop-opacity:1; stop-color:#2A0E51"/>
   <stop offset="1" style="stop-opacity:1; stop-color:#2A0E51"/>
  </radialGradient>
  <radialGradient id="id125" gradientUnits="userSpaceOnUse" gradientTransform="matrix(1.22896 -0 -0 -1.23225 -1162 9419)" cx="5076.72" cy="4219.29" r="796.171" fx="5076.72" fy="4219.29">
   <stop offset="0" style="stop-opacity:1; stop-color:#7C65E0"/>
   <stop offset="0.988235" style="stop-opacity:1; stop-color:#BD77E3"/>
   <stop offset="1" style="stop-opacity:1; stop-color:#BD77E3"/>
  </radialGradient>
  <radialGradient id="id126" gradientUnits="userSpaceOnUse" gradientTransform="matrix(5.03746 -0 -0 -5.03752 -20532 25740)" cx="5085.29" cy="4263.39" r="194.748" fx="5085.29" fy="4263.39">
   <stop offset="0" style="stop-opacity:1; stop-color:#623A9C"/>
   <stop offset="0.988235" style="stop-opacity:1; stop-color:#762C80"/>
   <stop offset="1" style="stop-opacity:1; stop-color:#762C80"/>
  </radialGradient>
  <radialGradient id="id127" gradientUnits="userSpaceOnUse" gradientTransform="matrix(15.3125 -0 -0 -22.0691 -66130 98313)" cx="4620.45" cy="4261.65" r="44.4508" fx="4620.45" fy="4261.65">
   <stop offset="0" style="stop-opacity:1; stop-color:#B28DE8"/>
   <stop offset="0.988235" style="stop-opacity:1; stop-color:#C377CB"/>
   <stop offset="1" style="stop-opacity:1; stop-color:#C377CB"/>
  </radialGradient>
  <radialGradient id="id128" gradientUnits="userSpaceOnUse" gradientTransform="matrix(4.94824 -0 -0 -1.07111 16457 13415)" cx="-4168.3" cy="6477" r="1857.56" fx="-4168.3" fy="6477">
   <stop offset="0" style="stop-opacity:1; stop-color:white"/>
   <stop offset="1" style="stop-opacity:1; stop-color:white"/>
  </radialGradient>
  <radialGradient id="id129" gradientUnits="userSpaceOnUse" gradientTransform="matrix(25.3949 -0 -0 -25.3952 -123335 123267)" xlink:href="#id123" cx="5055.76" cy="4670.05" r="87.8895" fx="5055.76" fy="4670.05">
  </radialGradient>
 </defs>
 <g id="Layer_x0020_1">
  <metadata id="CorelCorpID_0Corel-Layer"/>
  <g id="_708485984">
   <path class="fil0" d="M3021 9441c10,-111 17,-202 21,-268 14,2 27,4 39,5 72,7 886,16 1758,20 -577,90 -1185,171 -1818,243zm4880 -3557l-277 -848c12,-238 24,-478 35,-716 69,18 137,35 204,53 48,409 121,1112 98,1438l-17 22 -43 51zm-6028 -1417l-162 0c0,0 0,-12 1,-34 4,-94 17,-374 58,-691 14,-105 38,-228 67,-350 153,14 305,28 456,43 -13,32 -26,63 -38,94 -203,491 -377,924 -382,938z"/>
   <path class="fil1" d="M9919 11176l-1586 0c-1,-12 -2,-24 -3,-35 1,1 1,2 1,3l611 -1097c-138,46 -265,75 -380,94 113,-187 249,-555 249,-989 0,-46 -2,-92 -5,-138 -45,-681 -363,-987 -363,-987 0,0 -72,46 -168,46 -19,0 -39,-2 -60,-6l0 -1c0,0 336,-192 523,-595 0,0 -96,111 -223,233 -59,-129 -193,-429 -290,-671 0,0 -1,-1 -1,-1 -36,-99 -67,-196 -87,-280 -91,-378 37,-868 37,-868 187,-174 637,-294 637,-294 -231,0 -368,0 -368,0 -3,-690 -440,-1702 -440,-1702l111 -230c0,0 -131,126 -208,126 -3,0 -5,0 -8,0 -25,-3 -111,-55 -207,-118 28,-586 54,-1142 76,-1621 219,574 605,1291 653,1460 57,199 86,374 86,374 20,169 104,452 199,741 140,426 306,864 337,970 51,178 184,1212 252,1778 24,198 69,448 123,712 100,496 227,1044 286,1399 50,304 144,1077 216,1697l0 0zm-1586 0l0 0zm-107 -720c-1,-4 -2,-6 -2,-6 0,0 -343,-34 -489,-77l-7 -2 7 2c146,43 490,77 490,77 0,0 0,2 1,6zm-525 -101c-11,0 -17,-2 -18,-2l0 0c-270,-168 -490,-569 -600,-866l0 0 0 0 0 0c220,285 493,426 693,495 19,35 39,61 57,76 39,31 84,59 131,84 -116,192 -222,213 -263,213zm200 -4471l-277 -848 0 0 277 848 0 0zm43 -51l17 -22c23,-326 -50,-1029 -98,-1438 -21,-184 -38,-309 -38,-312 0,0 0,0 0,0 0,0 170,1274 136,1750l-17 22zm-156 -1787l-1 -1 -1 0 -1 -1 -2 0 -1 -1 -1 0 -1 -1 -1 -1 0 0 -1 0 -1 -1 -1 -1 -1 0 -2 -1 -1 -1 0 0 -1 -1 0 0 -1 0 0 0 -1 -1 0 0 -2 -1 0 0 -1 -1 0 0 -1 -1 0 0 -1 0 0 0 -2 -1 0 0 -1 -1 0 0 -1 -1 0 0 -2 -1 0 0 -1 -1 0 0 -1 -1 0 0 -2 -1 0 0 -1 -1 0 0 -1 -1 0 0 -3 -2 0 0 -1 -1 0 0 -2 -1 0 0 -1 -1 0 0 -2 -1 0 0 -1 -1 0 0 -2 -1 0 0 -1 -1 0 0 -1 -1 -1 0 -1 -2 0 0 -1 -1 0 0 -2 -1 0 0 -1 -1 0 0 -2 -1 0 0 -2 -2 0 0 -1 -1 0 0 -2 -1 0 0 -1 -2 0 0 -2 -1 0 0 -1 -1 0 0 -2 -2 0 0 -1 -1 0 0 -2 -1 0 0 -2 -2 0 0 -1 -1 0 0 -2 -2 0 0 -2 -1 0 0 -1 -2 0 0 -2 -1 -2 -2 -1 -1 0 0 -2 -2 -2 -2 2 2 2 2 0 0 1 1 2 2 2 1 0 0 1 2 0 0 2 1 0 0 2 2 0 0 1 1 0 0 2 2 0 0 2 1 0 0 1 1 0 0 2 2 0 0 1 1 0 0 2 1 0 0 1 2 0 0 2 1 0 0 1 1 0 0 2 2 0 0 2 1 0 0 1 1 0 0 2 1 0 0 1 1 0 0 1 2 1 0 1 1 0 0 1 1 0 0 2 1 0 0 1 1 0 0 2 1 0 0 1 1 0 0 2 1 0 0 1 1 0 0 3 2 0 0 1 1 0 0 1 1 0 0 2 1 0 0 1 1 0 0 1 1 0 0 2 1 0 0 1 1 0 0 1 1 0 0 2 1 0 0 1 0 0 0 1 1 0 0 1 1 0 0 2 1 0 0 1 1 0 0 1 0 0 0 1 1 0 0 1 1 2 1 1 0 1 1 1 1 1 0 0 0 1 1 1 1 1 0 1 1 2 0 1 1 1 0 1 1z"/>
   <path class="fil2" d="M7083 9487c-9,-10 -16,-21 -24,-32l12 1c4,10 8,20 12,31 0,0 0,0 0,0zm-24 -32c0,0 0,0 0,0 -37,-50 -65,-143 -85,-270 13,-1 25,-2 35,-3 0,24 1,46 4,66 10,53 28,120 54,196l-8 11zm766 -5394c-2,0 -15,-3 -37,-15 23,13 37,15 37,15 0,0 0,0 0,0zm-126 -82c-7,-7 -15,-14 -22,-23l0 0c7,9 15,16 22,23z"/>
   <g style="clip-path:url(#id0)">
    <image x="7881" y="5820" width="78.8522" height="78.8514" xlink:href="onling shoping background10_Images\onling shoping background10_ImgID1.png"/>
   </g>
   <g style="clip-path:url(#id1)">
    <image x="6991" y="3646" width="1839" height="6356" xlink:href="onling shoping background10_Images\onling shoping background10_ImgID2.png"/>
   </g>
   <g style="clip-path:url(#id2)">
    <image x="8209" y="7018" width="321" height="707" xlink:href="onling shoping background10_Images\onling shoping background10_ImgID3.png"/>
   </g>
   <g style="clip-path:url(#id3)">
    <image x="7479" y="6511" width="1051" height="1550" xlink:href="onling shoping background10_Images\onling shoping background10_ImgID4.png"/>
   </g>
   <path class="fil3" d="M2791 11176l-1935 0c139,-449 304,-1016 436,-1566 51,-212 97,-421 135,-620l0 -1 0 1c30,-3 59,-4 88,-4 791,0 1210,960 1387,1521 -30,217 -67,444 -111,669l0 0zm-1935 0l0 0zm2046 -669l0 0zm19 -138l2 -15 2 -14 2 -15 0 0c37,-283 64,-543 83,-753l0 0 1 -11 0 0 1 -11 0 0 1 -11 1 -11 -1 11 -1 11 0 0 -1 11 0 0 -1 11 0 0c-19,210 -46,470 -83,753l0 0 -2 15 -2 14 -2 15zm-1527 -2132c-42,0 -80,-2 -114,-6 -324,-37 -858,-312 -875,-321l2 3c-172,-243 -323,-511 -407,-784 0,0 -19,-256 229,-534 4,-4 8,-9 12,-13 -8,11 -74,104 -124,223 -84,135 -125,275 -58,389 0,0 21,26 59,60 114,217 373,465 589,504 24,5 48,7 73,7 380,0 844,-486 982,-742 51,-95 69,-204 70,-306l81 -226c52,30 118,71 189,122 20,16 42,32 65,49 125,98 259,227 362,384 17,411 34,779 48,1076 -172,10 -361,33 -545,55 -238,30 -467,60 -638,60zm-1148 -1670c3,-12 9,-33 17,-61 19,-67 48,-174 81,-305 66,-261 147,-620 193,-953 85,-622 67,-706 102,-851 34,-145 187,-433 289,-693 32,-82 78,-222 127,-378 105,-339 223,-757 243,-844 30,-128 881,-1787 957,-1813 7,-2 14,-3 23,-3 0,4 0,8 0,11 0,0 23,613 57,1505 -77,132 -223,357 -349,405 0,0 -201,-19 -394,-92 0,0 17,618 -120,1274 -67,322 -402,697 -402,697l0 0c-94,-13 -198,-33 -312,-61 0,0 32,24 104,58 -56,531 -421,1474 -616,2104zm17 -61l0 0zm1535 -75l0 0 0 0 0 0 0 0zm0 0l0 -1 0 1zm0 -1c-10,-43 -19,-69 -19,-69 0,0 0,-18 1,-48l18 117zm75 -1963l-162 0c0,0 0,-8 1,-25l0 0 0 -1 0 0 0 -1 0 0 0 -1 0 0 0 -1 0 0 0 -1 0 0 0 -1 0 0 0 -1 0 0 0 -1 0 0 0 -1 0 1 0 0 0 1 0 0 0 1 0 0 0 1 0 0 0 1 0 0 0 1 0 0 0 1 0 0 0 1 0 0 0 1 0 0c-1,16 -1,25 -1,25l162 0c0,0 0,0 0,0zm382 -938l0 -1 1 -2 0 -1 0 0 1 -2 1 -1 0 -2 0 0 1 -1 0 -2 1 -1 0 0 1 -1 0 -2 1 -1 0 -1 0 -1 1 -1 1 -2 0 0 0 -1 1 -2 0 -1 1 -1 0 -1 1 -1 0 -2 1 -1 0 0 0 -1 1 -2 0 -1 1 0 0 -2 1 -1 0 -2 0 0 1 -1 1 -2 0 -1 0 0 1 -2 0 -1 1 -2 0 0 1 -1 0 -1 1 -2 0 0 0 -1 1 -2 1 -1 0 -1 0 -1 1 -1 0 -2 1 0 0 -1 1 -2 0 -1 1 -1 0 -1 0 -1 1 -2 0 0 1 -1 0 -1 1 -2 0 -1 1 0 0 -2 1 -1 0 -1 0 -1 1 -1 1 -2 0 -1 0 0 1 -2 0 0 2 -6 3 -6 0 0 1 -3 1 -1 1 -5 1 0 1 -3 0 -1 1 -2 1 -3 0 0 2 -3 2 -6 0 -1 2 -3 0 -1 1 -2 1 -2 0 -1 1 -3 1 -1 1 -2 1 -2 0 -1 1 -3 1 -1 1 -2 2 -7 0 0 1 -3 1 -2 1 -1 1 -3 0 0 2 -5 1 -1 1 -3 0 0 1 -3 1 -2 0 -1 2 -3 0 -1 1 -3 1 -1 0 -2 2 -3 0 0 1 -3 0 -1 1 -2 1 -3 0 0 2 -4 1 -2 1 -3 0 0 2 -4 0 -1 1 -2 3 -7 1 -2 4 -9 1 -3 0 0 5 -13 0 0 1 -3 3 -6 0 -1 12 -27 0 0 -12 27 0 1 -3 6 -1 3 0 0 -5 13 0 0 -1 3 -4 9 -1 2 -3 7 -1 2 0 1 -2 4 0 0 -1 3 -1 2 -2 4 0 0 -1 3 -1 2 0 1 -1 3 0 0 -2 3 0 2 -1 1 -1 3 0 1 -2 3 0 1 -1 2 -1 3 0 0 -1 3 -1 1 -2 5 0 0 -1 3 -1 1 -1 2 -1 3 0 0 -2 7 -1 2 -1 1 -1 3 0 1 -1 2 -1 2 -1 1 -1 3 0 1 -1 2 -1 2 0 1 -2 3 0 1 -2 6 -2 3 0 0 -1 3 -1 2 0 1 -1 3 -1 0 -1 5 -1 1 -1 3 0 0 -5 12 0 0 -1 2 0 0 0 1 -1 2 -1 1 0 1 0 1 -1 1 0 2 -1 0 0 1 -1 2 0 1 -1 1 0 0 -1 2 0 1 0 1 -1 1 0 1 -1 2 0 1 -1 0 0 2 -1 1 0 1 0 1 -1 1 -1 2 0 1 0 0 -1 2 0 1 -1 1 0 0 -1 2 0 1 -1 2 0 0 0 1 -1 2 -1 1 0 0 0 2 -1 1 0 2 -1 0 0 1 -1 2 0 1 0 0 -1 1 0 2 -1 1 0 1 -1 1 0 1 -1 2 0 1 0 0 -1 2 -1 1 0 1 0 1 -1 1 0 2 -1 1 0 0 -1 1 0 2 -1 1 0 0 0 2 -1 1 -1 2 0 0 0 1 -1 2 0 1zm-333 -476l3 -8 0 0 2 -9 0 0 2 -9 0 0 1 -1 9 -32 0 0c44,-157 78,-268 78,-268 0,0 0,0 0,0 0,2 -35,112 -78,268l0 0 -9 32 -1 1 0 0 -2 9 0 0 -2 9 0 0 -3 8zm97 -328l2 -1 0 0c45,-28 87,-70 127,-124l0 0 2 -3 0 0 2 -3 0 0 2 -2 2 -3 -2 3 -2 2 0 0 -2 3 0 0 -2 3 0 0c-40,54 -82,97 -127,124l0 0 -2 1zm201 -237l0 0 0 0 0 0 0 0 0 0 0 0 0 -1 0 0 0 0 0 0 0 0 0 0 1 0 0 0 0 0 0 0 0 -1 0 0 0 0 0 0 0 0 0 0 0 0 0 0 0 0 0 0 0 -1 0 0 0 0 0 0 0 0 1 0 0 0 0 0 0 0 0 0 0 0 0 -1 0 0 0 0 0 0 0 0 0 0 0 0 0 -1 0 0 1 0 0 0 0 0 0 0 0 0 0 0 0 -1 0 0 0 0 0 0 0 0 0 0 0 0 2 -3 0 0 1 -3 1 0c25,-47 50,-98 73,-152l1 -2 0 -2 6 -14 1 -1 4 -10 0 -1 1 -2 1 -1 1 -3 0 -1 1 -3 0 0 2 -3 0 -1 1 -3 0 0 2 -4 -2 4 0 0 -1 3 0 1 -2 3 0 0 -1 3 0 1 -1 3 -1 1 -1 2 0 1 -4 10 -1 1 -6 14 0 2 -1 2c-23,54 -48,105 -73,152l-1 0 -1 3 0 0 -2 3 0 0 0 0 0 0 0 0 0 0 0 0 0 0 0 1 0 0 0 0 0 0 0 0 0 0 -1 0 0 0 0 1 0 0 0 0 0 0 0 0 0 0 0 0 0 1 0 0 0 0 0 0 0 0 0 0 -1 0 0 0 0 0 0 0 0 0 0 1 0 0 0 0 0 0 0 0 0 0 0 0 0 0 0 0 0 0 0 1 0 0 0 0 0 0 -1 0 0 0 0 0 0 0 0 0 0 0 0 1 0 0 0 0 0 0 0 0 0 0 0 0z"/>
   <path class="fil4" d="M7825 4061c0,0 176,-300 289,-403 0,0 -312,154 -431,312 0,0 79,68 142,91z"/>
   <polygon class="fil5" points="7059,9455 7059,9455 7059,9455 "/>
   <g style="clip-path:url(#id4)">
    <image x="7045" y="9427" width="43.7204" height="47.6231" xlink:href="onling shoping background10_Images\onling shoping background10_ImgID5.png"/>
   </g>
   <g style="clip-path:url(#id5)">
    <image x="7045" y="8880" width="567" height="614" xlink:href="onling shoping background10_Images\onling shoping background10_ImgID6.png"/>
   </g>
   <path class="fil6" d="M2902 10507c0,0 0,0 0,0 7,-46 13,-92 19,-138 -6,46 -12,92 -19,138zm112 -979c3,-30 5,-59 7,-87l0 0c-2,28 -4,57 -7,87z"/>
   <g style="clip-path:url(#id6)">
    <image x="394" y="7897" width="1047" height="1109" xlink:href="onling shoping background10_Images\onling shoping background10_ImgID7.png"/>
   </g>
   <g style="clip-path:url(#id7)">
    <image x="3009" y="9154" width="51.5274" height="305.256" xlink:href="onling shoping background10_Images\onling shoping background10_ImgID8.png"/>
   </g>
   <g style="clip-path:url(#id8)">
    <image x="386" y="7897" width="2675" height="2628" xlink:href="onling shoping background10_Images\onling shoping background10_ImgID9.png"/>
   </g>
   <g style="clip-path:url(#id9)">
    <image x="2033" y="8630" width="586" height="114" xlink:href="onling shoping background10_Images\onling shoping background10_ImgID10.png"/>
   </g>
   <path class="fil4" d="M758 4405c0,0 476,351 1951,304l-720 -208 -116 -34 -162 0c0,0 -329,90 -953,-62z"/>
   <g style="clip-path:url(#id10)">
    <image x="1791" y="4664" width="212" height="118" xlink:href="onling shoping background10_Images\onling shoping background10_ImgID11.png"/>
   </g>
   <g style="clip-path:url(#id11)">
    <image x="1858" y="3513" width="415" height="969" xlink:href="onling shoping background10_Images\onling shoping background10_ImgID12.png"/>
   </g>
   <g style="clip-path:url(#id12)">
    <image x="1858" y="3224" width="582" height="1379" xlink:href="onling shoping background10_Images\onling shoping background10_ImgID13.png"/>
   </g>
   <path class="fil7" d="M1837 3392l0 0c27,-118 57,-236 85,-339 -28,103 -58,221 -85,339zm180 -666l0 0c1,0 1,0 2,-1 -1,1 -1,1 -2,1zm139 -137c22,-31 43,-64 64,-101 -21,37 -42,70 -64,101zm165 -316c5,-13 11,-27 16,-41 0,0 0,0 0,0 -5,14 -11,28 -16,41z"/>
   <g style="clip-path:url(#id13)">
    <image x="1698" y="3372" width="153" height="1074" xlink:href="onling shoping background10_Images\onling shoping background10_ImgID14.png"/>
   </g>
   <g style="clip-path:url(#id14)">
    <image x="1050" y="2166" width="1308" height="2343" xlink:href="onling shoping background10_Images\onling shoping background10_ImgID15.png"/>
   </g>
   <path class="fil8" d="M1983 4699c-60,-5 -118,-9 -173,-15l0 -91c-103,-38 -299,-60 -483,-74 -122,-15 -238,-30 -325,-40l68 -13c142,21 261,28 356,28 188,0 285,-27 285,-27l162 0 116 34 290 84c-103,40 -202,78 -296,114zm-173 -106l0 0zm63 -126l0 0z"/>
   <g style="clip-path:url(#id15)">
    <image x="226" y="6550" width="32.0098" height="51.5267" xlink:href="onling shoping background10_Images\onling shoping background10_ImgID16.png"/>
   </g>
   <g style="clip-path:url(#id16)">
    <image x="226" y="4450" width="1590" height="2152" xlink:href="onling shoping background10_Images\onling shoping background10_ImgID17.png"/>
   </g>
   <path class="fil9" d="M1801 4683c-414,-41 -685,-118 -846,-181 81,2 223,7 372,17 179,24 368,51 483,74l-9 90zm-871 -191c-25,-10 -48,-20 -68,-29 0,0 0,0 0,0 0,0 55,6 140,16l-72 13z"/>
   <g style="clip-path:url(#id17)">
    <image x="874" y="4477" width="949" height="313" xlink:href="onling shoping background10_Images\onling shoping background10_ImgID18.png"/>
   </g>
   <g style="clip-path:url(#id18)">
    <image x="909" y="4462" width="914" height="235" xlink:href="onling shoping background10_Images\onling shoping background10_ImgID19.png"/>
   </g>
   <path class="fil10" d="M2529 7046c-103,-157 -237,-286 -362,-384 93,68 212,146 355,225 2,54 5,107 7,159zm-427 -433c-71,-51 -137,-92 -189,-122l11 -31c0,0 60,62 178,153z"/>
   <g style="clip-path:url(#id19)">
    <image x="1764" y="5426" width="770" height="1445" xlink:href="onling shoping background10_Images\onling shoping background10_ImgID20.png"/>
   </g>
   <g style="clip-path:url(#id20)">
    <image x="2080" y="6597" width="98.3699" height="78.8514" xlink:href="onling shoping background10_Images\onling shoping background10_ImgID21.png"/>
   </g>
   <g style="clip-path:url(#id21)">
    <image x="1791" y="5808" width="32.0098" height="32.0088" xlink:href="onling shoping background10_Images\onling shoping background10_ImgID22.png"/>
   </g>
   <g style="clip-path:url(#id22)">
    <image x="1764" y="6175" width="770" height="723" xlink:href="onling shoping background10_Images\onling shoping background10_ImgID23.png"/>
   </g>
   <path class="fil11" d="M7742 1354c0,0 72,141 88,204 15,63 -21,1210 -58,1278 -37,68 -104,131 -104,131l74 -1613z"/>
   <path class="fil12" d="M7667 3289c0,0 68,142 68,189 0,47 -16,430 -43,483 -27,53 -61,100 -61,100l36 -772z"/>
   <path class="fil13" d="M2322 464c9,-27 115,-302 351,-364 293,-76 1662,-100 2852,-100 959,0 1802,15 1872,31 158,35 346,180 411,388 -40,-98 -131,-212 -304,-256 -62,-16 -699,-23 -1494,-23 -1380,0 -3236,21 -3386,54 -131,29 -244,138 -302,270z"/>
   <path class="fil14" d="M5638 9200c-259,0 -532,-1 -799,-2 -872,-4 -1686,-13 -1758,-20 -12,-1 -25,-3 -39,-5 0,0 0,0 0,0 -157,-26 -377,-127 -418,-270 -4,-12 -9,-75 -16,-180 -1,-22 -3,-47 -4,-73 -8,-132 -17,-311 -27,-528 -14,-297 -31,-665 -48,-1076 -2,-52 -5,-105 -7,-159 0,-11 -1,-21 -1,-32 -18,-419 -37,-878 -56,-1349l12 304c0,0 40,-10 104,-35 64,1593 123,2964 141,3027 43,151 289,254 441,268 91,9 1395,22 2450,22 693,0 1278,-6 1343,-22 140,-33 286,-136 347,-272 75,16 121,21 121,21 -32,178 -214,318 -385,359 -6,2 -16,3 -30,4 -10,1 -22,2 -35,3 -188,11 -721,15 -1336,15zm1786 -381l3 -24c-2,12 -2,20 -3,24zm72 -1231c-39,-30 -72,-56 -99,-76 116,-2242 331,-6818 325,-6895 -8,-100 -104,-292 -317,-348 -60,-16 -670,-22 -1431,-22 -1325,0 -3107,20 -3252,53 -191,43 -341,264 -333,472 0,0 67,1810 141,3712 -34,14 -68,28 -104,43 -17,-441 -34,-878 -50,-1290l0 0c-14,-358 -27,-697 -39,-1005 0,0 0,0 0,0 -1,-17 -1,-34 -2,-50 -34,-892 -57,-1505 -57,-1505 0,-3 0,-7 0,-11 -1,-69 15,-138 44,-202 58,-132 171,-241 302,-270 150,-33 2006,-54 3386,-54 795,0 1432,7 1494,23 173,44 264,158 304,256 15,37 23,72 25,100 2,28 -25,643 -66,1526 -22,479 -48,1035 -76,1621 -5,96 -10,193 -14,290l0 0c-6,121 -12,242 -18,364 -11,238 -23,478 -35,716l0 0c-25,516 -50,1024 -74,1492 -19,386 -38,746 -54,1060z"/>
   <path class="fil15" d="M5613 9092c-1055,0 -2359,-13 -2450,-22 -152,-14 -398,-117 -441,-268 -18,-63 -77,-1434 -141,-3027 25,-9 54,-21 85,-35 19,436 37,845 54,1210l-48 -46 93 1893c121,236 412,251 412,251l1762 15 -310 -295c171,0 359,0 566,0l0 0c1501,0 1748,-12 1788,-17 33,-4 61,-9 86,-16 92,30 173,50 234,63 -61,136 -207,239 -347,272 -65,16 -650,22 -1343,22zm1784 -1580c-35,-28 -59,-46 -65,-51l0 0 0 -1c-1,0 -1,0 -1,0l0 0c-7,-7 -16,-16 -26,-25 35,-616 78,-1425 122,-2265l56 78 218 -4600c0,0 -36,-272 -317,-348 -61,-16 -543,-21 -1130,-21 -1021,0 -2362,16 -2362,16l269 370c-906,3 -1324,15 -1473,46 -116,25 -222,170 -217,300 42,1042 92,2274 140,3439 -26,11 -53,23 -81,34 -74,-1902 -141,-3712 -141,-3712 -8,-208 142,-429 333,-472 145,-33 1927,-53 3252,-53 761,0 1371,6 1431,22 213,56 309,248 317,348 6,77 -209,4653 -325,6895z"/>
   <g style="clip-path:url(#id23)">
    <image x="2447" y="648" width="4997" height="8136" xlink:href="onling shoping background10_Images\onling shoping background10_ImgID24.png"/>
   </g>
   <path class="fil16" d="M5261 501c0,16 -13,28 -28,28 -15,0 -28,-12 -28,-28 0,-15 13,-27 28,-27 15,0 28,12 28,27z"/>
   <g style="clip-path:url(#id24)">
    <image x="4087" y="6971" width="1691" height="239" xlink:href="onling shoping background10_Images\onling shoping background10_ImgID25.png"/>
   </g>
   <path class="fil17" d="M5733 7074l-1352 0c-105,0 -202,-33 -282,-88 -128,-90 -211,-237 -211,-405 0,-272 220,-493 493,-493l1368 0c94,0 183,27 258,73 -8,-1 -17,-2 -25,-2 -114,0 -321,80 -330,365 -1,27 1,57 6,90l0 0c0,0 13,190 75,460z"/>
   <path class="fil18" d="M4874 6530c0,-29 -19,-46 -56,-46l-50 0 0 92 50 0c37,0 56,-17 56,-46zm63 0c0,60 -45,96 -116,96l-53 0 0 74 -62 0 0 -266 115 0c71,0 116,37 116,96z"/>
   <path class="fil18" d="M5122 6596l-42 -102 -42 102 84 0zm20 47l-124 0 -23 57 -63 0 118 -266 61 0 119 266 -65 0 -23 -57z"/>
   <polygon class="fil18" points="5368,6606 5368,6700 5307,6700 5307,6605 5204,6434 5269,6434 5340,6552 5411,6434 5472,6434 "/>
   <g style="clip-path:url(#id25)">
    <image x="2654" y="6886" width="2300" height="2198" xlink:href="onling shoping background10_Images\onling shoping background10_ImgID26.png"/>
   </g>
   <g style="clip-path:url(#id26)">
    <image x="2701" y="6932" width="1941" height="1851" xlink:href="onling shoping background10_Images\onling shoping background10_ImgID27.png"/>
   </g>
   <g style="clip-path:url(#id27)">
    <image x="3517" y="5547" width="3178" height="126" xlink:href="onling shoping background10_Images\onling shoping background10_ImgID28.png"/>
   </g>
   <path class="fil19" d="M3147 3181l0 -9c-7,-139 103,-256 243,-256l2406 5 31 43 -2437 -5c-128,0 -232,99 -243,222z"/>
   <path class="fil20" d="M6708 5564l-3206 0c-130,0 -236,-101 -243,-230l-1 -21c241,-279 288,-612 297,-729 5,-28 5,-45 5,-45 0,0 0,0 0,0l1 -1c1,-2 4,-12 8,-26 11,-33 25,-89 12,-150l2051 -12 0 -280 -2268 27 0 49c-28,-10 -59,-19 -93,-27 0,0 -28,14 -74,38l-12 -215 3326 -35 106 146 -617 17 0 292 832 -5 0 -7 146 201 -27 782c-6,130 -113,231 -243,231zm-3437 -1445l0 0zm-108 -595l-16 -309c-1,-11 0,-23 0,-34 11,-123 115,-222 243,-222l2437 5 383 527 -3047 33z"/>
   <polygon class="fil21" points="3184,3942 3158,3524 3163,3524 6210,3491 6511,3907 3185,3942 "/>
   <g style="clip-path:url(#id28)">
    <image x="3345" y="4056" width="2300" height="325" xlink:href="onling shoping background10_Images\onling shoping background10_ImgID29.png"/>
   </g>
   <g style="clip-path:url(#id29)">
    <image x="5988" y="4036" width="856" height="344" xlink:href="onling shoping background10_Images\onling shoping background10_ImgID30.png"/>
   </g>
   <polygon class="fil22" points="6136,4815 6786,4793 6767,5091 6136,5070 "/>
   <path class="fil23" d="M6416 4936c0,154 -125,279 -280,279 -154,0 -279,-125 -279,-279 0,-155 125,-280 279,-280 155,0 280,125 280,280z"/>
   <g style="clip-path:url(#id30)">
    <image x="3739" y="2642" width="1945" height="126" xlink:href="onling shoping background10_Images\onling shoping background10_ImgID31.png"/>
   </g>
   <polygon class="fil24" points="4248,2703 4242,2662 4116,1743 4116,1743 4125,1806 5037,1874 5159,2042 5147,2625 5200,2625 5233,2144 5540,2568 5533,2625 5582,2625 5631,2694 "/>
   <polygon class="fil25" points="5037,1874 4125,1806 4116,1743 4943,1743 "/>
   <polygon class="fil26" points="4276,1743 4411,2625 4456,2625 4370,1743 "/>
   <polygon class="fil26" points="4696,1743 4783,2625 4835,2625 4792,1743 "/>
   <polygon class="fil26" points="5165,1743 5147,2625 5200,2625 5260,1743 "/>
   <polygon class="fil26" points="5640,1743 5533,2625 5586,2625 5718,1743 "/>
   <polygon class="fil27" points="4943,1743 4116,1743 4053,1743 4013,1632 4867,1640 4903,1689 4905,1713 4921,1713 "/>
   <polygon class="fil28" points="4921,1713 4905,1713 4903,1689 "/>
   <polygon class="fil26" points="6014,1650 6225,1678 6210,1766 6004,1743 "/>
   <polygon class="fil26" points="5786,2692 5999,2692 6151,1743 5932,1743 "/>
   <g style="clip-path:url(#id31)">
    <image x="3880" y="261" width="3838" height="4997" xlink:href="onling shoping background10_Images\onling shoping background10_ImgID32.png"/>
   </g>
   <g style="clip-path:url(#id32)">
    <image x="4141" y="648" width="3518" height="4537" xlink:href="onling shoping background10_Images\onling shoping background10_ImgID33.png"/>
   </g>
   <g style="clip-path:url(#id33)">
    <image x="5031" y="300" width="313" height="313" xlink:href="onling shoping background10_Images\onling shoping background10_ImgID34.png"/>
   </g>
   <g style="clip-path:url(#id34)">
    <image x="5098" y="367" width="184" height="180" xlink:href="onling shoping background10_Images\onling shoping background10_ImgID35.png"/>
   </g>
   <path class="fil29" d="M5233 529c-6,0 -12,-2 -17,-6 -7,-5 -11,-13 -11,-22 0,-15 13,-27 28,-27 9,0 17,4 22,10 4,5 6,11 6,17 0,16 -13,28 -28,28z"/>
   <g style="clip-path:url(#id35)">
    <image x="5781" y="2904" width="1269" height="305" xlink:href="onling shoping background10_Images\onling shoping background10_ImgID36.png"/>
   </g>
   <g style="clip-path:url(#id36)">
    <image x="5183" y="1405" width="219" height="258" xlink:href="onling shoping background10_Images\onling shoping background10_ImgID37.png"/>
   </g>
   <g style="clip-path:url(#id37)">
    <image x="5812" y="2951" width="1230" height="1617" xlink:href="onling shoping background10_Images\onling shoping background10_ImgID38.png"/>
   </g>
   <g style="clip-path:url(#id38)">
    <image x="6194" y="3466" width="840" height="454" xlink:href="onling shoping background10_Images\onling shoping background10_ImgID39.png"/>
   </g>
   <g style="clip-path:url(#id39)">
    <image x="6597" y="4028" width="247" height="340" xlink:href="onling shoping background10_Images\onling shoping background10_ImgID40.png"/>
   </g>
   <g style="clip-path:url(#id40)">
    <image x="5613" y="2642" width="801" height="118" xlink:href="onling shoping background10_Images\onling shoping background10_ImgID41.png"/>
   </g>
   <g style="clip-path:url(#id41)">
    <image x="5191" y="1585" width="285.74" height="78.8522" xlink:href="onling shoping background10_Images\onling shoping background10_ImgID42.png"/>
   </g>
   <g style="clip-path:url(#id42)">
    <image x="5250" y="870" width="610" height="793" xlink:href="onling shoping background10_Images\onling shoping background10_ImgID43.png"/>
   </g>
   <g style="clip-path:url(#id43)">
    <image x="4969" y="870" width="875" height="727" xlink:href="onling shoping background10_Images\onling shoping background10_ImgID44.png"/>
   </g>
   <g style="clip-path:url(#id44)">
    <image x="5566" y="1901" width="352" height="813" xlink:href="onling shoping background10_Images\onling shoping background10_ImgID45.png"/>
   </g>
   <g style="clip-path:url(#id45)">
    <image x="5679" y="1725" width="266" height="227" xlink:href="onling shoping background10_Images\onling shoping background10_ImgID46.png"/>
   </g>
   <g style="clip-path:url(#id46)">
    <image x="5219" y="1873" width="418" height="707" xlink:href="onling shoping background10_Images\onling shoping background10_ImgID47.png"/>
   </g>
   <g style="clip-path:url(#id47)">
    <image x="5238" y="1725" width="418" height="208" xlink:href="onling shoping background10_Images\onling shoping background10_ImgID48.png"/>
   </g>
   <g style="clip-path:url(#id48)">
    <image x="5023" y="1854" width="153" height="204" xlink:href="onling shoping background10_Images\onling shoping background10_ImgID49.png"/>
   </g>
   <g style="clip-path:url(#id49)">
    <image x="4930" y="1725" width="247" height="173" xlink:href="onling shoping background10_Images\onling shoping background10_ImgID50.png"/>
   </g>
   <polygon class="fil30" points="5233,2144 5159,2042 5162,1883 5165,1743 5260,1743 5250,1890 "/>
   <polygon class="fil31" points="5586,2625 5582,2625 5540,2568 5619,1918 5640,1743 5718,1743 5691,1923 "/>
   <g style="clip-path:url(#id50)">
    <image x="4856" y="1620" width="1176" height="137" xlink:href="onling shoping background10_Images\onling shoping background10_ImgID51.png"/>
   </g>
   <g style="clip-path:url(#id51)">
    <image x="4883" y="1557" width="340" height="173" xlink:href="onling shoping background10_Images\onling shoping background10_ImgID52.png"/>
   </g>
   <polygon class="fil32" points="6210,1766 6148,1759 6151,1743 6004,1743 6014,1650 6225,1678 "/>
   <polygon class="fil33" points="5786,2692 5786,2692 5902,1939 5932,1743 6004,1743 6014,1743 6151,1743 6148,1759 6003,2663 5999,2692 "/>
   <g style="clip-path:url(#id52)">
    <image x="2447" y="5426" width="32.0098" height="98.3691" xlink:href="onling shoping background10_Images\onling shoping background10_ImgID53.png"/>
   </g>
   <path class="fil34" d="M2477 5810l-12 -304c-1,-23 -2,-45 -3,-68 36,-8 71,-17 104,-26 5,122 10,243 15,363 -64,25 -104,35 -104,35z"/>
   <path class="fil35" d="M2581 5775c-5,-120 -10,-241 -15,-363 30,-8 58,-15 85,-23 5,119 10,236 15,351 -31,14 -60,26 -85,35z"/>
   <g style="clip-path:url(#id53)">
    <image x="2634" y="5070" width="641" height="688" xlink:href="onling shoping background10_Images\onling shoping background10_ImgID54.png"/>
   </g>
   <path class="fil36" d="M3258 5313l-12 -225c92,-83 181,-193 245,-337 40,-68 57,-128 64,-167 -9,117 -56,450 -297,729z"/>
   <path class="fil37" d="M117 6805c50,-119 116,-212 124,-223 0,0 0,-1 0,-1l0 0c0,0 1,0 1,0 329,-182 839,-1106 873,-1214 32,-100 87,-283 150,-354l15 -15c0,0 0,0 0,0 0,2 71,154 203,273 -5,6 -9,14 -10,23 -88,-86 -164,-187 -193,-296l-15 15c-63,71 -118,254 -150,354 -34,108 -544,1032 -874,1214 0,0 -71,98 -124,224l0 0zm1743 -1228c0,0 -163,-86 -318,-219 12,-3 22,-10 30,-20 36,23 77,43 120,55 0,0 815,-137 1251,-264 320,-93 474,-250 548,-378 -64,144 -153,254 -245,337 -87,79 -176,135 -250,175 -66,36 -190,82 -345,126 -27,8 -55,15 -85,23 -33,9 -68,18 -104,26l0 0c-142,34 -296,64 -448,84l-154 55 0 0zm-580 -579c14,-12 45,-28 90,-49 -34,17 -64,33 -90,49z"/>
   <path class="fil38" d="M1692 5393c-43,-12 -84,-32 -120,-55 7,-9 12,-21 12,-34 0,-31 -26,-56 -56,-56 -19,0 -35,9 -45,23 -132,-119 -203,-271 -203,-273 0,0 0,0 0,0 0,0 0,0 0,0 26,-16 56,-32 90,-49 107,-54 252,-112 422,-177 6,-3 12,-5 18,-7 55,-22 113,-44 173,-66 94,-36 193,-74 296,-114 47,-18 94,-37 142,-56 2,-1 3,-2 5,-2 36,-15 70,-29 104,-43 28,-11 55,-23 81,-34 97,-42 183,-81 259,-118 -36,20 -72,41 -108,61 -7,4 -14,8 -21,12 -104,60 -195,116 -243,155l-4 0c-4,4 -8,7 -11,10 -34,31 -50,65 -49,100 -1,62 50,124 139,165 45,21 101,37 165,44 19,2 38,3 58,3 246,0 551,-158 761,-341l3 -2 0 0c0,0 0,0 0,0 0,0 0,17 -5,45 -7,39 -24,99 -64,167 -74,128 -228,285 -548,378 -436,127 -1251,264 -1251,264zm1865 -852l0 0z"/>
   <path class="fil39" d="M2796 4882c-20,0 -39,-1 -58,-3 -64,-7 -120,-23 -165,-44 -89,-41 -140,-103 -139,-165 1,61 51,122 139,162l165 44c0,0 136,-193 66,-272 -38,-44 -117,-54 -180,-54 -51,0 -91,6 -91,6l-35 4c48,-39 139,-95 243,-155 7,-4 14,-8 21,-12 36,-20 72,-41 108,-61 25,-13 49,-27 73,-40 99,-54 192,-103 254,-135 39,-20 66,-34 72,-37l1 -1 0 0 0 0 0 0 1 0 0 0 0 0 0 0 0 0c34,8 65,17 93,27 24,10 46,20 65,31 -41,-23 -93,-43 -158,-58l0 0 0 0 0 0 0 0 0 0 -1 0 0 0 0 0 0 0 -1 1 -116 60c0,0 302,12 362,395l42 -34c0,0 6,-11 12,-29 -4,14 -7,24 -8,26l-1 1 0 0 -3 2c-210,183 -515,341 -761,341z"/>
   <path class="fil40" d="M3569 4512c9,-32 19,-89 6,-150l6 0c13,61 -1,117 -12,150z"/>
   <g style="clip-path:url(#id54)">
    <image x="3411" y="4161" width="184" height="219" xlink:href="onling shoping background10_Images\onling shoping background10_ImgID55.png"/>
   </g>
   <path class="fil41" d="M3515 4575c-60,-383 -362,-395 -362,-395l118 -61c65,15 117,35 158,58 93,52 132,121 146,185 13,61 3,118 -6,150 -6,18 -12,29 -12,29l-42 34zm42 -34l0 0z"/>
   <path class="fil42" d="M2804 4405c0,0 315,-195 490,-242 0,0 -292,196 -490,242z"/>
   <path class="fil43" d="M2434 4670c-1,-35 15,-69 49,-100 3,-3 7,-6 11,-10l4 0c-1,1 -3,2 -4,3 -4,3 -8,7 -11,10 -33,30 -49,63 -49,97z"/>
   <path class="fil44" d="M2738 4876l-165 -44c-88,-40 -138,-101 -139,-162 0,-34 16,-67 49,-97 3,-3 7,-7 11,-10 1,-1 3,-2 4,-3l35 -4c0,0 40,-6 91,-6 63,0 142,10 180,54 70,79 -66,272 -66,272z"/>
   <path class="fil45" d="M3557 4541c-227,198 -565,366 -819,338 -255,-28 -380,-193 -255,-306 41,-38 142,-101 258,-168 -121,74 -250,167 -243,222 13,102 105,249 445,207 320,-40 583,-268 614,-293z"/>
   <g style="clip-path:url(#id55)">
    <image x="105" y="4985" width="1777" height="2796" xlink:href="onling shoping background10_Images\onling shoping background10_ImgID56.png"/>
   </g>
   <path class="fil46" d="M2106 5509l-199 11c0,0 -141,7 -298,-108 0,0 98,235 230,235l267 -138z"/>
   <g style="clip-path:url(#id56)">
    <image x="-28" y="6792" width="165" height="481" xlink:href="onling shoping background10_Images\onling shoping background10_ImgID57.png"/>
   </g>
   <g style="clip-path:url(#id57)">
    <image x="39" y="6269" width="1121" height="1176" xlink:href="onling shoping background10_Images\onling shoping background10_ImgID58.png"/>
   </g>
   <path class="fil47" d="M1542 5358c-24,-20 -47,-42 -69,-64 1,-9 5,-17 10,-23 27,24 56,47 89,67 -8,10 -18,17 -30,20z"/>
   <path class="fil48" d="M1572 5338c-33,-20 -62,-43 -89,-67 10,-14 26,-23 45,-23 30,0 56,25 56,56 0,13 -5,25 -12,34z"/>
   <g style="clip-path:url(#id58)">
    <image x="1456" y="5273" width="106.177" height="98.3691" xlink:href="onling shoping background10_Images\onling shoping background10_ImgID59.png"/>
   </g>
   <path class="fil4" d="M1472 2410c166,158 321,254 545,316l101 -89c0,0 -375,-49 -646,-227z"/>
   <path class="fil4" d="M8215 8066c0,0 336,-192 523,-595 0,0 -411,477 -659,533l136 62z"/>
   <path class="fil4" d="M7573 6063c0,0 922,-398 1238,-473l-314 0c0,0 -260,226 -536,221l-382 148 -6 104z"/>
   <g style="clip-path:url(#id59)">
    <image x="7412" y="8751" width="32.0098" height="59.3337" xlink:href="onling shoping background10_Images\onling shoping background10_ImgID60.png"/>
   </g>
   <path class="fil49" d="M7424 8819c0,0 -46,-5 -121,-21 11,-25 20,-51 25,-78 2,-15 7,-84 14,-197 20,28 34,49 40,62 9,19 25,86 47,181 -1,11 -2,21 -2,29l-3 24 0 0z"/>
   <path class="fil50" d="M7303 8798c-61,-13 -142,-33 -234,-63 128,-37 154,-114 170,-196 2,-12 5,-60 10,-137 37,46 69,88 93,121 -7,113 -12,182 -14,197 -5,27 -14,53 -25,78z"/>
   <g style="clip-path:url(#id60)">
    <image x="5746" y="7120" width="1519" height="1636" xlink:href="onling shoping background10_Images\onling shoping background10_ImgID61.png"/>
   </g>
   <g style="clip-path:url(#id61)">
    <image x="5718" y="7053" width="161" height="137" xlink:href="onling shoping background10_Images\onling shoping background10_ImgID62.png"/>
   </g>
   <path class="fil51" d="M5749 7074l-16 0c-62,-270 -75,-460 -75,-460 9,54 25,115 47,179l0 1c30,87 71,181 119,275 -25,3 -50,5 -75,5zm-91 -460l0 0z"/>
   <path class="fil52" d="M6866 7940l0 0 0 0 0 0 0 0 -2 -1c0,0 0,0 -1,0l3 1 0 0 0 0 0 0 0 0zm-2 -1l0 0zm-17 -82c-59,0 -120,-5 -178,-14 -109,-61 -242,-146 -338,-240 -190,-188 -626,-809 -626,-809l0 -1c-22,-64 -38,-125 -47,-179 -5,-33 -7,-63 -6,-90l0 0c9,-285 216,-365 330,-365 8,0 17,1 25,2 9,1 18,3 25,5 0,0 -1,0 -1,0 -21,0 -300,7 -379,358l0 1c3,9 21,66 62,139 54,99 151,229 307,313 112,61 212,84 297,84 9,0 18,0 27,-1 142,-8 237,-82 267,-142 7,-13 10,-27 10,-43 0,-14 -3,-30 -8,-45 -23,-80 -95,-166 -113,-186 164,179 328,359 418,440 182,164 317,285 386,351 10,9 19,18 26,25 -43,-41 -248,-223 -364,-223 -2,0 -5,0 -7,0 -114,8 -270,179 -338,302 -19,34 120,238 330,264 8,1 16,1 24,1 25,0 50,-4 74,-12 3,6 7,12 12,17 -39,22 -81,38 -127,44 -29,3 -58,4 -88,4zm-815 -1691c47,16 255,243 464,472l-25 -25 -364 -370 0 0 -75 -77zm-318 498l0 0zm631 396l0 0zm986 400l0 0zm-181 280c0,-1 0,-1 -1,-2 5,-3 9,-7 13,-10 -3,4 -8,8 -12,12z"/>
   <path class="fil53" d="M6318 7061c-85,0 -185,-23 -297,-84 -156,-84 -253,-214 -307,-313 0,0 9,-398 393,-421l-75 -77c0,0 -1,0 -1,0 -21,0 -300,7 -379,358l0 0c79,-351 358,-358 379,-358 0,0 1,0 1,0l75 77 0 0 364 370 25 25 2 2c0,0 1,1 3,4 18,20 90,106 113,186 5,15 8,31 8,45 0,-14 -3,-30 -8,-45 -16,-24 -59,-78 -121,-78 -24,0 -52,8 -81,30 -127,90 -67,278 -67,278 -9,1 -18,1 -27,1zm-604 -397c-41,-73 -59,-130 -62,-139l0 -1c0,0 17,60 62,140z"/>
   <path class="fil54" d="M5714 6664l0 0c-45,-80 -62,-140 -62,-140 79,-351 358,-358 379,-358 0,0 1,0 1,0l75 77c-384,23 -393,421 -393,421zm-62 -140l0 0z"/>
   <path class="fil55" d="M6345 7060c0,0 -60,-188 67,-278 29,-22 57,-30 81,-30 62,0 105,54 121,78 5,15 8,31 8,45 0,16 -3,30 -10,43 -30,60 -125,134 -267,142l0 0z"/>
   <path class="fil45" d="M6612 6918c-30,60 -125,134 -267,142 -90,6 -199,-15 -324,-83 -156,-84 -253,-214 -307,-313 -41,-73 -59,-130 -62,-139 10,22 149,335 425,447 287,116 509,-43 514,-134 3,-62 -71,-165 -120,-225l27 27c0,0 90,99 116,190 10,32 11,62 -2,88z"/>
   <path class="fil42" d="M6137 6415c0,0 122,173 210,199 0,0 -74,-149 -210,-199z"/>
   <g style="clip-path:url(#id62)">
    <image x="8068" y="7990" width="98.3699" height="71.044" xlink:href="onling shoping background10_Images\onling shoping background10_ImgID63.png"/>
   </g>
   <g style="clip-path:url(#id63)">
    <image x="7479" y="7569" width="688" height="493" xlink:href="onling shoping background10_Images\onling shoping background10_ImgID64.png"/>
   </g>
   <g style="clip-path:url(#id64)">
    <image x="7385" y="7495" width="126" height="106" xlink:href="onling shoping background10_Images\onling shoping background10_ImgID65.png"/>
   </g>
   <g style="clip-path:url(#id65)">
    <image x="7319" y="7448" width="98.3699" height="78.8514" xlink:href="onling shoping background10_Images\onling shoping background10_ImgID66.png"/>
   </g>
   <path class="fil56" d="M8093 8011l-14 -6c0,0 0,-1 0,-1 1,0 2,0 2,0 5,2 8,5 12,7z"/>
   <g style="clip-path:url(#id66)">
    <image x="6655" y="7448" width="2175" height="2729" xlink:href="onling shoping background10_Images\onling shoping background10_ImgID67.png"/>
   </g>
   <g style="clip-path:url(#id67)">
    <image x="6327" y="7748" width="481" height="192" xlink:href="onling shoping background10_Images\onling shoping background10_ImgID68.png"/>
   </g>
   <path class="fil57" d="M6976 7804c-8,0 -16,0 -24,-1 -210,-26 -349,-230 -330,-264 68,-123 224,-294 338,-302 2,0 5,0 7,0 116,0 321,182 364,223 0,0 0,0 1,0 27,28 -53,175 -170,268 -4,3 -8,7 -13,10 -10,-16 -27,-26 -48,-26 -31,0 -56,25 -56,57 0,8 2,16 5,23 -24,8 -49,12 -74,12zm355 -344l0 0zm1 0l0 0z"/>
   <path class="fil58" d="M7062 7809c-5,-5 -9,-11 -12,-17 34,-12 68,-31 99,-54 1,1 1,1 1,2 -26,26 -56,50 -88,69z"/>
   <g style="clip-path:url(#id68)">
    <image x="7045" y="7721" width="126" height="126" xlink:href="onling shoping background10_Images\onling shoping background10_ImgID69.png"/>
   </g>
   <path class="fil59" d="M7050 7792c-3,-7 -5,-15 -5,-23 0,-32 25,-57 56,-57 21,0 38,10 48,26 -31,23 -65,42 -99,54z"/>
   <g style="clip-path:url(#id69)">
    <image x="6776" y="7908" width="106.177" height="51.5267" xlink:href="onling shoping background10_Images\onling shoping background10_ImgID70.png"/>
   </g>
   <g style="clip-path:url(#id70)">
    <image x="5687" y="6772" width="1000" height="1082" xlink:href="onling shoping background10_Images\onling shoping background10_ImgID71.png"/>
   </g>
   <g style="clip-path:url(#id71)">
    <image x="6327" y="7748" width="555" height="212" xlink:href="onling shoping background10_Images\onling shoping background10_ImgID72.png"/>
   </g>
   <path class="fil60" d="M8043 8771c0,0 225,174 364,191 139,17 485,-94 499,-307 15,-212 -488,-474 -722,-445 -234,28 -246,488 -141,561z"/>
   <polygon class="fil4" points="7382,8585 7841,8924 7452,8867 "/>
   <path class="fil61" d="M8330 11141c-63,-482 -97,-651 -104,-685 12,42 75,284 104,685zm-602 -770c-20,-6 -35,-12 -45,-18 0,0 0,0 0,0 10,6 25,12 45,18z"/>
   <g style="clip-path:url(#id72)">
    <image x="7666" y="10032" width="1297" height="1129" xlink:href="onling shoping background10_Images\onling shoping background10_ImgID73.png"/>
   </g>
   <g style="clip-path:url(#id73)">
    <image x="7947" y="10129" width="629" height="161" xlink:href="onling shoping background10_Images\onling shoping background10_ImgID74.png"/>
   </g>
   <path class="fil4" d="M8225 10450c0,0 371,-304 717,-403 0,0 -630,133 -850,388l133 15z"/>
  </g>
 </g>
</svg>
