<?xml version="1.0" encoding="UTF-8"?>
<!DOCTYPE svg PUBLIC "-//W3C//DTD SVG 1.1//EN" "http://www.w3.org/Graphics/SVG/1.1/DTD/svg11.dtd">
<!-- Creator: CorelDRAW X8 -->
<svg xmlns="http://www.w3.org/2000/svg" xml:space="preserve" width="3.81281in" height="7.14746in" version="1.1" style="shape-rendering:geometricPrecision; text-rendering:geometricPrecision; image-rendering:optimizeQuality; fill-rule:evenodd; clip-rule:evenodd"
viewBox="0 0 1375 2578"
 xmlns:xlink="http://www.w3.org/1999/xlink">
 <defs>
  <style type="text/css">
   <![CDATA[
    .fil1 {fill:none}
    .fil0 {fill:#BDBFC1}
   ]]>
  </style>
   <clipPath id="id0">
    <path d="M354 2545l73 -12 0 42c0,0 12,6 19,0l0 -46 198 -34 0 -99 239 -37c0,0 71,-26 90,-90l0 -690c0,0 58,-3 95,-64 0,0 5,55 66,59 61,4 93,-56 93,-56 0,0 12,45 65,48 52,3 83,-66 83,-66l0 -90 -407 -241 0 -959c0,0 -16,-95 -120,-112l-628 -98c0,0 -127,-11 -191,80 0,0 -28,53 -29,68 0,15 0,2108 0,2108 0,0 -6,115 92,171 0,0 54,30 75,31l0 13 187 74z"/>
   </clipPath>
    <clipPath id="id1">
     <path d="M354 2545l73 -12 0 42c0,0 12,6 19,0l0 -46 198 -34 0 -99 239 -37c0,0 71,-26 90,-90l0 -690c0,0 58,-3 95,-64 0,0 5,55 66,59 61,4 93,-56 93,-56 0,0 12,45 65,48 52,3 83,-66 83,-66l0 -90 -407 -241 0 -959c0,0 -16,-95 -120,-112l-628 -98c0,0 -127,-11 -191,80 0,0 -28,53 -29,68 0,15 0,2108 0,2108 0,0 -6,115 92,171 0,0 54,30 75,31l0 13 187 74z"/>
    </clipPath>
    <clipPath id="id2">
     <path d="M354 2545l73 -12 0 42c0,0 12,6 19,0l0 -46 198 -34 0 -99 239 -37c0,0 71,-26 90,-90l0 -690c0,0 58,-3 95,-64 0,0 5,55 66,59 61,4 93,-56 93,-56 0,0 12,45 65,48 52,3 83,-66 83,-66l0 -90 -407 -241 0 -959c0,0 -16,-95 -120,-112l-628 -98c0,0 -127,-11 -191,80 0,0 -28,53 -29,68 0,15 0,2108 0,2108 0,0 -6,115 92,171 0,0 54,30 75,31l0 13 187 74z"/>
    </clipPath>
 </defs>
 <g id="Layer_x0020_1">
  <metadata id="CorelCorpID_0Corel-Layer"/>
  <path class="fil0" d="M354 2545l73 -12 0 42c0,0 12,6 19,0l0 -46 198 -34 0 -99 239 -37c0,0 71,-26 90,-90l0 -690c0,0 58,-3 95,-64 0,0 5,55 66,59 61,4 93,-56 93,-56 0,0 12,45 65,48 52,3 83,-66 83,-66l0 -90 -407 -241 0 -959c0,0 -16,-95 -120,-112l-628 -98c0,0 -127,-11 -191,80 0,0 -28,53 -29,68 0,15 0,2108 0,2108 0,0 -6,115 92,171 0,0 54,30 75,31l0 13 187 74z"/>
  <g style="clip-path:url(#id0)">
   <g id="_708481088">
   </g>
   <g style="clip-path:url(#id1)">
    <image x="-600" y="-186" width="2949" height="2949" xlink:href="onling shoping background7_Images\onling shoping background7_ImgID1.png"/>
   </g>
   <g style="clip-path:url(#id2)">
   </g>
  </g>
  <path class="fil1" d="M354 2545l73 -12 0 42c0,0 12,6 19,0l0 -46 198 -34 0 -99 239 -37c0,0 71,-26 90,-90l0 -690c0,0 58,-3 95,-64 0,0 5,55 66,59 61,4 93,-56 93,-56 0,0 12,45 65,48 52,3 83,-66 83,-66l0 -90 -407 -241 0 -959c0,0 -16,-95 -120,-112l-628 -98c0,0 -127,-11 -191,80 0,0 -28,53 -29,68 0,15 0,2108 0,2108 0,0 -6,115 92,171 0,0 54,30 75,31l0 13 187 74z"/>
 </g>
</svg>
