<?xml version="1.0" encoding="UTF-8"?>
<!DOCTYPE svg PUBLIC "-//W3C//DTD SVG 1.1//EN" "http://www.w3.org/Graphics/SVG/1.1/DTD/svg11.dtd">
<!-- Creator: CorelDRAW X8 -->
<svg xmlns="http://www.w3.org/2000/svg" xml:space="preserve" width="10.1459in" height="8.2722in" version="1.1" style="shape-rendering:geometricPrecision; text-rendering:geometricPrecision; image-rendering:optimizeQuality; fill-rule:evenodd; clip-rule:evenodd"
viewBox="0 0 11971 9760"
 xmlns:xlink="http://www.w3.org/1999/xlink">
 <defs>
  <style type="text/css">
   <![CDATA[
    .fil2 {fill:#FEFEFE;fill-rule:nonzero}
    .fil15 {fill:#FFD27A;fill-rule:nonzero}
    .fil12 {fill:#FEC249;fill-rule:nonzero}
    .fil23 {fill:#FAB488;fill-rule:nonzero}
    .fil22 {fill:#F9A632;fill-rule:nonzero}
    .fil21 {fill:#F79D77;fill-rule:nonzero}
    .fil9 {fill:#F2715B;fill-rule:nonzero}
    .fil8 {fill:#F7F2EB;fill-rule:nonzero}
    .fil5 {fill:#E8635B;fill-rule:nonzero}
    .fil10 {fill:#EFE7D7;fill-rule:nonzero}
    .fil11 {fill:#E7D9BB;fill-rule:nonzero}
    .fil25 {fill:#9B614E;fill-rule:nonzero}
    .fil24 {fill:#8B5642;fill-rule:nonzero}
    .fil6 {fill:#3EBCA1;fill-rule:nonzero}
    .fil1 {fill:#4A4C5A;fill-rule:nonzero}
    .fil7 {fill:#21B294;fill-rule:nonzero}
    .fil14 {fill:#4684AA;fill-rule:nonzero}
    .fil20 {fill:#229A7E;fill-rule:nonzero}
    .fil13 {fill:#256C9B;fill-rule:nonzero}
    .fil62 {fill:#284F5E;fill-rule:nonzero}
    .fil32 {fill:#1ABC9C;fill-rule:nonzero}
    .fil52 {fill:#2FAC66;fill-rule:nonzero}
    .fil33 {fill:#30D8B8;fill-rule:nonzero}
    .fil35 {fill:#34495E;fill-rule:nonzero}
    .fil59 {fill:#34B67A;fill-rule:nonzero}
    .fil26 {fill:#4DBFD9;fill-rule:nonzero}
    .fil42 {fill:#4ECDC4;fill-rule:nonzero}
    .fil40 {fill:#556270;fill-rule:nonzero}
    .fil57 {fill:#64B044;fill-rule:nonzero}
    .fil60 {fill:#7BD0A9;fill-rule:nonzero}
    .fil58 {fill:#8DC375;fill-rule:nonzero}
    .fil56 {fill:#BADBAC;fill-rule:nonzero}
    .fil29 {fill:#CFF6FF;fill-rule:nonzero}
    .fil53 {fill:#DC4437;fill-rule:nonzero}
    .fil47 {fill:#E57368;fill-rule:nonzero}
    .fil50 {fill:#E97F02;fill-rule:nonzero}
    .fil48 {fill:#E9E9E9;fill-rule:nonzero}
    .fil39 {fill:#ED9C98;fill-rule:nonzero}
    .fil28 {fill:#F15723;fill-rule:nonzero}
    .fil30 {fill:#F5815A;fill-rule:nonzero}
    .fil36 {fill:#F8CA00;fill-rule:nonzero}
    .fil43 {fill:#F9B39A;fill-rule:nonzero}
    .fil49 {fill:#FBD099;fill-rule:nonzero}
    .fil54 {fill:#FC5249;fill-rule:nonzero}
    .fil31 {fill:#FCF6A8;fill-rule:nonzero}
    .fil34 {fill:#FECEA8;fill-rule:nonzero}
    .fil55 {fill:#FF6D69;fill-rule:nonzero}
    .fil44 {fill:#FF847C;fill-rule:nonzero}
    .fil38 {fill:#FF9900;fill-rule:nonzero}
    .fil45 {fill:#FFB5B3;fill-rule:nonzero}
    .fil41 {fill:#FFBDBB;fill-rule:nonzero}
    .fil46 {fill:#FFD2D2;fill-rule:nonzero}
    .fil37 {fill:#FFDD4D;fill-rule:nonzero}
    .fil51 {fill:#FFDFBD;fill-rule:nonzero}
    .fil61 {fill:#FFE2C2;fill-rule:nonzero}
    .fil27 {fill:white;fill-rule:nonzero}
    .fil0 {fill:url(#id8)}
    .fil18 {fill:url(#id9)}
    .fil16 {fill:url(#id10)}
    .fil3 {fill:url(#id11)}
    .fil4 {fill:url(#id12)}
    .fil17 {fill:url(#id13)}
    .fil19 {fill:url(#id14)}
   ]]>
  </style>
    <clipPath id="id0" style="clip-rule:nonzero">
     <path d="M4569 5471l0 -708c0,-14 -6,-27 -16,-36l376 -342c108,-9 194,-89 213,-193l7 -6c11,73 56,135 118,170l240 369 -631 0c-28,0 -50,22 -50,50l0 618 -257 78z"/>
    </clipPath>
    <clipPath id="id1" style="clip-rule:nonzero">
     <path d="M4929 4385l213 -193c-19,104 -106,184 -213,193l0 0z"/>
    </clipPath>
    <clipPath id="id2" style="clip-rule:nonzero">
     <path d="M5267 4356c-62,-35 -107,-97 -118,-170l4 -5 114 175 0 0z"/>
    </clipPath>
    <clipPath id="id3" style="clip-rule:nonzero">
     <path d="M4826 5393l0 -618c0,-28 22,-50 50,-50l631 0 190 292 -871 376 0 0z"/>
    </clipPath>
    <clipPath id="id4" style="clip-rule:nonzero">
     <path d="M4551 5476l-136 -275 0 -11 0 0 0 -80c0,0 0,-1 0,-1l-46 0 -73 -148 257 -234c10,9 16,22 16,36l0 708 -18 5 0 0z"/>
    </clipPath>
    <clipPath id="id5" style="clip-rule:nonzero">
     <path d="M4415 5201l-4 -7c1,-1 3,-3 4,-4l0 11 0 0z"/>
    </clipPath>
    <clipPath id="id6" style="clip-rule:nonzero">
     <path d="M4411 5194l-23 -47c17,-19 26,-35 27,-37l0 80 0 0c-1,1 -3,3 -4,4l0 0z"/>
    </clipPath>
    <clipPath id="id7" style="clip-rule:nonzero">
     <path d="M4388 5147l-19 -38 46 0c0,0 0,0 0,1 -1,2 -10,18 -27,37l0 0z"/>
    </clipPath>
  <linearGradient id="id8" gradientUnits="userSpaceOnUse" x1="6367.59" y1="2906.15" x2="6367.59" y2="11593.3">
   <stop offset="0" style="stop-opacity:1; stop-color:#F58C5B"/>
   <stop offset="1" style="stop-opacity:1; stop-color:#E8655B"/>
  </linearGradient>
  <linearGradient id="id9" gradientUnits="userSpaceOnUse" x1="6367.51" y1="2906.15" x2="6367.51" y2="11593.3">
   <stop offset="0" style="stop-opacity:1; stop-color:#FBC5AA"/>
   <stop offset="1" style="stop-opacity:1; stop-color:#F2AFAB"/>
  </linearGradient>
  <linearGradient id="id10" gradientUnits="userSpaceOnUse" xlink:href="#id9" x1="6367.51" y1="2906.15" x2="6367.51" y2="11593.3">
  </linearGradient>
  <linearGradient id="id11" gradientUnits="userSpaceOnUse" x1="6364.57" y1="2906.15" x2="6364.57" y2="11593.3">
   <stop offset="0" style="stop-opacity:1; stop-color:#FAB997"/>
   <stop offset="1" style="stop-opacity:1; stop-color:#F09E9A"/>
  </linearGradient>
  <linearGradient id="id12" gradientUnits="userSpaceOnUse" xlink:href="#id11" x1="6370.57" y1="2906.14" x2="6370.57" y2="11593.3">
  </linearGradient>
  <linearGradient id="id13" gradientUnits="userSpaceOnUse" xlink:href="#id9" x1="6367.63" y1="2906.16" x2="6367.63" y2="11593.3">
  </linearGradient>
  <linearGradient id="id14" gradientUnits="userSpaceOnUse" xlink:href="#id9" x1="6367.63" y1="2906.16" x2="6367.63" y2="11593.3">
  </linearGradient>
 </defs>
 <g id="Layer_x0020_1">
  <metadata id="CorelCorpID_0Corel-Layer"/>
  <g id="_675620224">
   <path class="fil0" d="M11971 9760l-8080 0c0,-45 3,-89 9,-133l3378 0c250,0 452,-203 452,-452l0 -6364c0,-250 -202,-453 -452,-453l-3791 0c-174,0 -325,98 -401,242 -145,-17 -288,-45 -425,-84 60,-42 117,-90 170,-144 147,-146 251,-319 312,-503l-608 608c-47,-17 -94,-34 -139,-53l803 -803c8,-67 11,-134 10,-201l-947 946c-43,-21 -85,-42 -127,-65l1056 -1056c-9,-52 -21,-104 -36,-156l-1142 1142c-39,-24 -78,-49 -116,-76l1207 -1206c-19,-43 -41,-86 -65,-128l-1253 1253c-36,-27 -71,-56 -106,-86l1284 -1284c-27,-36 -55,-71 -86,-106l-1299 1299c-33,-31 -65,-63 -96,-95l1299 -1299c-34,-31 -69,-60 -106,-86l-1284 1284c-29,-35 -58,-70 -86,-106l1254 -1254c-42,-23 -85,-45 -128,-64l-1207 1207c-26,-38 -51,-77 -75,-116l1141 -1142c-51,-15 -103,-27 -156,-36l-1056 1056c-22,-42 -44,-84 -64,-127l946 -947c-12,0 -24,0 -35,0 -56,0 -112,3 -166,10l-804 803c-19,-46 -36,-92 -52,-139l608 -608c-184,61 -357,165 -504,311 -53,54 -101,111 -144,171 -65,-228 -100,-470 -100,-720l0 0 11207 0 0 9760zm-3589 -2678c-1,54 2,108 8,161l892 892c44,6 88,8 133,8 9,0 19,0 28,0l-1061 -1061zm43 -263c-12,41 -21,82 -28,124l1185 1186c42,-7 83,-17 124,-29l-1281 -1281zm10 621c49,147 131,285 248,402 117,117 255,200 402,249l-650 -651zm82 -835c-19,33 -36,67 -51,102l1352 1352c35,-15 69,-32 102,-51l-1403 -1403zm129 -178c-25,27 -47,56 -68,85l1435 1436c30,-21 58,-44 85,-69l-1452 -1452zm161 -145c-29,22 -57,44 -85,69l1453 1452c24,-27 47,-56 68,-85l-1436 -1436zm195 -111c-34,15 -69,32 -102,51l1403 1403c19,-33 36,-67 51,-102l-1352 -1352zm236 -70c-42,8 -83,17 -124,29l1281 1281c12,-41 22,-82 29,-124l-1186 -1186zm2127 851c-61,0 -110,50 -110,111 0,61 49,110 110,110 61,0 111,-49 111,-110 0,-61 -50,-111 -111,-111zm-1959 -865c-10,0 -19,0 -29,0l1061 1061c1,-54 -1,-108 -8,-161l-892 -892c-44,-5 -88,-8 -132,-8zm980 703l0 0c-49,-147 -132,-285 -249,-402 -117,-117 -254,-200 -401,-248l650 650zm978 -565c-61,0 -111,50 -111,111 0,61 50,110 111,110 61,0 110,-49 110,-110 0,-61 -49,-111 -110,-111zm1 -727c-61,0 -110,50 -110,111 0,61 49,110 110,110 61,0 111,-49 111,-110 0,-61 -50,-111 -111,-111zm-1 -726c-61,0 -111,49 -111,110 0,61 50,111 111,111 61,0 110,-50 110,-111 0,-61 -49,-110 -110,-110z"/>
   <path class="fil1" d="M10976 3363c0,276 -224,500 -500,500 -276,0 -499,-224 -499,-500 0,-276 223,-500 499,-500 276,0 500,224 500,500z"/>
   <path class="fil2" d="M10335 3162c-33,0 -59,27 -59,60 0,32 26,59 59,59 33,0 59,-27 59,-59 0,-33 -26,-60 -59,-60zm0 190c-72,0 -130,-59 -130,-130 0,-72 58,-130 130,-130 72,0 130,58 130,130 0,71 -58,130 -130,130z"/>
   <path class="fil2" d="M10274 3601c-10,0 -19,-3 -26,-10 -13,-14 -13,-36 0,-50l406 -406c14,-14 36,-14 50,0 14,14 14,37 0,50l-405 406c-7,7 -16,10 -25,10z"/>
   <path class="fil2" d="M10618 3445c-33,0 -60,27 -60,59 0,33 27,60 60,60 32,0 59,-27 59,-60 0,-32 -27,-59 -59,-59zm0 190c-72,0 -131,-59 -131,-131 0,-71 59,-130 131,-130 71,0 130,59 130,130 0,72 -59,131 -130,131z"/>
   <path class="fil2" d="M9172 3764c-14,56 -32,110 -53,163l55 22c22,-55 40,-112 55,-171l-57 -14zm-126 319c-28,50 -59,99 -92,145l47 35c35,-49 67,-99 96,-152l-51 -28zm-202 278c-39,41 -81,81 -125,117l37 46c46,-38 90,-80 131,-123l-43 -40zm-264 219c-49,30 -99,58 -151,83l25 53c55,-26 107,-55 157,-87l-31 -49zm-311 146c-54,18 -109,32 -166,43l11 58c59,-12 117,-27 174,-45l-19 -56zm-337 64c-29,2 -58,3 -87,3 -29,0 -57,-1 -85,-2l-3 58c29,2 58,3 88,3 30,0 61,-1 91,-3l-4 -59zm-342 -21c-57,-10 -113,-25 -167,-42l-18 56c56,18 114,33 174,44l11 -58zm-327 -105c-52,-25 -103,-52 -151,-83l-31 50c50,32 103,60 157,86l25 -53zm-290 -184c-44,-37 -86,-76 -126,-118l-42 41c41,43 84,84 131,122l37 -45zm-235 -250c-34,-46 -65,-95 -93,-145l-51 29c29,52 61,103 96,151l48 -35zm-166 -300c-22,-53 -39,-108 -54,-164l-57 15c15,58 34,115 56,171l55 -22zm-86 -332c-7,-57 -11,-114 -11,-172l-59 0c0,61 4,120 11,179l59 -7zm-1 -344c7,-57 18,-114 32,-169l-57 -14c-15,57 -26,116 -33,176l58 7zm85 -332c21,-54 45,-106 73,-156l-52 -28c-29,52 -54,106 -76,162l55 22zm164 -302c34,-46 71,-90 110,-132l-43 -40c-41,43 -79,89 -114,138l47 34zm235 -250c44,-37 90,-71 139,-102l-32 -49c-50,32 -99,67 -145,105l38 46zm289 -185c52,-25 105,-46 160,-64l-19 -56c-57,19 -112,41 -166,67l25 53zm326 -107c56,-11 113,-18 171,-22l-4 -59c-61,4 -120,12 -178,23l11 58zm343 -23c58,4 115,11 170,21l11 -57c-58,-11 -117,-19 -178,-22l-3 58zm337 63c55,18 108,39 160,63l25 -53c-54,-25 -110,-47 -167,-66l-18 56zm311 146c49,30 95,64 140,100l37 -45c-46,-38 -95,-73 -145,-105l-32 50zm265 218c40,41 76,86 110,132l48 -35c-36,-48 -74,-94 -115,-138l-43 41zm203 277c28,49 53,101 74,155l55 -22c-23,-56 -48,-110 -77,-162l-52 29zm128 318c14,55 25,111 33,169l58 -8c-8,-60 -19,-118 -34,-176l-57 15zm44 340l0 6c0,58 -4,116 -11,172l59 7c7,-59 11,-118 11,-179l0 -6 -59 0z"/>
   <path class="fil2" d="M1914 2750c-11,0 -23,0 -35,-1l383 -383c44,21 88,40 134,58l-316 316c-55,6 -110,10 -166,10zm-210 -18c-52,-9 -104,-21 -155,-37l464 -464c40,24 81,48 122,70l-431 431zm624 -48l207 -207c41,14 83,27 126,39 -104,73 -216,129 -333,168zm-920 -40c-43,-19 -86,-40 -128,-64l506 -506c36,28 73,55 111,81l-489 489zm-244 -139c-37,-27 -72,-55 -106,-86l521 -522c33,32 67,62 101,91l-516 517zm-202 -182c-31,-34 -59,-69 -86,-106l516 -516c30,34 60,68 91,101l-521 521zm-162 -223c-23,-41 -45,-84 -64,-128l489 -488c26,37 53,74 81,111l-506 505zm-115 -268c-15,-51 -27,-103 -36,-156l430 -430c23,41 46,82 71,122l-465 464zm-54 -330c-1,-67 2,-135 10,-202l315 -315c18,45 38,90 59,134l-384 383zm66 -449c39,-117 94,-229 167,-333 13,43 26,85 40,126l-207 207z"/>
   <path class="fil3" d="M2661 2516c-43,-12 -85,-25 -126,-39l608 -608c-61,184 -165,357 -312,503 -53,54 -110,102 -170,144zm-265 -92c-46,-18 -90,-37 -134,-58l947 -946c1,67 -2,134 -10,201l-803 803zm-261 -123c-41,-22 -82,-46 -122,-70l1142 -1142c15,52 27,104 36,156l-1056 1056zm-238 -146c-38,-26 -75,-53 -111,-81l1253 -1253c24,42 46,85 65,128l-1207 1206zm-217 -167c-34,-29 -68,-59 -101,-91l1299 -1299c31,35 59,70 86,106l-1284 1284zm-197 -186c-31,-33 -61,-67 -91,-101l1284 -1284c37,26 72,55 106,86l-1299 1299zm-177 -207c-28,-37 -55,-74 -81,-111l1207 -1207c43,19 86,41 128,64l-1254 1254zm-156 -227c-25,-40 -48,-81 -71,-122l1056 -1056c53,9 105,21 156,36l-1141 1142zm-135 -249c-21,-44 -41,-89 -59,-134l804 -803c54,-7 110,-10 166,-10 11,0 23,0 35,0l-946 947zm-111 -273c-14,-41 -27,-83 -40,-126 43,-60 91,-117 144,-171 147,-146 320,-250 504,-311l-608 608z"/>
   <path class="fil4" d="M9415 8143c-45,0 -89,-2 -133,-8l-892 -892c-6,-53 -9,-107 -8,-161l1061 1061c-9,0 -19,0 -28,0zm167 -14l-1185 -1186c7,-42 16,-83 28,-124l1281 1281c-41,12 -82,22 -124,29zm-497 -38c-147,-49 -285,-132 -402,-249 -117,-117 -199,-255 -248,-402l650 651zm733 -32l-1352 -1352c15,-35 32,-69 51,-102l1403 1403c-33,19 -67,36 -102,51zm195 -111l-1435 -1436c21,-29 43,-58 68,-85l1452 1452c-27,25 -55,48 -85,69zm162 -145l-1453 -1452c28,-25 56,-47 85,-69l1436 1436c-21,29 -44,58 -68,85zm128 -178l-1403 -1403c33,-19 68,-36 102,-51l1352 1352c-15,35 -32,69 -51,102zm92 -214l-1281 -1281c41,-12 82,-21 124,-29l1186 1186c-7,42 -17,83 -29,124zm43 -263l-1061 -1061c10,0 19,0 29,0 44,0 88,3 132,8l892 892c7,53 9,107 8,161zm-52 -358l-650 -650c147,48 284,131 401,248 117,117 200,255 249,402z"/>
   <path class="fil5" d="M11971 9627l0 133 -11904 0c-37,0 -67,-29 -67,-66 0,-37 30,-67 67,-67l11904 0z"/>
   <path class="fil6" d="M3519 7909l0 1718 -1520 0c-167,-85 -334,-171 -483,-283 -150,-113 -282,-254 -357,-425 -33,-74 -55,-155 -45,-235 9,-80 54,-160 127,-195 80,-39 175,-19 259,10 194,65 373,174 520,316 -203,-332 -397,-746 -459,-1131 -17,-104 -25,-218 35,-304 58,-83 171,-116 272,-100 101,15 191,72 269,137 200,166 343,399 402,653 -6,-110 -13,-222 18,-327 31,-105 105,-204 212,-232 133,-36 275,52 346,170 71,119 87,261 102,399 78,-88 186,-143 302,-171z"/>
   <path class="fil7" d="M3147 8613c-65,57 -125,120 -176,190 11,274 16,549 14,824l-115 0c-120,-64 -239,-127 -359,-190 -104,16 -206,37 -308,61 -46,12 -65,-59 -19,-70 73,-18 148,-33 222,-46 -175,-93 -351,-187 -527,-279 -111,24 -219,57 -326,98 -43,17 -62,-53 -19,-70 81,-31 164,-58 248,-80 -136,-72 -271,-144 -407,-215 -41,-22 -5,-85 37,-63 244,129 489,259 733,388 12,-74 25,-149 37,-223 8,-46 78,-26 70,20 -13,79 -26,159 -39,239 207,109 413,218 621,328 -187,-365 -372,-729 -558,-1093 -119,-55 -238,-109 -358,-163 -43,-20 -5,-83 37,-63 89,40 178,81 268,122 -83,-163 -166,-325 -249,-488 -21,-42 42,-79 63,-37 136,267 272,534 408,801 19,-82 33,-165 43,-249 5,-46 78,-47 73,0 -13,118 -35,233 -65,348 139,272 277,543 416,815 0,-133 -2,-267 -5,-400l-2 -2c-63,-75 -126,-150 -189,-226 -30,-35 21,-87 52,-51 45,54 90,108 136,163 -5,-157 -11,-314 -19,-471 -68,-75 -136,-150 -204,-226 -31,-34 20,-86 52,-51 48,54 97,107 145,161 -5,-90 -11,-180 -18,-270 -4,-47 69,-47 72,0 10,119 17,237 24,356 12,14 10,31 2,44 3,49 5,99 8,149 40,-48 83,-92 130,-133 35,-31 87,21 51,52z"/>
   <path class="fil6" d="M3782 3553c-54,10 -122,19 -191,27 -94,10 -190,17 -264,18 -172,0 -261,-3 -436,-7 -351,-6 -701,-109 -995,-303 -125,-83 -252,-208 -231,-357 2,-17 6,-34 13,-50 10,-26 26,-51 45,-72 72,-79 197,-118 307,-102 157,23 290,124 419,218 129,93 270,186 430,189 -466,-232 -862,-604 -1122,-1054 -66,-114 -125,-236 -136,-367 -11,-129 31,-268 133,-347l5 -4c22,-16 45,-29 69,-38 126,-49 283,-15 396,66 134,97 221,247 296,394 171,331 314,676 505,995 182,304 407,561 700,757 19,12 38,25 57,37z"/>
   <path class="fil7" d="M3782 3553c-54,10 -122,19 -191,27 -674,-121 -1318,-356 -1913,-699 10,-26 26,-51 45,-72 521,300 1082,516 1667,643 -686,-581 -1241,-1296 -1636,-2106l5 -4c22,-16 45,-29 69,-38 412,846 1001,1588 1733,2179l4 5c53,10 106,19 160,28 19,12 38,25 57,37z"/>
   <path class="fil6" d="M7018 3164c36,15 82,32 129,49 63,22 129,42 181,53 120,28 182,40 304,65 245,51 506,34 741,-55 100,-38 207,-105 217,-212 1,-12 0,-24 -2,-37 -3,-20 -10,-39 -20,-57 -37,-66 -118,-113 -197,-119 -113,-9 -222,40 -326,85 -104,45 -218,88 -329,65 361,-89 694,-285 947,-558 64,-69 123,-144 152,-233 28,-88 21,-192 -38,-263l-3 -3c-12,-15 -27,-28 -42,-38 -80,-54 -194,-55 -286,-16 -109,46 -192,137 -268,227 -171,204 -325,421 -508,613 -175,183 -372,327 -606,417 -15,6 -31,11 -46,17z"/>
   <path class="fil7" d="M7018 3164c36,15 82,32 129,49 488,22 973,-41 1441,-186 -3,-20 -10,-39 -20,-57 -410,127 -834,189 -1261,185 569,-296 1068,-706 1470,-1208l-3 -3c-12,-15 -27,-28 -42,-38 -420,524 -946,948 -1549,1244l-3 3c-39,-2 -77,-4 -116,-6 -15,6 -31,11 -46,17z"/>
   <path class="fil1" d="M7730 9175l0 -6364c0,-250 -202,-453 -452,-453l-3791 0c-250,0 -453,203 -453,453l0 6364c0,249 203,452 453,452l3791 0c250,0 452,-203 452,-452z"/>
   <polygon class="fil8" points="3209,9046 7556,9046 7556,2939 3209,2939 "/>
   <polygon class="fil2" points="3209,9046 7556,9046 7556,6225 3209,6225 "/>
   <polygon class="fil5" points="3209,2939 2781,3907 7984,3907 7556,2939 "/>
   <path class="fil9" d="M3017 4386l0 0c-130,0 -236,-106 -236,-237l0 -242 473 0 0 242c0,131 -106,237 -237,237z"/>
   <path class="fil2" d="M3490 4386l0 0c-130,0 -236,-106 -236,-237l0 -242 473 0 0 242c0,131 -106,237 -237,237z"/>
   <path class="fil9" d="M3963 4386l0 0c-130,0 -236,-106 -236,-237l0 -242 473 0 0 242c0,131 -106,237 -237,237z"/>
   <path class="fil2" d="M4436 4386l0 0c-130,0 -236,-106 -236,-237l0 -242 473 0 0 242c0,131 -106,237 -237,237z"/>
   <path class="fil9" d="M4909 4386c-130,0 -236,-106 -236,-237l0 -242 473 0 0 242c0,131 -106,237 -237,237z"/>
   <path class="fil2" d="M5382 4386c-130,0 -236,-106 -236,-237l0 -242 473 0 0 242c0,131 -106,237 -237,237z"/>
   <path class="fil9" d="M5855 4386l0 0c-130,0 -236,-106 -236,-237l0 -242 473 0 0 242c0,131 -106,237 -237,237z"/>
   <path class="fil2" d="M6328 4386l0 0c-130,0 -236,-106 -236,-237l0 -242 473 0 0 242c0,131 -106,237 -237,237z"/>
   <path class="fil9" d="M6801 4386l0 0c-130,0 -236,-106 -236,-237l0 -242 473 0 0 242c0,131 -106,237 -237,237z"/>
   <path class="fil2" d="M7274 4386l0 0c-130,0 -236,-106 -236,-237l0 -242 473 0 0 242c0,131 -106,237 -237,237z"/>
   <path class="fil9" d="M7747 4386l0 0c-130,0 -236,-106 -236,-237l0 -242 473 0 0 242c0,131 -106,237 -237,237z"/>
   <polygon class="fil10" points="3254,3907 3609,2939 3963,2939 3727,3907 "/>
   <polygon class="fil10" points="4200,3907 4332,2939 4673,2939 4673,3907 "/>
   <polygon class="fil10" points="7511,3907 7156,2939 6801,2939 7038,3907 "/>
   <polygon class="fil10" points="6565,3907 6433,2939 6092,2939 6092,3907 "/>
   <polygon class="fil10" points="5146,3907 5619,3907 5619,2939 5146,2939 "/>
   <path class="fil7" d="M7211 8552l-1279 0c-97,0 -176,-78 -176,-175 0,-97 79,-176 176,-176l1279 0c97,0 176,79 176,176 0,97 -79,175 -176,175z"/>
   <path class="fil2" d="M6044 8438l36 0 -54 -128 -34 0 -55 128 34 0 9 -23 55 0 9 23zm-54 -49l18 -45 17 45 -35 0zm156 -79l-55 0 0 128 54 0c42,0 70,-26 70,-64 0,-38 -28,-64 -69,-64zm1 101l-22 0 0 -74 21 0c20,0 34,15 34,37 0,22 -13,37 -33,37zm139 -101l-55 0 0 128 54 0c42,0 70,-26 70,-64 0,-38 -28,-64 -69,-64zm1 101l-22 0 0 -74 21 0c20,0 34,15 34,37 0,22 -13,37 -33,37zm115 -101l0 27 38 0 0 101 34 0 0 -101 38 0 0 -27 -110 0zm178 -1c-40,0 -69,27 -69,65 0,37 29,65 69,65 40,0 69,-28 69,-65 0,-38 -29,-65 -69,-65zm0 28c20,0 35,16 35,37 0,21 -15,37 -35,37 -19,0 -35,-16 -35,-37 0,-21 16,-37 35,-37zm221 17l19 -23c-13,-14 -33,-22 -52,-22 -39,0 -68,27 -68,64 0,38 28,66 67,66 19,0 40,-9 53,-24l-19 -21c-9,9 -22,15 -32,15 -20,0 -35,-15 -35,-36 0,-21 15,-36 35,-36 11,0 23,7 32,17zm126 84l36 0 -54 -128 -34 0 -55 128 34 0 9 -23 55 0 9 23zm-54 -49l18 -45 17 45 -35 0zm216 49l-27 -42c15,-8 23,-22 23,-41 0,-29 -19,-45 -53,-45l-58 0 0 128 34 0 0 -36 24 0 1 0 18 36 38 0zm-81 -102l24 0c14,0 21,7 21,20 0,13 -7,20 -21,20l-24 0 0 -40zm87 -26l0 27 38 0 0 101 34 0 0 -101 38 0 0 -27 -110 0z"/>
   <polygon class="fil11" points="5756,6843 7184,6843 7184,6743 5756,6743 "/>
   <polygon class="fil8" points="5756,7061 6510,7061 6510,6961 5756,6961 "/>
   <polygon class="fil8" points="5756,7713 6510,7713 6510,7613 5756,7613 "/>
   <polygon class="fil8" points="5756,7278 6857,7278 6857,7178 5756,7178 "/>
   <polygon class="fil8" points="5756,7930 6857,7930 6857,7831 5756,7831 "/>
   <polygon class="fil8" points="5756,7496 7184,7496 7184,7396 5756,7396 "/>
   <path class="fil12" d="M5889 5838l-1013 0c-28,0 -50,-23 -50,-50l0 -1013c0,-28 22,-50 50,-50l1013 0c27,0 50,22 50,50l0 1013c0,27 -23,50 -50,50z"/>
   <path class="fil12" d="M4519 5826l-1013 0c-28,0 -50,-22 -50,-50l0 -1013c0,-27 22,-50 50,-50l1013 0c27,0 50,23 50,50l0 1013c0,28 -23,50 -50,50z"/>
   <path class="fil12" d="M7259 5842l-1013 0c-28,0 -50,-22 -50,-50l0 -1013c0,-28 22,-50 50,-50l1013 0c27,0 50,22 50,50l0 1013c0,28 -23,50 -50,50z"/>
   <path class="fil7" d="M6144 5793c0,125 -101,227 -226,227 -126,0 -227,-102 -227,-227 0,-125 101,-227 227,-227 125,0 226,102 226,227z"/>
   <polygon class="fil2" points="5872,5888 5786,5790 5820,5760 5876,5824 6020,5699 6049,5732 "/>
   <path class="fil11" d="M5199 6048c0,31 -25,56 -56,56 -30,0 -55,-25 -55,-56 0,-30 25,-55 55,-55 31,0 56,25 56,55z"/>
   <path class="fil10" d="M5438 6048c0,31 -25,56 -56,56 -30,0 -55,-25 -55,-56 0,-30 25,-55 55,-55 31,0 56,25 56,55z"/>
   <path class="fil10" d="M5677 6048c0,31 -25,56 -56,56 -31,0 -56,-25 -56,-56 0,-30 25,-55 56,-55 31,0 56,25 56,55z"/>
   <polygon class="fil8" points="3456,8552 5524,8552 5524,6743 3456,6743 "/>
   <polygon class="fil9" points="3786,8173 5194,8173 5194,7123 3786,7123 "/>
   <polygon class="fil5" points="4807,8173 5194,8173 5194,7123 4807,7123 "/>
   <polygon class="fil2" points="4134,7600 4428,7600 4428,7123 4134,7123 "/>
   <path class="fil13" d="M10940 6943l0 2540c0,79 -65,144 -144,144l-4016 0c-79,0 -144,-65 -144,-144l0 -2540c0,-79 65,-143 144,-143l4016 0c79,0 144,64 144,143z"/>
   <path class="fil14" d="M10940 6943l0 1736 -4304 0 0 -1736c0,-79 65,-143 144,-143l4016 0c79,0 144,64 144,143z"/>
   <polygon class="fil15" points="7053,8068 7771,8068 7771,7484 7053,7484 "/>
   <polygon class="fil8" points="8083,7401 9747,7401 9747,7217 8083,7217 "/>
   <polygon class="fil8" points="7053,8466 8021,8466 8021,8341 7053,8341 "/>
   <polygon class="fil8" points="8304,8466 9272,8466 9272,8341 8304,8341 "/>
   <polygon class="fil8" points="9555,8466 10523,8466 10523,8341 9555,8341 "/>
   <polygon class="fil8" points="7053,8804 9272,8804 9272,8679 7053,8679 "/>
   <polygon class="fil8" points="7679,9239 9897,9239 9897,9113 7679,9113 "/>
   <path class="fil8" d="M10523 7324c0,130 -106,235 -236,235 -130,0 -236,-105 -236,-235 0,-131 106,-236 236,-236 130,0 236,105 236,236z"/>
   <path class="fil2" d="M11474 4155c0,61 -49,111 -110,111 -61,0 -111,-50 -111,-111 0,-61 50,-110 111,-110 61,0 110,49 110,110z"/>
   <path class="fil16" d="M11364 4993c-61,0 -111,-50 -111,-111 0,-61 50,-110 111,-110 61,0 110,49 110,110 0,61 -49,111 -110,111z"/>
   <path class="fil17" d="M11365 5719c-61,0 -110,-49 -110,-110 0,-61 49,-111 110,-111 61,0 111,50 111,111 0,61 -50,110 -111,110z"/>
   <path class="fil18" d="M11364 6446c-61,0 -111,-49 -111,-110 0,-61 50,-111 111,-111 61,0 110,50 110,111 0,61 -49,110 -110,110z"/>
   <path class="fil19" d="M11365 7173c-61,0 -110,-49 -110,-110 0,-61 49,-111 110,-111 61,0 111,50 111,111 0,61 -50,110 -111,110z"/>
   <polygon class="fil14" points="6960,4386 9648,4386 9648,3659 6960,3659 "/>
   <polygon class="fil2" points="7105,3886 7924,3886 7924,3799 7105,3799 "/>
   <polygon class="fil2" points="7105,4067 8193,4067 8193,3979 7105,3979 "/>
   <polygon class="fil2" points="7105,4247 9504,4247 9504,4159 7105,4159 "/>
   <polygon class="fil15" points="8401,3756 8429,3813 8493,3822 8447,3867 8458,3930 8401,3900 8344,3930 8355,3867 8309,3822 8373,3813 "/>
   <polygon class="fil15" points="8654,3756 8682,3813 8746,3822 8700,3867 8711,3930 8654,3900 8597,3930 8608,3867 8562,3822 8625,3813 "/>
   <polygon class="fil15" points="8907,3756 8935,3813 8998,3822 8952,3867 8963,3930 8907,3900 8850,3930 8861,3867 8815,3822 8878,3813 "/>
   <polygon class="fil15" points="9159,3756 9188,3813 9251,3822 9205,3867 9216,3930 9159,3900 9103,3930 9113,3867 9068,3822 9131,3813 "/>
   <polygon class="fil15" points="9412,3756 9440,3813 9504,3822 9458,3867 9469,3930 9412,3900 9355,3930 9366,3867 9320,3822 9384,3813 "/>
   <polygon class="fil7" points="7556,5882 10244,5882 10244,5155 7556,5155 "/>
   <polygon class="fil2" points="7700,5382 8520,5382 8520,5295 7700,5295 "/>
   <polygon class="fil2" points="7700,5562 8788,5562 8788,5475 7700,5475 "/>
   <polygon class="fil2" points="7700,5742 9341,5742 9341,5655 7700,5655 "/>
   <polygon class="fil15" points="8996,5251 9025,5309 9088,5318 9042,5363 9053,5426 8996,5396 8940,5426 8951,5363 8905,5318 8968,5309 "/>
   <polygon class="fil15" points="9249,5251 9278,5309 9341,5318 9295,5363 9306,5426 9249,5396 9193,5426 9203,5363 9158,5318 9221,5309 "/>
   <polygon class="fil15" points="9502,5251 9530,5309 9594,5318 9548,5363 9559,5426 9502,5396 9445,5426 9456,5363 9410,5318 9474,5309 "/>
   <polygon class="fil20" points="9755,5251 9783,5309 9846,5318 9801,5363 9811,5426 9755,5396 9698,5426 9709,5363 9663,5318 9726,5309 "/>
   <polygon class="fil20" points="10008,5251 10036,5309 10099,5318 10053,5363 10064,5426 10008,5396 9951,5426 9962,5363 9916,5318 9979,5309 "/>
   <path class="fil15" d="M9603 1889c0,52 -42,94 -95,94 -52,0 -94,-42 -94,-94 0,-52 42,-95 94,-95 53,0 95,43 95,95z"/>
   <path class="fil15" d="M9945 1889c0,52 -42,94 -95,94 -52,0 -94,-42 -94,-94 0,-52 42,-95 94,-95 53,0 95,43 95,95z"/>
   <path class="fil15" d="M10287 1889c0,52 -42,94 -95,94 -52,0 -94,-42 -94,-94 0,-52 42,-95 94,-95 53,0 95,43 95,95z"/>
   <path class="fil15" d="M10629 1889c0,52 -42,94 -94,94 -53,0 -95,-42 -95,-94 0,-52 42,-95 95,-95 52,0 94,43 94,95z"/>
   <path class="fil15" d="M10971 1889c0,52 -42,94 -95,94 -52,0 -94,-42 -94,-94 0,-52 42,-95 94,-95 53,0 95,43 95,95z"/>
   <path class="fil15" d="M9792 2154c0,53 -42,95 -94,95 -53,0 -95,-42 -95,-95 0,-52 42,-94 95,-94 52,0 94,42 94,94z"/>
   <path class="fil15" d="M10134 2154c0,53 -42,95 -94,95 -53,0 -95,-42 -95,-95 0,-52 42,-94 95,-94 52,0 94,42 94,94z"/>
   <path class="fil15" d="M10476 2154c0,53 -42,95 -94,95 -53,0 -95,-42 -95,-95 0,-52 42,-94 95,-94 52,0 94,42 94,94z"/>
   <path class="fil15" d="M10818 2154c0,53 -42,95 -94,95 -53,0 -95,-42 -95,-95 0,-52 42,-94 95,-94 52,0 94,42 94,94z"/>
   <path class="fil15" d="M11160 2154c0,53 -42,95 -94,95 -53,0 -95,-42 -95,-95 0,-52 42,-94 95,-94 52,0 94,42 94,94z"/>
   <g style="clip-path:url(#id0)">
    <image x="4527" y="4164" width="1003" height="1329" xlink:href="onling shoping background1_Images\onling shoping background1_ImgID1.png"/>
   </g>
   <g style="clip-path:url(#id1)">
    <image x="4906" y="4164" width="259" height="245" xlink:href="onling shoping background1_Images\onling shoping background1_ImgID2.png"/>
   </g>
   <g style="clip-path:url(#id2)">
    <image x="5132" y="4164" width="159" height="215" xlink:href="onling shoping background1_Images\onling shoping background1_ImgID3.png"/>
   </g>
   <g style="clip-path:url(#id3)">
    <image x="4809" y="4702" width="906" height="706" xlink:href="onling shoping background1_Images\onling shoping background1_ImgID4.png"/>
   </g>
   <g style="clip-path:url(#id4)">
    <image x="4271" y="4702" width="315" height="791" xlink:href="onling shoping background1_Images\onling shoping background1_ImgID5.png"/>
   </g>
   <g style="clip-path:url(#id5)">
    <image x="4386" y="5166" width="44.6743" height="59.3696" xlink:href="onling shoping background1_Images\onling shoping background1_ImgID6.png"/>
   </g>
   <g style="clip-path:url(#id6)">
    <image x="4371" y="5081" width="59.3696" height="129.907" xlink:href="onling shoping background1_Images\onling shoping background1_ImgID7.png"/>
   </g>
   <g style="clip-path:url(#id7)">
    <image x="4342" y="5081" width="88.7602" height="88.7602" xlink:href="onling shoping background1_Images\onling shoping background1_ImgID8.png"/>
   </g>
   <path class="fil21" d="M4617 5731c0,0 702,610 825,573 103,-31 242,-267 349,-455 6,-10 12,-20 17,-30 -109,-61 -219,-122 -328,-183l-19 30 -161 249 -571 -316 -112 132z"/>
   <path class="fil20" d="M5529 5471l-248 406 -308 -168 -152 226c0,0 524,382 621,369 101,-14 452,-564 452,-564l-365 -269z"/>
   <polygon class="fil9" points="2007,7982 3145,7982 3145,7280 2007,7280 "/>
   <polygon class="fil5" points="2007,7982 2348,7982 2348,7280 2007,7280 "/>
   <polygon class="fil14" points="3145,7982 3909,7982 3909,6814 3145,6814 "/>
   <polygon class="fil13" points="3145,7982 3353,7982 3353,6814 3145,6814 "/>
   <polygon class="fil15" points="2109,7280 3145,7280 3145,6101 2109,6101 "/>
   <polygon class="fil22" points="2109,7280 2425,7280 2425,6101 2109,6101 "/>
   <polygon class="fil7" points="3145,6814 3773,6814 3773,6215 3145,6215 "/>
   <polygon class="fil20" points="3145,6814 3353,6814 3353,6215 3145,6215 "/>
   <path class="fil1" d="M1701 6509l2566 5 -357 1468 -1909 0 -300 -1473zm-142 -52l327 1602c6,30 32,51 63,51l1947 0 0 644c0,193 -157,349 -350,349l-1549 0c-36,0 -64,29 -64,65 0,35 28,64 64,64l1549 0c264,0 478,-215 478,-478l0 -700 447 -1835 286 0c35,0 64,-29 64,-64 0,-36 -29,-65 -64,-65l-336 0c-30,0 -56,21 -63,49l-60 247 -2676 -6 0 0c-19,0 -37,9 -49,24 -13,15 -17,34 -14,53z"/>
   <path class="fil8" d="M3190 9374c0,146 117,263 262,263 145,0 263,-117 263,-263 0,-145 -118,-262 -263,-262 -145,0 -262,117 -262,262z"/>
   <path class="fil11" d="M3289 9374c0,91 73,164 163,164 91,0 164,-73 164,-164 0,-90 -73,-163 -164,-163 -90,0 -163,73 -163,163z"/>
   <path class="fil8" d="M1947 9374c0,146 118,263 263,263 145,0 263,-117 263,-263 0,-145 -118,-262 -263,-262 -145,0 -263,117 -263,262z"/>
   <path class="fil11" d="M2047 9374c0,91 73,164 163,164 90,0 164,-73 164,-164 0,-90 -74,-163 -164,-163 -90,0 -163,73 -163,163z"/>
   <path class="fil1" d="M2576 7011l777 0 -56 516 -665 0 -56 -516zm-129 0l56 516 -645 0 0 129 659 0 41 376 128 -14 -40 -362 637 0 -40 362 128 14 41 -376 655 0 0 -129 -641 0 56 -516 724 0 0 -129 -710 0 46 -423 -127 -14 -48 437 -805 0 -47 -437 -128 14 46 423 -705 0 0 129 719 0z"/>
   <polygon class="fil23" points="4903,8908 4779,9314 4462,9208 4554,8808 "/>
   <path class="fil8" d="M3890 9365l812 291 28 -91 11 -36 65 -206 -344 -115c-62,65 -190,137 -444,82 -8,-2 -15,-2 -22,-1 -27,5 -54,28 -76,46 -11,10 -21,20 -30,30z"/>
   <path class="fil11" d="M3890 9365l812 291 28 -91 -734 -276c-27,5 -54,28 -76,46 -11,10 -21,20 -30,30z"/>
   <path class="fil24" d="M5289 6814l560 147c0,0 -701,957 -946,2080l-420 -121c99,-542 328,-1418 806,-2106z"/>
   <path class="fil8" d="M6672 9684l653 -563 -65 -69 -26 -28 -147 -158 -270 242c27,87 26,234 -148,428 -5,5 -8,12 -11,19 -9,26 -2,60 3,88 3,15 7,28 11,41z"/>
   <path class="fil11" d="M6672 9684l653 -563 -65 -69 -602 503c-9,26 -2,60 3,88 3,15 7,28 11,41z"/>
   <polygon class="fil23" points="7067,8884 6766,8573 6523,8839 6817,9108 "/>
   <path class="fil25" d="M6133 6824c0,0 197,1046 882,1946l-361 264c-368,-417 -1025,-1307 -1236,-2128l715 -82z"/>
   <path class="fil1" d="M6074 4261c112,-4 227,32 309,110 82,77 125,195 103,305 -15,72 -56,136 -94,198 -38,63 -75,130 -81,203 -7,73 26,154 93,183 -112,22 -233,-7 -323,-78 -89,-71 -146,-181 -152,-295 -4,-84 19,-167 44,-248 18,-61 37,-128 10,-185 -21,-43 -69,-72 -117,-70 -48,3 -94,35 -110,81 2,-7 -10,-37 -9,-48 1,-12 7,-31 15,-42 18,-25 57,-40 84,-53 70,-36 148,-58 228,-61z"/>
   <path class="fil5" d="M5849 4277c33,29 56,70 65,113 2,10 3,20 -1,30 -4,8 -12,15 -21,16 -10,2 -20,-2 -26,-9 4,8 1,19 -4,26 -6,8 -15,11 -24,9 -11,-2 -18,-10 -25,-19 -20,-26 -37,-55 -48,-86 -5,-12 -8,-24 -4,-35 4,-12 20,-19 29,-11 -8,-7 -6,-23 0,-32 5,-9 16,-14 27,-13 10,0 24,4 32,11z"/>
   <polygon class="fil23" points="5839,5106 5627,5208 5539,5239 5535,5219 5521,5140 5521,5137 5518,5122 5500,5019 5469,4851 5466,4834 5463,4817 5513,4803 5542,4795 5554,4792 5579,4785 5741,4741 5775,4732 5787,4804 5790,4818 5812,4947 5828,5043 5830,5055 "/>
   <path class="fil21" d="M5812 4947c-76,63 -221,152 -294,175l-55 -305 312 -85 37 215z"/>
   <path class="fil23" d="M5437 5013c117,47 343,-148 361,-214 19,-66 -67,-364 -119,-388 -52,-24 -174,-109 -348,8 0,0 -61,32 -65,83 -1,10 -3,33 -4,64 -1,8 -1,16 -1,24 -3,131 14,358 176,423z"/>
   <path class="fil1" d="M5504 4642c5,15 21,22 36,17 15,-5 22,-21 17,-36 -5,-14 -21,-22 -36,-17 -14,5 -22,21 -17,36z"/>
   <path class="fil1" d="M5287 4668c4,13 18,19 30,15 12,-5 18,-18 14,-30 -4,-12 -18,-18 -30,-14 -12,4 -18,17 -14,29z"/>
   <path class="fil21" d="M5567 4717c12,34 48,51 82,39 33,-11 50,-48 39,-81 -12,-33 -48,-50 -82,-39 -33,12 -50,48 -39,81z"/>
   <path class="fil1" d="M5419 4571c2,-25 21,-47 47,-51 13,-2 25,-2 38,1 26,5 49,22 62,45 -47,-17 -102,-15 -148,8l1 -3z"/>
   <path class="fil1" d="M5261 4590c23,-5 48,-4 71,4l0 -2c-4,-18 -20,-32 -39,-32 -9,0 -18,1 -27,4l-4 2c-1,8 -1,16 -1,24z"/>
   <path class="fil21" d="M5850 4724c-11,54 -54,91 -98,84l-30 -177c19,-18 43,-27 68,-22 44,9 71,61 60,115z"/>
   <path class="fil21" d="M5379 4710c10,-32 4,-65 -13,-95 -6,-10 10,-19 16,-9 16,26 23,55 19,86 -1,12 -4,23 -8,34 -4,10 -16,22 -12,33 3,7 12,8 18,10 8,3 16,4 25,3 12,-1 12,18 0,19 -20,2 -60,-3 -65,-29 -4,-18 15,-35 20,-52z"/>
   <path class="fil21" d="M5572 4779c-17,-2 -30,-14 -35,-30 -3,-10 -19,-3 -16,8 3,7 7,14 12,20 -30,51 -83,74 -141,60 -11,-3 -12,15 -2,17 63,15 124,-11 156,-66 7,5 16,8 24,9 11,1 13,-16 2,-18z"/>
   <path class="fil1" d="M5252 4332c37,-50 105,-83 166,-91 66,-10 178,0 233,38 36,-31 81,-12 121,35 48,56 54,136 61,206 0,9 -7,111 -4,113l-6 -4c-34,-21 -82,-5 -93,34 0,3 -1,6 -1,9 0,0 -116,-63 -266,-257 0,0 -110,131 -202,130 0,0 -1,-5 -1,-12l-1 -1c-24,-16 -33,-69 -36,-95 -5,-38 6,-75 29,-105z"/>
   <path class="fil2" d="M5519 4712c-38,3 -71,-26 -74,-63 -3,-38 25,-71 63,-74 38,-3 71,25 74,63 3,38 -25,71 -63,74zm-215 17c-37,2 -71,-26 -73,-64 -3,-37 25,-71 63,-74 37,-3 71,26 74,64 3,37 -26,71 -64,74zm202 -182c-47,3 -83,40 -89,84 -9,-1 -17,1 -25,3 -12,-44 -54,-74 -101,-70 -53,4 -93,50 -88,104 4,53 50,93 104,88 49,-3 87,-45 89,-93 6,-3 15,-5 22,-3 9,48 53,84 103,80 53,-5 93,-51 89,-104 -4,-54 -51,-93 -104,-89z"/>
   <path class="fil6" d="M5956 5162c0,0 -77,-179 -130,-182 0,0 -304,127 -329,147l-8 173 467 -138z"/>
   <path class="fil23" d="M4845 6256c0,0 842,425 952,360 93,-56 171,-318 229,-526 3,-12 6,-23 9,-34 -121,-33 -242,-65 -363,-97l-11 33 -95 280 -678 -184 -43 168z"/>
   <path class="fil23" d="M4692 6270c0,0 -170,-30 -187,-64 -17,-35 161,-39 161,-39 0,0 -130,-51 -155,-55 -25,-4 -164,31 -168,9 -5,-22 109,-84 135,-87 15,-1 120,-9 201,2l209 52 -43 168c-22,10 -153,14 -153,14z"/>
   <g>
    <path class="fil26" d="M5073 5107c-18,-9 -30,-30 -32,-53l-5 -65 1 -30 -94 0 0 30 -4 65c-2,23 -14,44 -32,53 -23,13 -39,41 -39,73l0 428c0,16 11,29 25,29l194 0c13,0 25,-13 25,-29l0 -428c0,-32 -16,-60 -39,-73z"/>
    <path class="fil27" d="M5059 5134c-26,-15 -44,-44 -46,-77l-46 0c-2,33 -20,62 -47,77 -14,8 -24,26 -24,46l0 427 187 0 0 -427c0,-20 -9,-38 -24,-46z"/>
    <path class="fil28" d="M5035 4977l-91 0c-6,0 -12,-6 -12,-13l0 -3c0,-7 6,-13 12,-13l91 0c7,0 12,6 12,13l0 3c0,7 -5,13 -12,13z"/>
    <path class="fil29" d="M5026 5126c16,23 39,26 29,42 -5,7 -38,-6 -51,-29 -20,-35 -7,-54 2,-52 10,3 5,17 20,39z"/>
    <path class="fil29" d="M5063 5360c0,76 -11,137 -25,137 -14,0 -26,-61 -26,-137 0,-75 12,-136 26,-136 14,0 25,61 25,136z"/>
    <polygon class="fil30" points="4868,5384 5112,5384 5112,5267 4868,5267 "/>
    <path class="fil31" d="M4949 5301l0 49c0,2 -2,4 -4,4 -3,0 -4,-2 -4,-4l0 -35 -12 17c-1,1 -2,2 -3,2l0 0c-2,0 -3,-1 -4,-2l-11 -17 0 35c0,2 -2,4 -4,4 -3,0 -5,-2 -5,-4l0 -49c0,-2 2,-4 5,-4l0 0c1,0 2,0 3,2l16 22 15 -22c1,-2 2,-2 4,-2l0 0c2,0 4,2 4,4z"/>
    <path class="fil31" d="M4969 5301c0,-2 2,-4 4,-4 2,0 4,2 4,4l0 49c0,2 -2,4 -4,4 -2,0 -4,-2 -4,-4l0 -49z"/>
    <path class="fil31" d="M4992 5350l0 -49c0,-2 2,-4 4,-4 3,0 5,2 5,4l0 44 21 0c2,0 4,2 4,5 0,2 -2,4 -4,4l-26 0c-2,0 -4,-2 -4,-4z"/>
    <path class="fil31" d="M5036 5350l0 -48c0,-3 2,-5 4,-5 3,0 5,2 5,5l0 23 25 -26c2,-2 5,-2 6,0 2,1 2,4 0,6l-17 18 17 24c2,2 2,5 0,6 -1,1 -2,1 -3,1 -1,0 -2,0 -3,-1l-17 -24 -8 9 0 12c0,2 -2,4 -5,4 -2,0 -4,-2 -4,-4z"/>
    <polygon class="fil32" points="5071,5637 5300,5637 5300,5057 5071,5057 "/>
    <polygon class="fil33" points="5300,5057 5071,5057 5112,4959 5258,4959 "/>
    <path class="fil32" d="M5258 4959l-146 0 0 -36c0,-17 13,-30 29,-30l89 0c15,0 28,13 28,30l0 36z"/>
    <path class="fil33" d="M5278 5267c-7,102 -9,185 -19,185 -10,0 18,-91 -18,-185 -67,-175 -51,-194 18,-185 27,3 27,57 19,185z"/>
    <path class="fil34" d="M5286 5321c0,59 -45,107 -101,107 -56,0 -101,-48 -101,-107 0,-58 45,-106 101,-106 56,0 101,48 101,106z"/>
    <polygon class="fil35" points="5103,5352 5103,5291 5115,5291 5131,5334 5149,5291 5159,5291 5159,5352 5152,5352 5152,5301 5135,5345 5128,5345 5111,5300 5111,5352 "/>
    <polygon class="fil35" points="5170,5352 5178,5352 5178,5291 5170,5291 "/>
    <polygon class="fil35" points="5196,5291 5196,5345 5225,5345 5223,5352 5188,5352 5188,5291 "/>
    <polygon class="fil35" points="5239,5291 5239,5318 5245,5318 5261,5291 5270,5291 5252,5320 5274,5352 5265,5352 5245,5323 5239,5323 5239,5352 5231,5352 5231,5291 "/>
    <path class="fil36" d="M5666 5225c7,5 12,12 14,20 7,20 -5,43 -25,50 -15,6 -31,1 -41,-11l-71 80c2,3 4,6 6,10 5,16 -3,33 -19,39 -13,4 -28,-2 -34,-15l-83 -21c-2,9 -8,16 -17,19 -13,5 -27,-3 -31,-16 -2,-5 -2,-11 -1,-15l-37 -10c-6,29 -7,59 -1,90 6,-2 12,-2 19,0 21,5 34,27 29,48 -3,12 -11,22 -22,26 7,12 14,23 22,33 59,73 157,105 251,73 73,-26 127,-86 149,-156 2,-7 4,-13 5,-20 -12,-1 -24,-10 -28,-24 -6,-18 4,-38 21,-44 4,-1 9,-2 13,-2 -1,-19 -5,-38 -11,-58 -16,-50 -47,-91 -86,-120l-22 24z"/>
    <path class="fil37" d="M5747 5293c17,31 23,60 14,66 -10,6 -31,-14 -48,-45 -16,-31 -22,-60 -13,-66 9,-5 31,15 47,45z"/>
    <path class="fil37" d="M5468 5400c32,10 56,28 52,38 -3,11 -31,11 -63,0 -32,-11 -56,-28 -53,-38 4,-11 32,-11 64,0z"/>
    <path class="fil38" d="M5423 5398c15,-5 31,4 36,20 6,16 -3,33 -18,39 -15,5 -31,-4 -36,-20 -5,-16 3,-33 18,-39z"/>
    <path class="fil38" d="M5509 5440c23,-8 48,6 56,31 8,25 -4,52 -28,60 -23,8 -48,-6 -56,-31 -8,-25 4,-52 28,-60z"/>
    <path class="fil38" d="M5599 5345c28,-10 58,5 67,33 9,29 -7,60 -35,70 -28,10 -58,-6 -67,-34 -9,-29 6,-60 35,-69z"/>
    <path class="fil38" d="M5705 5299c18,-6 37,3 43,22 5,18 -5,38 -22,44 -18,6 -38,-4 -43,-22 -6,-18 4,-38 22,-44z"/>
    <path class="fil38" d="M5705 5387c10,-4 21,2 24,13 4,11 -2,23 -12,26 -10,4 -22,-2 -25,-13 -3,-11 2,-23 13,-26z"/>
    <path class="fil38" d="M5710 5451c17,-6 35,2 40,19 5,16 -5,34 -21,40 -17,5 -34,-3 -39,-19 -6,-17 4,-34 20,-40z"/>
    <path class="fil38" d="M5628 5490c23,-8 49,7 57,33 8,26 -4,54 -27,62 -23,8 -49,-6 -57,-33 -8,-26 4,-54 27,-62z"/>
    <path class="fil38" d="M5436 5524c13,-5 27,3 32,16 4,14 -3,29 -16,33 -13,5 -27,-2 -31,-16 -5,-14 2,-29 15,-33z"/>
    <path class="fil38" d="M5559 5553c18,-6 38,4 45,24 6,19 -4,41 -23,47 -19,7 -39,-4 -45,-24 -6,-19 4,-40 23,-47z"/>
    <path class="fil39" d="M5504 5297l-284 0 36 310c2,17 16,30 32,30l148 0c16,0 30,-13 32,-30l36 -310z"/>
    <path class="fil40" d="M5198 5286l0 11 201 0 0 20c0,12 8,22 19,24 14,2 25,-9 25,-23l0 -21 83 0 0 -11c0,-8 -6,-14 -13,-14l-302 0c-7,0 -13,6 -13,14z"/>
    <path class="fil41" d="M5428 5441c-6,64 -2,118 10,119 12,2 28,-49 34,-114 7,-64 3,-117 -9,-118 -12,-2 -28,49 -35,113z"/>
    <polygon class="fil42" points="5479,5510 5245,5510 5232,5398 5492,5398 "/>
    <path class="fil27" d="M5287 5441l-11 15 0 14c0,2 -1,3 -3,3 -1,0 -2,-1 -2,-3l0 -14 -11 -15c-1,-2 -1,-4 1,-5 1,-1 3,0 4,1l8 13 9 -13c1,-1 3,-2 4,-1 1,1 2,3 1,5z"/>
    <path class="fil27" d="M5317 5454c0,-4 -1,-7 -3,-10 -2,-2 -5,-3 -8,-3 -4,0 -6,1 -9,3 -2,3 -3,6 -3,10 0,4 1,7 3,9 3,3 5,4 9,4 3,0 6,-1 8,-4 2,-2 3,-5 3,-9zm1 -14c3,4 5,9 5,14 0,5 -2,10 -5,14 -3,3 -8,5 -12,5 -5,0 -10,-2 -13,-5 -3,-4 -5,-9 -5,-14 0,-5 2,-10 5,-14 3,-3 8,-6 13,-6 4,0 9,3 12,6z"/>
    <path class="fil27" d="M5332 5454c0,-11 8,-20 19,-20 4,0 8,2 11,5 2,1 2,3 1,4 -1,1 -3,2 -4,0 -2,-1 -5,-2 -8,-2 -4,0 -7,1 -10,3 -2,3 -3,6 -3,10 0,3 1,7 3,9 3,3 6,4 10,4 2,0 5,-1 7,-2l0 -7 -8 0c-1,0 -3,-2 -3,-3 0,-2 2,-3 3,-3l11 0c1,0 3,1 3,3l0 12 -1 0 0 1 0 0 -1 1c-3,3 -7,4 -11,4 -11,0 -19,-8 -19,-19z"/>
    <path class="fil27" d="M5390 5473c-8,0 -15,-7 -15,-15l0 -20c0,-1 1,-3 3,-3 2,0 3,2 3,3l0 20c0,5 4,9 9,9 5,0 9,-4 9,-9l0 -20c0,-1 1,-3 3,-3 2,0 3,2 3,3l0 20c0,8 -7,15 -15,15z"/>
    <path class="fil27" d="M5432 5447c0,-3 -2,-6 -5,-6l-6 0 0 12 6 0c3,0 5,-3 5,-6zm7 22c1,1 0,3 -1,4l-1 0 0 0 -2 -1 -2 -2c-1,-1 -1,-3 -1,-6 0,-1 0,-2 -1,-3l-1 -1c-1,-1 -3,-1 -3,-1l-6 0 0 11c0,2 -2,3 -3,3 -2,0 -3,-1 -3,-3l0 -32c0,-1 1,-3 3,-3l9 0c6,0 11,6 11,12 0,4 -2,7 -4,9l2 2c1,2 1,4 1,6 0,1 1,2 1,3l1 2z"/>
    <path class="fil27" d="M5469 5441l-8 0 0 29c0,2 -2,3 -3,3 -2,0 -3,-1 -3,-3l0 -29 -8 0c-2,0 -3,-1 -3,-3 0,-1 1,-3 3,-3l22 0c1,0 3,2 3,3 0,2 -2,3 -3,3z"/>
   </g>
   <g>
    <path class="fil30" d="M6823 5093l145 3c30,0 55,20 63,48 2,6 3,13 3,20l0 1 12 6c2,-2 5,-4 7,-5 32,-19 74,-9 93,23l74 124c15,26 11,58 -8,79 -4,5 -10,10 -16,13 -1,1 -2,2 -3,2l1 8c31,6 54,32 54,64l4 145c0,30 -19,56 -46,65 -6,2 -13,3 -20,4 -37,0 -68,-29 -69,-66l-3 -145c-1,-33 23,-61 54,-67l0 -1c-25,3 -50,-9 -64,-32l-74 -124c-13,-21 -12,-46 -1,-66l-1 -1c-11,23 -35,40 -63,39l-144 -2c-37,-1 -67,-32 -66,-69 0,-37 31,-67 68,-66z"/>
    <path class="fil43" d="M7127 5185c13,12 17,31 8,41 -9,11 -28,10 -42,-3 -14,-12 -18,-30 -9,-41 10,-10 29,-9 43,3z"/>
    <path class="fil43" d="M7002 5129c9,8 12,20 6,27 -6,7 -19,6 -28,-2 -9,-8 -11,-20 -5,-27 6,-7 18,-6 27,2z"/>
    <path class="fil43" d="M7220 5442c13,12 17,31 8,42 -9,10 -28,9 -42,-3 -14,-12 -18,-31 -9,-41 10,-11 29,-10 43,2z"/>
    <path class="fil44" d="M6950 5348c78,312 -59,314 -199,296 -125,-16 -190,-39 -257,-299 -39,-156 6,-311 261,-295 333,19 160,156 195,298z"/>
    <path class="fil45" d="M6850 5323c0,23 -17,30 -38,30 -21,0 -38,-8 -38,-31 1,-23 1,-54 22,-53 46,0 54,31 54,54z"/>
    <path class="fil45" d="M6902 5574c-7,9 -22,20 -65,22 -8,1 7,-50 3,-96 -3,-30 -15,-57 -23,-70 40,-8 72,-22 90,-31 24,115 8,159 -5,175zm-102 21c-15,-1 -30,-3 -43,-4 -60,-8 -92,-16 -118,-43 -18,-18 -37,-46 -53,-85 30,-9 89,-26 156,-25 24,0 48,-3 70,-7 2,14 9,39 9,67 2,47 -9,98 -21,97zm-181 -277c50,-3 109,9 109,5 -1,-4 -57,-25 -109,-27 -39,0 -76,19 -77,16 -3,-14 -5,-31 -6,-48 24,-6 91,-30 170,-29 77,1 156,24 188,32 -4,29 -4,61 4,94 3,11 5,21 7,31 -28,8 -91,28 -163,28 -69,-1 -130,21 -160,36 -12,-31 -23,-69 -33,-114 -1,-5 31,-22 70,-24zm-56 -161c29,-37 83,-55 162,-55 2,0 -19,33 -16,64 2,20 -12,39 -24,51 -70,4 -128,29 -149,42 -1,-36 5,-73 27,-102zm189 -54c119,7 147,29 154,38 9,11 3,41 -3,72 -3,15 -6,31 -9,48 -30,-15 -110,-44 -188,-45 -4,0 -9,1 -13,1 16,-13 35,-32 36,-52 1,-31 21,-62 23,-62zm198 245c-35,-142 138,-279 -195,-298 -10,-1 -20,-1 -30,-1 -229,-2 -269,146 -231,296 67,260 132,283 257,299 25,3 51,6 75,6 108,1 188,-47 124,-302z"/>
    <path class="fil46" d="M6935 5266c-9,63 6,123 -4,123 -10,0 -26,-57 -19,-121 7,-66 8,-123 35,-114 17,5 -3,46 -12,112z"/>
    <path class="fil46" d="M6519 5263c0,64 14,108 5,108 -10,0 -23,-41 -28,-106 -4,-66 8,-123 35,-114 17,5 -12,41 -12,112z"/>
    <path class="fil47" d="M6353 5592c0,-56 45,-101 101,-101l650 0c56,0 101,45 101,101 0,55 -45,101 -101,101l-650 0c-56,0 -101,-46 -101,-101z"/>
    <path class="fil39" d="M7104 5693c-56,0 -101,-46 -101,-101 0,-56 45,-101 101,-101 56,0 101,45 101,101 0,55 -45,101 -101,101z"/>
    <path class="fil48" d="M7116 5523c-4,0 -7,-3 -7,-7 0,-4 3,-7 7,-7 4,0 8,3 8,7 0,4 -4,7 -8,7z"/>
    <path class="fil48" d="M7148 5545c-4,0 -7,-3 -7,-6 0,-4 3,-7 7,-7 3,0 6,3 6,7 0,3 -3,6 -6,6z"/>
    <path class="fil48" d="M7087 5565c-4,0 -8,-3 -8,-8 0,-4 4,-7 8,-7 4,0 8,3 8,7 0,5 -4,8 -8,8z"/>
    <path class="fil48" d="M7122 5593c-3,0 -6,-3 -6,-5 0,-3 3,-6 6,-6 3,0 5,3 5,6 0,2 -2,5 -5,5z"/>
    <path class="fil48" d="M7165 5597c-4,0 -7,-4 -7,-8 0,-4 3,-7 7,-7 4,0 7,3 7,7 0,4 -3,8 -7,8z"/>
    <path class="fil48" d="M7119 5560c-3,0 -6,-2 -6,-5 0,-3 3,-5 6,-5 2,0 5,2 5,5 0,3 -3,5 -5,5z"/>
    <path class="fil48" d="M7053 5603c-4,0 -8,-4 -8,-8 0,-4 4,-7 8,-7 4,0 7,3 7,7 0,4 -3,8 -7,8z"/>
    <path class="fil48" d="M7057 5550c-5,0 -9,-4 -9,-9 0,-5 4,-9 9,-9 5,0 9,4 9,9 0,5 -4,9 -9,9z"/>
    <path class="fil48" d="M7098 5637c-3,0 -6,-3 -6,-6 0,-3 3,-6 6,-6 3,0 6,3 6,6 0,3 -3,6 -6,6z"/>
    <path class="fil48" d="M7148 5627c-4,0 -7,-3 -7,-6 0,-4 3,-7 7,-7 3,0 6,3 6,7 0,3 -3,6 -6,6z"/>
    <path class="fil48" d="M7047 5642c-3,0 -5,-3 -5,-6 0,-3 2,-5 5,-5 3,0 6,2 6,5 0,3 -3,6 -6,6z"/>
    <path class="fil48" d="M7086 5608c-4,0 -7,-3 -7,-6 0,-4 3,-7 7,-7 3,0 6,3 6,7 0,3 -3,6 -6,6z"/>
    <path class="fil48" d="M7178 5569c-3,0 -6,-3 -6,-6 0,-3 3,-6 6,-6 3,0 5,3 5,6 0,3 -2,6 -5,6z"/>
    <path class="fil48" d="M7114 5665c-3,0 -5,-2 -5,-5 0,-2 2,-4 5,-4 2,0 5,2 5,4 0,3 -3,5 -5,5z"/>
    <path class="fil48" d="M7072 5669c-3,0 -6,-3 -6,-7 0,-3 3,-6 6,-6 4,0 7,3 7,6 0,4 -3,7 -7,7z"/>
    <path class="fil48" d="M7027 5582c-4,0 -7,-3 -7,-7 0,-3 3,-6 7,-6 4,0 7,3 7,6 0,4 -3,7 -7,7z"/>
    <path class="fil39" d="M6986 5531c0,8 -116,14 -258,14 -143,0 -259,-6 -259,-14 0,-8 116,-15 259,-15 142,0 258,7 258,15z"/>
    <path class="fil49" d="M6565 5708l0 -142 -41 0 0 142c-13,0 -23,10 -23,23 0,14 10,24 23,24 9,0 16,-4 20,-11 5,7 12,11 21,11 13,0 23,-10 23,-24 0,-13 -10,-23 -23,-23z"/>
    <path class="fil50" d="M6521 5584c-9,0 -17,-5 -22,-11 -25,-32 -92,-127 -84,-217 11,-123 129,-123 129,-123 0,0 83,3 117,64 43,78 -34,227 -60,273 -4,8 -13,14 -23,14l-57 0z"/>
    <path class="fil38" d="M6655 5335c7,38 -6,72 -30,77 -24,4 -49,-22 -57,-60 -7,-37 6,-71 30,-76 24,-4 49,22 57,59z"/>
    <path class="fil51" d="M6559 5650c0,34 -2,62 -5,62 -3,0 -5,-28 -5,-62 0,-34 2,-62 5,-62 3,0 5,28 5,62z"/>
   </g>
   <g>
    <path class="fil52" d="M4353 5216c-7,0 -13,-6 -13,-13l0 -80c0,-56 46,-103 103,-103 7,0 13,6 13,13 0,7 -6,13 -13,13 -42,0 -77,35 -77,77l0 80c0,7 -6,13 -13,13z"/>
    <path class="fil53" d="M4296 5632l0 0c-43,9 -86,-18 -95,-61l-61 -278c-9,-43 19,-86 62,-95 43,-9 85,18 95,61l60 278c9,43 -18,86 -61,95z"/>
    <path class="fil53" d="M4424 5636l0 0c-43,-7 -74,-48 -67,-92l43 -280c6,-44 47,-74 91,-67 43,6 74,47 67,91l-43 281c-6,43 -47,73 -91,67z"/>
    <path class="fil54" d="M4353 5638l0 0c-44,0 -80,-36 -80,-80l0 -285c0,-44 36,-80 80,-80 44,0 80,36 80,80l0 285c0,44 -36,80 -80,80z"/>
    <path class="fil55" d="M4534 5250c11,21 6,44 -10,52 -17,9 -38,-1 -49,-22 -10,-21 -5,-44 11,-53 16,-8 38,2 48,23z"/>
    <path class="fil55" d="M4399 5251c7,15 4,31 -8,37 -11,6 -27,-1 -34,-16 -7,-15 -4,-31 8,-37 11,-6 26,1 34,16z"/>
    <path class="fil56" d="M4235 5389c0,144 -134,262 -299,262 -165,0 -299,-118 -299,-262 0,-144 288,-224 363,-239 5,47 235,95 235,239z"/>
    <path class="fil57" d="M3786 5242c0,-31 -48,-66 -82,-55 -3,52 -80,99 -80,202 0,144 147,262 312,262 130,0 197,-147 149,-147 -165,0 -299,-117 -299,-262z"/>
    <path class="fil58" d="M3851 5172c-28,-11 -53,-50 -77,-22 8,50 -85,66 -85,169 0,144 82,332 247,332 130,0 378,-303 -85,-479z"/>
    <path class="fil57" d="M4059 5212c-80,0 -173,17 -207,53 -59,63 -21,129 -78,180 -27,25 13,41 21,55 18,57 37,151 141,151 165,0 310,-126 310,-271 0,-233 -155,-57 -187,-168z"/>
    <path class="fil58" d="M4193 5187c-27,0 -78,34 -85,62 -31,127 -69,53 -137,122 -61,61 -35,74 -80,140 -36,54 -191,-13 -212,25 22,37 65,111 246,124 165,11 321,-135 321,-280 0,-113 -20,-82 -53,-193z"/>
    <path class="fil56" d="M4201 5398c-9,4 -17,8 -25,13 14,-32 21,-67 19,-103 -1,-23 -38,-23 -36,0 1,24 -3,47 -10,69 -1,-10 -3,-19 -6,-29 -3,-11 -21,-6 -18,5 6,21 9,41 8,62 -11,21 -25,41 -40,59 -5,7 -11,14 -17,21 2,-12 2,-24 2,-35 -1,-25 -21,-49 -35,-68 -7,-10 -22,-1 -16,9 12,17 26,35 32,55 5,19 0,44 -6,65 -19,19 -39,35 -64,44 -13,5 -27,8 -40,11 9,-28 11,-59 11,-89 0,-12 -18,-12 -18,0 -1,31 -2,64 -15,93 -19,3 -39,4 -59,5 -38,1 -80,-2 -113,-22 -20,-12 -39,19 -19,32 38,23 84,27 127,27 48,0 98,-8 143,-24 6,-3 13,-6 19,-9 18,-2 35,0 53,4 11,2 16,-15 5,-18 -10,-2 -20,-4 -30,-5 27,-21 49,-48 70,-75 13,-15 24,-31 34,-48 16,-14 34,-25 54,-34 11,-4 1,-20 -10,-15z"/>
    <path class="fil59" d="M3586 5128c3,-87 51,-157 44,-156 -7,1 -66,69 -70,161 -3,87 34,154 41,152 7,-1 -19,-70 -15,-157z"/>
    <path class="fil59" d="M3616 5089c30,-81 89,-134 82,-135 -7,-1 -76,46 -108,132 -30,82 -16,157 -9,158 7,1 4,-73 35,-155z"/>
    <path class="fil60" d="M3590 5188c14,-86 70,-150 63,-150 -7,1 -74,60 -89,151 -14,86 14,157 21,157 7,-1 -10,-73 5,-158z"/>
    <path class="fil49" d="M3773 5446c0,106 -90,192 -202,192 -111,0 -201,-86 -201,-192 0,-93 91,-125 161,-188 20,-18 12,-90 17,-87 17,10 25,4 28,0l2 1c0,9 0,29 6,30 26,7 36,-12 39,-12 6,0 -35,42 -17,67 18,26 167,94 167,189z"/>
    <path class="fil61" d="M3695 5356c37,38 51,86 31,105 -20,20 -67,5 -105,-33 -37,-39 -51,-86 -31,-106 20,-20 67,-4 105,34z"/>
    <path class="fil28" d="M4359 5642c0,157 -238,111 -529,79 -290,-32 -528,-35 -528,-79 0,-43 238,-53 528,-78 291,-24 529,-91 529,78z"/>
    <path class="fil59" d="M4592 5665c-24,-8 -52,-15 -82,-20 95,-2 155,4 190,63l22 -14c-42,-72 -118,-77 -221,-75 6,-2 11,-4 16,-6 51,-22 85,-36 170,9l12 -23c-95,-51 -138,-33 -192,-10 -38,16 -82,35 -158,35l0 34c192,0 326,51 326,97l26 0c0,-36 -38,-67 -109,-90z"/>
    <path class="fil30" d="M4328 5615c0,30 -65,54 -144,54 -81,0 -145,-24 -145,-54 0,-29 64,-53 145,-53 79,0 144,24 144,53z"/>
    <path class="fil43" d="M4098 5650c-4,0 -8,-4 -8,-8l0 -86c0,-4 4,-7 8,-7 4,0 8,3 8,7l0 86c0,4 -4,8 -8,8z"/>
    <path class="fil43" d="M4027 5720c-4,0 -8,-4 -8,-8l0 -86c0,-4 4,-8 8,-8 5,0 8,4 8,8l0 86c0,4 -3,8 -8,8z"/>
    <path class="fil43" d="M3939 5650c-4,0 -7,-4 -7,-8l0 -50c0,-4 3,-8 7,-8 5,0 8,4 8,8l0 50c0,4 -3,8 -8,8z"/>
    <path class="fil43" d="M3830 5698c-4,0 -7,-3 -7,-7l0 -49c0,-5 3,-8 7,-8 5,0 8,3 8,8l0 49c0,4 -3,7 -8,7z"/>
    <path class="fil43" d="M3766 5625c-5,0 -8,-4 -8,-8l0 -25c0,-4 3,-8 8,-8 4,0 7,4 7,8l0 25c0,4 -3,8 -7,8z"/>
    <path class="fil43" d="M3700 5674c-5,0 -8,-4 -8,-8l0 -40c0,-4 3,-8 8,-8 4,0 7,4 7,8l0 40c0,4 -3,8 -7,8z"/>
    <path class="fil43" d="M3630 5634c-4,0 -8,-4 -8,-8l0 -21c0,-5 4,-8 8,-8 4,0 8,3 8,8l0 21c0,4 -4,8 -8,8z"/>
    <path class="fil43" d="M3483 5674c-4,0 -7,-4 -7,-8l0 -40c0,-4 3,-8 7,-8 5,0 8,4 8,8l0 40c0,4 -3,8 -8,8z"/>
    <path class="fil43" d="M4184 5733c-5,0 -8,-3 -8,-7l0 -84c0,-5 3,-8 8,-8 4,0 7,3 7,8l0 84c0,4 -3,7 -7,7z"/>
    <path class="fil43" d="M4253 5634c-4,0 -7,-4 -7,-8l0 -52c0,-4 3,-8 7,-8 5,0 8,4 8,8l0 52c0,4 -3,8 -8,8z"/>
   </g>
   <polygon class="fil62" points="4572,5500 4450,5487 4215,5001 4296,4961 "/>
   <path class="fil21" d="M4652 5466c0,0 -123,-121 -161,-115 -38,6 62,153 62,153 0,0 -117,-75 -135,-94 -18,-18 -70,-151 -91,-142 -20,9 -4,138 9,161 7,13 61,103 117,163l164 139 112 -132c-5,-24 -77,-133 -77,-133z"/>
   <path class="fil6" d="M6173 6989l-971 -84c0,0 265,-509 145,-858 -51,-148 -90,-255 -72,-318 26,-90 85,-240 170,-360 55,-80 76,-130 90,-150l387 -66c0,0 78,12 116,41 66,49 117,112 135,158 116,289 156,1006 0,1637z"/>
   <g>
    <path class="fil6" d="M5680 5787l-142 454 -340 -89 -92 256c0,0 601,268 692,231 95,-38 301,-680 301,-680l-419 -172z"/>
    <path class="fil20" d="M5965 5472c-135,-9 -228,87 -274,206 -65,168 -88,360 -126,536 -41,-10 -82,-15 -124,-14 -27,0 -27,41 0,41 43,-1 85,5 127,16 4,1 7,1 10,1 10,2 20,-2 23,-14 29,-135 58,-269 88,-403 33,-146 88,-340 276,-328 26,1 26,-40 0,-41z"/>
    <path class="fil20" d="M5371 6494c101,49 207,88 317,110 166,32 212,-131 265,-252 83,-194 208,-460 145,-673 -7,-26 34,-38 42,-11 39,133 6,262 -34,392 -45,143 -100,284 -165,420 -42,88 -79,180 -190,176 -137,-4 -281,-66 -402,-125 -24,-13 -3,-49 22,-37z"/>
   </g>
  </g>
 </g>
</svg>
