<svg width="1118" height="803" viewBox="0 0 1118 803" fill="none" xmlns="http://www.w3.org/2000/svg">
<g clip-path="url(#clip0)">
<path opacity="0.1" d="M559 802.819C867.727 802.819 1118 772.399 1118 734.874C1118 697.348 867.727 666.928 559 666.928C250.273 666.928 0 697.348 0 734.874C0 772.399 250.273 802.819 559 802.819Z" fill="#F05E3C"/>
<path d="M956.486 768.178C956.486 768.178 985.641 731.08 983.283 694.272C982.195 678.84 986.143 663.471 994.534 650.473C998.565 644.334 1003.15 638.577 1008.23 633.274" stroke="#535461" stroke-width="2" stroke-miterlimit="10"/>
<path d="M1006.89 610.07C1004.83 615.222 1008.2 633.884 1008.2 633.884C1008.2 633.884 1023.49 622.666 1025.54 617.514C1026.53 615.04 1026.49 612.277 1025.44 609.831C1024.39 607.385 1022.41 605.456 1019.93 604.47C1017.46 603.483 1014.7 603.519 1012.25 604.569C1009.8 605.619 1007.87 607.597 1006.89 610.07V610.07Z" fill="#F05E3C"/>
<path d="M980.079 632.455C981.154 637.897 994.123 651.733 994.123 651.733C994.123 651.733 1000.86 634.006 999.786 628.564C999.53 627.27 999.022 626.039 998.291 624.941C997.56 623.844 996.62 622.901 995.524 622.167C994.428 621.432 993.199 620.921 991.906 620.662C990.612 620.403 989.281 620.401 987.987 620.656C986.693 620.912 985.462 621.42 984.364 622.151C983.266 622.882 982.323 623.822 981.589 624.918C980.855 626.014 980.344 627.243 980.084 628.537C979.825 629.83 979.823 631.162 980.079 632.455V632.455Z" fill="#F05E3C"/>
<path d="M961.294 681.492C964.969 685.647 983.149 691.043 983.149 691.043C983.149 691.043 980.016 672.34 976.341 668.185C975.468 667.196 974.408 666.39 973.223 665.811C972.037 665.232 970.749 664.893 969.433 664.812C968.116 664.731 966.796 664.91 965.549 665.339C964.301 665.768 963.151 666.439 962.162 667.313C961.174 668.187 960.368 669.247 959.789 670.432C959.211 671.618 958.872 672.906 958.791 674.223C958.711 675.539 958.89 676.859 959.32 678.106C959.749 679.354 960.42 680.504 961.294 681.492V681.492Z" fill="#F05E3C"/>
<path d="M955.436 721.794C958.356 726.511 975.363 734.901 975.363 734.901C975.363 734.901 975.436 715.938 972.516 711.221C971.822 710.099 970.914 709.125 969.843 708.353C968.773 707.582 967.561 707.03 966.276 706.727C964.992 706.425 963.661 706.378 962.359 706.59C961.056 706.802 959.809 707.269 958.687 707.963C957.565 708.658 956.591 709.567 955.82 710.638C955.05 711.709 954.498 712.921 954.196 714.205C953.894 715.49 953.848 716.821 954.061 718.123C954.274 719.426 954.741 720.673 955.436 721.794V721.794Z" fill="#F05E3C"/>
<path d="M1013.31 660.546C1008.18 662.661 989.484 659.511 989.484 659.511C989.484 659.511 1000.52 644.092 1005.65 641.977C1008.11 640.961 1010.88 640.965 1013.34 641.988C1015.8 643.01 1017.75 644.969 1018.77 647.431C1019.78 649.893 1019.78 652.659 1018.76 655.118C1017.73 657.578 1015.77 659.53 1013.31 660.546V660.546Z" fill="#F05E3C"/>
<path d="M1005.86 707.593C1000.34 708.077 983.437 699.476 983.437 699.476C983.437 699.476 998.584 688.067 1004.11 687.582C1005.42 687.466 1006.75 687.61 1008.01 688.005C1009.27 688.401 1010.44 689.041 1011.45 689.889C1012.46 690.737 1013.29 691.775 1013.9 692.946C1014.51 694.116 1014.89 695.395 1015 696.71C1015.12 698.025 1014.97 699.35 1014.58 700.608C1014.18 701.867 1013.54 703.035 1012.69 704.046C1011.84 705.056 1010.8 705.89 1009.63 706.499C1008.46 707.107 1007.18 707.479 1005.86 707.593V707.593Z" fill="#F05E3C"/>
<path d="M992.349 752.327C986.984 753.738 968.873 748.116 968.873 748.116C968.873 748.116 981.875 734.311 987.239 732.9C989.815 732.223 992.555 732.596 994.856 733.939C997.157 735.281 998.83 737.483 999.507 740.059C1000.18 742.635 999.811 745.375 998.469 747.675C997.126 749.976 994.925 751.649 992.349 752.327V752.327Z" fill="#F05E3C"/>
<path opacity="0.25" d="M1006.89 610.07C1004.83 615.222 1008.2 633.884 1008.2 633.884C1008.2 633.884 1023.49 622.666 1025.54 617.514C1026.53 615.04 1026.49 612.277 1025.44 609.831C1024.39 607.385 1022.41 605.456 1019.93 604.47C1017.46 603.483 1014.7 603.519 1012.25 604.569C1009.8 605.619 1007.87 607.597 1006.89 610.07V610.07Z" fill="black"/>
<path opacity="0.25" d="M980.079 632.455C981.154 637.897 994.123 651.733 994.123 651.733C994.123 651.733 1000.86 634.006 999.786 628.564C999.53 627.27 999.022 626.039 998.291 624.941C997.56 623.844 996.62 622.901 995.524 622.167C994.428 621.432 993.199 620.921 991.906 620.662C990.612 620.403 989.281 620.401 987.987 620.656C986.693 620.912 985.462 621.42 984.364 622.151C983.266 622.882 982.323 623.822 981.589 624.918C980.855 626.014 980.344 627.243 980.084 628.537C979.825 629.83 979.823 631.162 980.079 632.455V632.455Z" fill="black"/>
<path opacity="0.25" d="M961.294 681.492C964.969 685.647 983.149 691.043 983.149 691.043C983.149 691.043 980.016 672.34 976.341 668.185C975.468 667.196 974.408 666.39 973.223 665.811C972.037 665.232 970.749 664.893 969.433 664.812C968.116 664.731 966.796 664.91 965.549 665.339C964.301 665.768 963.151 666.439 962.162 667.313C961.174 668.187 960.368 669.247 959.789 670.432C959.211 671.618 958.872 672.906 958.791 674.223C958.711 675.539 958.89 676.859 959.32 678.106C959.749 679.354 960.42 680.504 961.294 681.492V681.492Z" fill="black"/>
<path opacity="0.25" d="M955.436 721.794C958.356 726.511 975.363 734.901 975.363 734.901C975.363 734.901 975.436 715.938 972.516 711.221C971.822 710.099 970.914 709.125 969.843 708.353C968.773 707.582 967.561 707.03 966.276 706.727C964.992 706.425 963.661 706.378 962.359 706.59C961.056 706.802 959.809 707.269 958.687 707.963C957.565 708.658 956.591 709.567 955.82 710.638C955.05 711.709 954.498 712.921 954.196 714.205C953.894 715.49 953.848 716.821 954.061 718.123C954.274 719.426 954.741 720.673 955.436 721.794V721.794Z" fill="black"/>
<path opacity="0.25" d="M1013.31 660.546C1008.18 662.661 989.484 659.511 989.484 659.511C989.484 659.511 1000.52 644.092 1005.65 641.977C1008.11 640.961 1010.88 640.965 1013.34 641.988C1015.8 643.01 1017.75 644.969 1018.77 647.431C1019.78 649.893 1019.78 652.659 1018.76 655.118C1017.73 657.578 1015.77 659.53 1013.31 660.546V660.546Z" fill="black"/>
<path opacity="0.25" d="M1005.86 707.593C1000.34 708.077 983.437 699.476 983.437 699.476C983.437 699.476 998.584 688.067 1004.11 687.582C1005.42 687.466 1006.75 687.61 1008.01 688.005C1009.27 688.401 1010.44 689.041 1011.45 689.889C1012.46 690.737 1013.29 691.775 1013.9 692.946C1014.51 694.116 1014.89 695.395 1015 696.71C1015.12 698.025 1014.97 699.35 1014.58 700.608C1014.18 701.867 1013.54 703.035 1012.69 704.046C1011.84 705.056 1010.8 705.89 1009.63 706.499C1008.46 707.107 1007.18 707.479 1005.86 707.593V707.593Z" fill="black"/>
<path opacity="0.25" d="M992.349 752.327C986.984 753.738 968.873 748.116 968.873 748.116C968.873 748.116 981.875 734.311 987.239 732.9C989.815 732.223 992.555 732.596 994.856 733.939C997.157 735.281 998.83 737.483 999.507 740.059C1000.18 742.635 999.811 745.375 998.469 747.675C997.126 749.976 994.925 751.649 992.349 752.327V752.327Z" fill="black"/>
<path d="M956.733 766.634C956.733 766.634 998.42 744.531 1011.18 709.926C1016.44 695.377 1026.28 682.926 1039.21 674.444C1045.39 670.464 1051.91 667.059 1058.71 664.271" stroke="#535461" stroke-width="2" stroke-miterlimit="10"/>
<path d="M1066.88 642.511C1062.91 646.388 1058.43 664.814 1058.43 664.814C1058.43 664.814 1076.95 660.754 1080.92 656.877C1082.82 655.015 1083.91 652.473 1083.94 649.809C1083.97 647.146 1082.94 644.579 1081.08 642.674C1079.22 640.769 1076.68 639.682 1074.01 639.651C1071.35 639.621 1068.78 640.649 1066.88 642.511V642.511Z" fill="#F05E3C"/>
<path d="M1033.3 652.114C1032.08 657.524 1038.33 675.428 1038.33 675.428C1038.33 675.428 1051.67 661.952 1052.89 656.542C1053.18 655.255 1053.22 653.924 1052.99 652.624C1052.77 651.325 1052.29 650.081 1051.59 648.966C1050.89 647.851 1049.97 646.885 1048.89 646.124C1047.81 645.363 1046.6 644.822 1045.31 644.531C1044.02 644.241 1042.69 644.206 1041.39 644.43C1040.09 644.653 1038.85 645.131 1037.73 645.835C1036.62 646.539 1035.65 647.456 1034.89 648.533C1034.13 649.611 1033.59 650.827 1033.3 652.114V652.114Z" fill="#F05E3C"/>
<path d="M996.256 689.332C997.932 694.62 1012.37 706.92 1012.37 706.92C1012.37 706.92 1017.08 688.552 1015.41 683.264C1015.01 682.006 1014.36 680.84 1013.51 679.831C1012.67 678.822 1011.63 677.99 1010.46 677.382C1009.28 676.775 1008.01 676.404 1006.69 676.291C1005.38 676.178 1004.05 676.325 1002.8 676.723C1001.54 677.122 1000.37 677.764 999.363 678.613C998.354 679.463 997.522 680.502 996.915 681.673C996.308 682.844 995.937 684.123 995.824 685.437C995.711 686.751 995.858 688.075 996.256 689.332V689.332Z" fill="#F05E3C"/>
<path d="M974.569 723.804C975.327 729.298 987.475 743.861 987.475 743.861C987.475 743.861 995.226 726.553 994.468 721.058C994.288 719.752 993.852 718.493 993.186 717.355C992.519 716.217 991.635 715.221 990.584 714.425C989.532 713.629 988.334 713.047 987.058 712.714C985.782 712.38 984.453 712.301 983.146 712.481C981.84 712.662 980.581 713.098 979.443 713.764C978.305 714.431 977.309 715.315 976.513 716.366C975.716 717.417 975.135 718.615 974.801 719.892C974.468 721.168 974.389 722.497 974.569 723.804V723.804Z" fill="#F05E3C"/>
<path d="M1052.3 691.261C1046.75 691.117 1030.93 680.66 1030.93 680.66C1030.93 680.66 1047.28 671.037 1052.82 671.181C1055.48 671.25 1058.01 672.374 1059.84 674.306C1061.68 676.238 1062.67 678.819 1062.6 681.482C1062.53 684.145 1061.41 686.671 1059.48 688.505C1057.54 690.339 1054.96 691.331 1052.3 691.261H1052.3Z" fill="#F05E3C"/>
<path d="M1026.43 731.254C1021.18 729.458 1009.21 714.746 1009.21 714.746C1009.21 714.746 1027.68 710.453 1032.93 712.25C1035.45 713.112 1037.53 714.941 1038.7 717.333C1039.87 719.725 1040.04 722.485 1039.18 725.005C1038.32 727.525 1036.49 729.599 1034.1 730.771C1031.71 731.943 1028.95 732.117 1026.43 731.254V731.254Z" fill="#F05E3C"/>
<path d="M995.943 766.675C990.467 765.791 976.187 753.313 976.187 753.313C976.187 753.313 993.667 745.96 999.144 746.844C1001.77 747.268 1004.13 748.72 1005.69 750.88C1007.25 753.039 1007.88 755.73 1007.46 758.36C1007.03 760.989 1005.58 763.343 1003.42 764.902C1001.26 766.462 998.573 767.099 995.943 766.675V766.675Z" fill="#F05E3C"/>
<path d="M542.563 704.399C563.305 704.399 580.12 686.55 580.12 664.533C580.12 642.516 563.305 624.668 542.563 624.668C521.821 624.668 505.006 642.516 505.006 664.533C505.006 686.55 521.821 704.399 542.563 704.399Z" fill="#FBD56F"/>
<path opacity="0.1" d="M542.563 704.399C563.305 704.399 580.12 686.55 580.12 664.533C580.12 642.516 563.305 624.668 542.563 624.668C521.821 624.668 505.006 642.516 505.006 664.533C505.006 686.55 521.821 704.399 542.563 704.399Z" fill="black"/>
<path d="M549.045 704.399C569.787 704.399 586.602 686.948 586.602 665.421C586.602 643.895 569.787 626.444 549.045 626.444C528.303 626.444 511.488 643.895 511.488 665.421C511.488 686.948 528.303 704.399 549.045 704.399Z" fill="#FBD56F"/>
<path d="M564.257 700.744L560.35 698.569C560.35 698.569 558.523 706.194 559.12 711.628C559.179 712.179 559.405 712.699 559.769 713.117C560.133 713.535 560.617 713.832 561.154 713.966C570.141 716.198 612.975 725.707 642.429 712.314C642.857 712.119 643.226 711.816 643.5 711.435C643.775 711.055 643.945 710.609 643.995 710.142C644.356 706.802 643.077 699.911 642.567 698.569C641.468 695.679 564.257 700.744 564.257 700.744Z" fill="#FBD56F"/>
<path opacity="0.1" d="M564.257 700.744L560.35 698.569C560.35 698.569 558.523 706.194 559.12 711.628C559.179 712.179 559.405 712.699 559.769 713.117C560.133 713.535 560.617 713.832 561.154 713.966C570.141 716.198 612.975 725.707 642.429 712.314C642.857 712.119 643.226 711.816 643.5 711.435C643.775 711.055 643.945 710.609 643.995 710.142C644.356 706.802 643.077 699.911 642.567 698.569C641.468 695.679 564.257 700.744 564.257 700.744Z" fill="black"/>
<path d="M601.458 707.835C624.162 707.835 642.567 703.686 642.567 698.569C642.567 693.451 624.162 689.302 601.458 689.302C578.755 689.302 560.35 693.451 560.35 698.569C560.35 703.686 578.755 707.835 601.458 707.835Z" fill="#FBD56F"/>
<path d="M579.962 687.072L576.056 684.897C576.056 684.897 574.228 692.522 574.826 697.956C574.885 698.507 575.111 699.027 575.475 699.445C575.839 699.864 576.322 700.16 576.86 700.295C585.847 702.526 628.68 712.035 658.135 698.642C658.562 698.447 658.931 698.145 659.206 697.764C659.48 697.383 659.651 696.937 659.701 696.47C660.062 693.131 658.783 686.239 658.272 684.897C657.174 682.007 579.962 687.072 579.962 687.072Z" fill="#FBD56F"/>
<path opacity="0.1" d="M579.962 687.072L576.056 684.897C576.056 684.897 574.228 692.522 574.826 697.956C574.885 698.507 575.111 699.027 575.475 699.445C575.839 699.864 576.322 700.16 576.86 700.295C585.847 702.526 628.68 712.035 658.135 698.642C658.562 698.447 658.931 698.145 659.206 697.764C659.48 697.383 659.651 696.937 659.701 696.47C660.062 693.131 658.783 686.239 658.272 684.897C657.174 682.007 579.962 687.072 579.962 687.072Z" fill="black"/>
<path d="M617.164 694.163C639.868 694.163 658.272 690.014 658.272 684.897C658.272 679.779 639.868 675.63 617.164 675.63C594.461 675.63 576.056 679.779 576.056 684.897C576.056 690.014 594.461 694.163 617.164 694.163Z" fill="#FBD56F"/>
<path d="M593.847 669.103L589.94 666.928C589.94 666.928 588.113 674.553 588.71 679.987C588.769 680.539 588.996 681.058 589.36 681.477C589.723 681.895 590.207 682.191 590.745 682.326C599.732 684.558 642.565 694.066 672.02 680.673C672.447 680.479 672.816 680.176 673.09 679.795C673.365 679.414 673.535 678.968 673.585 678.501C673.947 675.162 672.668 668.271 672.157 666.928C671.058 664.039 593.847 669.103 593.847 669.103Z" fill="#FBD56F"/>
<path opacity="0.1" d="M593.847 669.103L589.94 666.928C589.94 666.928 588.113 674.553 588.71 679.987C588.769 680.539 588.996 681.058 589.36 681.477C589.723 681.895 590.207 682.191 590.745 682.326C599.732 684.558 642.565 694.066 672.02 680.673C672.447 680.479 672.816 680.176 673.09 679.795C673.365 679.414 673.535 678.968 673.585 678.501C673.947 675.162 672.668 668.271 672.157 666.928C671.058 664.039 593.847 669.103 593.847 669.103Z" fill="black"/>
<path d="M631.049 676.194C653.752 676.194 672.157 672.046 672.157 666.928C672.157 661.81 653.752 657.662 631.049 657.662C608.345 657.662 589.94 661.81 589.94 666.928C589.94 672.046 608.345 676.194 631.049 676.194Z" fill="#FBD56F"/>
<path d="M578.471 650.398L574.564 648.223C574.564 648.223 572.737 655.848 573.334 661.282C573.393 661.833 573.62 662.353 573.983 662.771C574.347 663.189 574.831 663.486 575.368 663.621C584.355 665.852 627.189 675.361 656.644 661.968C657.071 661.773 657.44 661.471 657.714 661.09C657.989 660.709 658.159 660.263 658.209 659.796C658.57 656.457 657.291 649.565 656.781 648.223C655.682 645.333 578.471 650.398 578.471 650.398Z" fill="#FBD56F"/>
<path opacity="0.1" d="M578.471 650.398L574.564 648.223C574.564 648.223 572.737 655.848 573.334 661.282C573.393 661.833 573.62 662.353 573.983 662.771C574.347 663.189 574.831 663.486 575.368 663.621C584.355 665.852 627.189 675.361 656.644 661.968C657.071 661.773 657.44 661.471 657.714 661.09C657.989 660.709 658.159 660.263 658.209 659.796C658.57 656.457 657.291 649.565 656.781 648.223C655.682 645.333 578.471 650.398 578.471 650.398Z" fill="black"/>
<path d="M615.672 657.489C638.376 657.489 656.781 653.34 656.781 648.223C656.781 643.105 638.376 638.956 615.672 638.956C592.969 638.956 574.564 643.105 574.564 648.223C574.564 653.34 592.969 657.489 615.672 657.489Z" fill="#FBD56F"/>
<path d="M613.062 635.387L609.155 633.212C609.155 633.212 607.328 640.837 607.925 646.271C607.984 646.822 608.211 647.342 608.574 647.76C608.938 648.178 609.422 648.475 609.959 648.609C618.946 650.841 661.78 660.35 691.235 646.957C691.662 646.762 692.031 646.459 692.305 646.078C692.58 645.698 692.75 645.252 692.8 644.785C693.161 641.445 691.882 634.554 691.372 633.212C690.273 630.322 613.062 635.387 613.062 635.387Z" fill="#FBD56F"/>
<path opacity="0.1" d="M613.062 635.387L609.155 633.212C609.155 633.212 607.328 640.837 607.925 646.271C607.984 646.822 608.211 647.342 608.574 647.76C608.938 648.178 609.422 648.475 609.959 648.609C618.946 650.841 661.78 660.35 691.235 646.957C691.662 646.762 692.031 646.459 692.305 646.078C692.58 645.698 692.75 645.252 692.8 644.785C693.161 641.445 691.882 634.554 691.372 633.212C690.273 630.322 613.062 635.387 613.062 635.387Z" fill="black"/>
<path d="M650.263 642.478C672.967 642.478 691.372 638.329 691.372 633.211C691.372 628.094 672.967 623.945 650.263 623.945C627.56 623.945 609.155 628.094 609.155 633.211C609.155 638.329 627.56 642.478 650.263 642.478Z" fill="#FBD56F"/>
<path d="M589.69 625.297L585.784 623.122C585.784 623.122 583.957 630.747 584.554 636.181C584.613 636.732 584.839 637.252 585.203 637.67C585.567 638.089 586.05 638.385 586.588 638.52C595.575 640.751 638.409 650.26 667.863 636.867C668.29 636.672 668.659 636.37 668.934 635.989C669.208 635.608 669.379 635.162 669.429 634.695C669.79 631.356 668.511 624.465 668.001 623.122C666.902 620.232 589.69 625.297 589.69 625.297Z" fill="#FBD56F"/>
<path opacity="0.1" d="M589.69 625.297L585.784 623.122C585.784 623.122 583.957 630.747 584.554 636.181C584.613 636.732 584.839 637.252 585.203 637.67C585.567 638.089 586.05 638.385 586.588 638.52C595.575 640.751 638.409 650.26 667.863 636.867C668.29 636.672 668.659 636.37 668.934 635.989C669.208 635.608 669.379 635.162 669.429 634.695C669.79 631.356 668.511 624.465 668.001 623.122C666.902 620.232 589.69 625.297 589.69 625.297Z" fill="black"/>
<path d="M626.892 632.388C649.596 632.388 668 628.24 668 623.122C668 618.004 649.596 613.855 626.892 613.855C604.189 613.855 585.784 618.004 585.784 623.122C585.784 628.24 604.189 632.388 626.892 632.388Z" fill="#FBD56F"/>
<path d="M605.294 605.819L601.388 603.644C601.388 603.644 599.56 611.269 600.158 616.703C600.216 617.254 600.443 617.774 600.807 618.192C601.171 618.61 601.654 618.907 602.192 619.041C611.179 621.273 654.012 630.782 683.467 617.389C683.894 617.194 684.263 616.891 684.538 616.511C684.812 616.13 684.983 615.684 685.033 615.217C685.394 611.878 684.115 604.986 683.604 603.644C682.506 600.754 605.294 605.819 605.294 605.819Z" fill="#FBD56F"/>
<path opacity="0.1" d="M605.294 605.819L601.388 603.644C601.388 603.644 599.56 611.269 600.158 616.703C600.216 617.254 600.443 617.774 600.807 618.192C601.171 618.61 601.654 618.907 602.192 619.041C611.179 621.273 654.012 630.782 683.467 617.389C683.894 617.194 684.263 616.891 684.538 616.511C684.812 616.13 684.983 615.684 685.033 615.217C685.394 611.878 684.115 604.986 683.604 603.644C682.506 600.754 605.294 605.819 605.294 605.819Z" fill="black"/>
<path d="M642.496 612.91C665.199 612.91 683.604 608.761 683.604 603.644C683.604 598.526 665.199 594.377 642.496 594.377C619.792 594.377 601.387 598.526 601.387 603.644C601.387 608.761 619.792 612.91 642.496 612.91Z" fill="#FBD56F"/>
<path d="M612.991 582.699L609.084 580.524C609.084 580.524 607.257 588.149 607.854 593.583C607.913 594.134 608.14 594.654 608.504 595.072C608.867 595.49 609.351 595.787 609.889 595.922C618.876 598.153 661.709 607.662 691.164 594.269C691.591 594.074 691.96 593.772 692.234 593.391C692.509 593.01 692.68 592.564 692.729 592.097C693.091 588.758 691.812 581.866 691.301 580.524C690.202 577.634 612.991 582.699 612.991 582.699Z" fill="#FBD56F"/>
<path opacity="0.1" d="M612.991 582.699L609.084 580.524C609.084 580.524 607.257 588.149 607.854 593.583C607.913 594.134 608.14 594.654 608.504 595.072C608.867 595.49 609.351 595.787 609.889 595.922C618.876 598.153 661.709 607.662 691.164 594.269C691.591 594.074 691.96 593.772 692.234 593.391C692.509 593.01 692.68 592.564 692.729 592.097C693.091 588.758 691.812 581.866 691.301 580.524C690.202 577.634 612.991 582.699 612.991 582.699Z" fill="black"/>
<path d="M650.193 589.79C672.896 589.79 691.301 585.641 691.301 580.524C691.301 575.406 672.896 571.257 650.193 571.257C627.489 571.257 609.084 575.406 609.084 580.524C609.084 585.641 627.489 589.79 650.193 589.79Z" fill="#FBD56F"/>
<path d="M682.386 706.106L678.479 703.931C678.479 703.931 676.652 711.556 677.249 716.99C677.308 717.541 677.534 718.061 677.898 718.479C678.262 718.897 678.745 719.194 679.283 719.329C688.27 721.56 731.104 731.069 760.558 717.676C760.985 717.481 761.354 717.179 761.629 716.798C761.903 716.417 762.074 715.971 762.124 715.504C762.485 712.165 761.206 705.273 760.696 703.931C759.597 701.041 682.386 706.106 682.386 706.106Z" fill="#FBD56F"/>
<path opacity="0.1" d="M682.386 706.106L678.479 703.931C678.479 703.931 676.652 711.556 677.249 716.99C677.308 717.541 677.534 718.061 677.898 718.479C678.262 718.897 678.745 719.194 679.283 719.329C688.27 721.56 731.104 731.069 760.558 717.676C760.985 717.481 761.354 717.179 761.629 716.798C761.903 716.417 762.074 715.971 762.124 715.504C762.485 712.165 761.206 705.273 760.696 703.931C759.597 701.041 682.386 706.106 682.386 706.106Z" fill="black"/>
<path d="M719.587 713.197C742.291 713.197 760.696 709.048 760.696 703.931C760.696 698.813 742.291 694.664 719.587 694.664C696.884 694.664 678.479 698.813 678.479 703.931C678.479 709.048 696.884 713.197 719.587 713.197Z" fill="#FBD56F"/>
<path d="M696.27 688.137L692.364 685.962C692.364 685.962 690.536 693.587 691.134 699.021C691.193 699.572 691.419 700.092 691.783 700.51C692.147 700.929 692.63 701.225 693.168 701.36C702.155 703.591 744.988 713.1 774.443 699.707C774.87 699.512 775.239 699.21 775.514 698.829C775.788 698.448 775.959 698.002 776.009 697.535C776.37 694.196 775.091 687.304 774.58 685.962C773.482 683.072 696.27 688.137 696.27 688.137Z" fill="#FBD56F"/>
<path opacity="0.1" d="M696.27 688.137L692.364 685.962C692.364 685.962 690.536 693.587 691.134 699.021C691.193 699.572 691.419 700.092 691.783 700.51C692.147 700.929 692.63 701.225 693.168 701.36C702.155 703.591 744.988 713.1 774.443 699.707C774.87 699.512 775.239 699.21 775.514 698.829C775.788 698.448 775.959 698.002 776.009 697.535C776.37 694.196 775.091 687.304 774.58 685.962C773.482 683.072 696.27 688.137 696.27 688.137Z" fill="black"/>
<path d="M733.472 695.228C756.175 695.228 774.58 691.08 774.58 685.962C774.58 680.844 756.175 676.696 733.472 676.696C710.768 676.696 692.364 680.844 692.364 685.962C692.364 691.08 710.768 695.228 733.472 695.228Z" fill="#FBD56F"/>
<path d="M680.894 669.432L676.987 667.256C676.987 667.256 675.16 674.882 675.757 680.316C675.816 680.867 676.043 681.387 676.407 681.805C676.771 682.223 677.254 682.52 677.792 682.654C686.779 684.886 729.612 694.395 759.067 681.002C759.494 680.807 759.863 680.504 760.137 680.123C760.412 679.742 760.583 679.297 760.632 678.83C760.994 675.49 759.715 668.599 759.204 667.257C758.105 664.367 680.894 669.432 680.894 669.432Z" fill="#FBD56F"/>
<path opacity="0.1" d="M680.894 669.432L676.987 667.256C676.987 667.256 675.16 674.882 675.757 680.316C675.816 680.867 676.043 681.387 676.407 681.805C676.771 682.223 677.254 682.52 677.792 682.654C686.779 684.886 729.612 694.395 759.067 681.002C759.494 680.807 759.863 680.504 760.137 680.123C760.412 679.742 760.583 679.297 760.632 678.83C760.994 675.49 759.715 668.599 759.204 667.257C758.105 664.367 680.894 669.432 680.894 669.432Z" fill="black"/>
<path d="M718.096 676.523C740.799 676.523 759.204 672.374 759.204 667.257C759.204 662.139 740.799 657.99 718.096 657.99C695.392 657.99 676.987 662.139 676.987 667.257C676.987 672.374 695.392 676.523 718.096 676.523Z" fill="#FBD56F"/>
<path d="M715.485 654.421L711.578 652.245C711.578 652.245 709.751 659.871 710.348 665.305C710.407 665.856 710.634 666.376 710.998 666.794C711.362 667.212 711.845 667.508 712.383 667.643C721.37 669.875 764.203 679.383 793.658 665.991C794.085 665.796 794.454 665.493 794.729 665.112C795.003 664.731 795.174 664.285 795.223 663.819C795.585 660.479 794.306 653.588 793.795 652.245C792.697 649.356 715.485 654.421 715.485 654.421Z" fill="#FBD56F"/>
<path opacity="0.1" d="M715.485 654.421L711.578 652.245C711.578 652.245 709.751 659.871 710.348 665.305C710.407 665.856 710.634 666.376 710.998 666.794C711.362 667.212 711.845 667.508 712.383 667.643C721.37 669.875 764.203 679.383 793.658 665.991C794.085 665.796 794.454 665.493 794.729 665.112C795.003 664.731 795.174 664.285 795.223 663.819C795.585 660.479 794.306 653.588 793.795 652.245C792.697 649.356 715.485 654.421 715.485 654.421Z" fill="black"/>
<path d="M752.687 661.512C775.39 661.512 793.795 657.363 793.795 652.245C793.795 647.128 775.39 642.979 752.687 642.979C729.983 642.979 711.578 647.128 711.578 652.245C711.578 657.363 729.983 661.512 752.687 661.512Z" fill="#FBD56F"/>
<path d="M692.114 644.331L688.207 642.156C688.207 642.156 686.38 649.781 686.977 655.215C687.036 655.766 687.263 656.286 687.626 656.704C687.99 657.122 688.474 657.419 689.011 657.553C697.998 659.785 740.832 669.294 770.287 655.901C770.714 655.706 771.083 655.403 771.357 655.023C771.632 654.642 771.802 654.196 771.852 653.729C772.213 650.389 770.934 643.498 770.424 642.156C769.325 639.266 692.114 644.331 692.114 644.331Z" fill="#FBD56F"/>
<path opacity="0.1" d="M692.114 644.331L688.207 642.156C688.207 642.156 686.38 649.781 686.977 655.215C687.036 655.766 687.263 656.286 687.626 656.704C687.99 657.122 688.474 657.419 689.011 657.553C697.998 659.785 740.832 669.294 770.287 655.901C770.714 655.706 771.083 655.403 771.357 655.023C771.632 654.642 771.802 654.196 771.852 653.729C772.213 650.389 770.934 643.498 770.424 642.156C769.325 639.266 692.114 644.331 692.114 644.331Z" fill="black"/>
<path d="M729.315 651.422C752.019 651.422 770.424 647.273 770.424 642.156C770.424 637.038 752.019 632.889 729.315 632.889C706.612 632.889 688.207 637.038 688.207 642.156C688.207 647.273 706.612 651.422 729.315 651.422Z" fill="#FBD56F"/>
<path d="M707.717 624.853L703.811 622.678C703.811 622.678 701.984 630.303 702.581 635.737C702.64 636.288 702.866 636.808 703.23 637.226C703.594 637.644 704.077 637.941 704.615 638.075C713.602 640.307 756.436 649.816 785.89 636.423C786.318 636.228 786.686 635.925 786.961 635.544C787.235 635.164 787.406 634.718 787.456 634.251C787.817 630.911 786.538 624.02 786.028 622.678C784.929 619.788 707.717 624.853 707.717 624.853Z" fill="#FBD56F"/>
<path opacity="0.1" d="M707.717 624.853L703.811 622.678C703.811 622.678 701.984 630.303 702.581 635.737C702.64 636.288 702.866 636.808 703.23 637.226C703.594 637.644 704.077 637.941 704.615 638.075C713.602 640.307 756.436 649.816 785.89 636.423C786.318 636.228 786.686 635.925 786.961 635.544C787.235 635.164 787.406 634.718 787.456 634.251C787.817 630.911 786.538 624.02 786.028 622.678C784.929 619.788 707.717 624.853 707.717 624.853Z" fill="black"/>
<path d="M744.919 631.944C767.623 631.944 786.028 627.795 786.028 622.678C786.028 617.56 767.623 613.411 744.919 613.411C722.216 613.411 703.811 617.56 703.811 622.678C703.811 627.795 722.216 631.944 744.919 631.944Z" fill="#FBD56F"/>
<path d="M715.414 601.733L711.508 599.558C711.508 599.558 709.68 607.183 710.278 612.617C710.336 613.168 710.563 613.688 710.927 614.106C711.291 614.524 711.774 614.821 712.312 614.956C721.299 617.187 764.132 626.696 793.587 613.303C794.014 613.108 794.383 612.805 794.658 612.425C794.932 612.044 795.103 611.598 795.153 611.131C795.514 607.792 794.235 600.9 793.724 599.558C792.626 596.668 715.414 601.733 715.414 601.733Z" fill="#FBD56F"/>
<path opacity="0.1" d="M715.414 601.733L711.508 599.558C711.508 599.558 709.68 607.183 710.278 612.617C710.336 613.168 710.563 613.688 710.927 614.106C711.291 614.524 711.774 614.821 712.312 614.956C721.299 617.187 764.132 626.696 793.587 613.303C794.014 613.108 794.383 612.805 794.658 612.425C794.932 612.044 795.103 611.598 795.153 611.131C795.514 607.792 794.235 600.9 793.724 599.558C792.626 596.668 715.414 601.733 715.414 601.733Z" fill="black"/>
<path d="M752.616 608.824C775.32 608.824 793.724 604.675 793.724 599.558C793.724 594.44 775.32 590.291 752.616 590.291C729.912 590.291 711.508 594.44 711.508 599.558C711.508 604.675 729.912 608.824 752.616 608.824Z" fill="#FBD56F"/>
<path opacity="0.1" d="M883.472 744.381C889.72 742.209 926.295 741.365 932.306 741.241C928.758 737.374 926.143 734.226 926.143 734.226C926.143 734.226 896.347 733.626 887.748 738.426C885.768 739.534 884.4 741.701 883.472 744.381Z" fill="black"/>
<path opacity="0.1" d="M908.745 597.845C908.745 597.845 896.147 602.044 892.747 608.043C889.347 614.043 908.745 597.845 908.745 597.845Z" fill="black"/>
<path opacity="0.1" d="M902.346 584.646C901.946 585.246 885.091 602.16 886.148 606.244C887.205 610.328 902.346 584.646 902.346 584.646Z" fill="black"/>
<path opacity="0.1" d="M808.558 608.043C808.558 608.043 791.594 615.242 789.278 617.042C786.961 618.842 808.558 608.043 808.558 608.043Z" fill="black"/>
<path opacity="0.1" d="M800.759 623.441C800.759 623.441 793.246 629.041 789.104 624.641C784.962 620.242 800.759 623.441 800.759 623.441Z" fill="black"/>
<path d="M627.879 761.276C648.621 761.276 665.436 743.428 665.436 721.411C665.436 699.393 648.621 681.545 627.879 681.545C607.137 681.545 590.322 699.393 590.322 721.411C590.322 743.428 607.137 761.276 627.879 761.276Z" fill="#FBD56F"/>
<path opacity="0.1" d="M627.879 761.276C648.621 761.276 665.436 743.428 665.436 721.411C665.436 699.393 648.621 681.545 627.879 681.545C607.137 681.545 590.322 699.393 590.322 721.411C590.322 743.428 607.137 761.276 627.879 761.276Z" fill="black"/>
<path d="M634.36 761.276C655.102 761.276 671.917 743.825 671.917 722.299C671.917 700.772 655.102 683.321 634.36 683.321C613.618 683.321 596.803 700.772 596.803 722.299C596.803 743.825 613.618 761.276 634.36 761.276Z" fill="#FBD56F"/>
<path d="M90.1428 743.318C115.761 743.318 136.528 739.807 136.528 735.477C136.528 731.146 115.761 727.635 90.1428 727.635C64.5247 727.635 43.7571 731.146 43.7571 735.477C43.7571 739.807 64.5247 743.318 90.1428 743.318Z" fill="#F05E3C"/>
<path d="M109.323 722.648C111.31 720.802 113.173 718.625 113.745 715.974C114.318 713.324 113.188 710.145 110.655 709.177C107.817 708.091 104.784 710.059 102.485 712.045C100.185 714.031 97.5502 716.299 94.5408 715.878C96.0888 714.475 97.247 712.695 97.9024 710.712C98.5579 708.728 98.6883 706.608 98.281 704.559C98.1489 703.713 97.7894 702.919 97.2408 702.261C95.6654 700.576 92.8093 701.3 90.9228 702.627C84.9237 706.846 83.2497 714.995 83.2171 722.33C82.6121 719.684 83.1216 716.927 83.1067 714.214C83.0918 711.5 82.3481 708.491 80.0587 707.034C78.6326 706.266 77.0288 705.889 75.4099 705.941C72.7132 705.842 69.7097 706.112 67.8681 708.085C65.5798 710.535 66.1733 714.647 68.164 717.345C70.1547 720.043 73.1828 721.733 75.97 723.597C78.2058 724.929 80.1126 726.747 81.5484 728.918C81.7172 729.22 81.8557 729.539 81.962 729.868H98.868C102.663 727.945 106.18 725.516 109.323 722.648V722.648Z" fill="#F05E3C"/>
<path d="M509.621 684.344C511.688 687.173 513.378 690.259 514.649 693.524C514.985 694.369 515.314 695.256 515.625 696.186C520.622 711.121 512.704 729.031 510.44 727.099C508.176 725.167 501.122 721.583 499.758 726.62C498.393 731.657 493.355 736.805 493.355 736.805C484.174 746.039 475.865 736.062 470.41 725.755C468.628 722.354 467.044 718.853 465.665 715.27C464.454 712.104 463.758 709.916 463.758 709.916L501.995 677.337C501.995 677.337 505.692 679.034 509.621 684.344Z" fill="#F05E3C"/>
<path d="M449.357 705.176C451.424 708.006 453.114 711.092 454.385 714.357C454.721 715.201 455.049 716.088 455.361 717.018C460.358 731.953 452.439 749.863 450.176 747.931C447.912 746 440.857 742.415 439.493 747.452C438.129 752.489 433.091 757.637 433.091 757.637C423.91 766.871 415.601 756.895 410.146 746.587C408.364 743.186 406.78 739.685 405.401 736.102C404.19 732.936 403.494 730.748 403.494 730.748L441.731 698.17C441.731 698.17 445.428 699.867 449.357 705.176Z" fill="#F05E3C"/>
<path d="M328.354 733.956C328.139 737.453 327.471 740.907 326.366 744.232C326.085 745.096 325.773 745.989 325.418 746.904C319.734 761.591 302.208 770.326 301.698 767.394C301.188 764.462 298.045 757.201 293.78 760.208C289.515 763.215 282.35 763.963 282.35 763.963C269.39 765.213 269.359 752.229 271.738 740.813C272.537 737.057 273.551 733.351 274.777 729.712C275.864 726.502 276.725 724.374 276.725 724.374L326.954 723.695C326.954 723.695 328.717 727.36 328.354 733.956Z" fill="#F05E3C"/>
<path d="M263.455 717.588C263.24 721.085 262.572 724.539 261.467 727.864C261.187 728.728 260.874 729.621 260.519 730.536C254.835 745.224 237.309 753.958 236.799 751.026C236.289 748.094 233.146 740.833 228.881 743.84C224.616 746.847 217.451 747.595 217.451 747.595C204.491 748.845 204.46 735.862 206.84 724.445C207.638 720.689 208.652 716.983 209.878 713.344C210.966 710.134 211.826 708.006 211.826 708.006L262.056 707.327C262.056 707.327 263.818 710.992 263.455 717.588Z" fill="#F05E3C"/>
<path opacity="0.2" d="M509.621 684.344C511.688 687.173 513.378 690.259 514.649 693.524C514.985 694.369 515.314 695.256 515.625 696.186C520.622 711.121 512.704 729.031 510.44 727.099C508.176 725.167 501.122 721.583 499.758 726.62C498.393 731.657 493.355 736.805 493.355 736.805C484.174 746.039 475.865 736.062 470.41 725.755C468.628 722.354 467.044 718.853 465.665 715.27C464.454 712.104 463.758 709.916 463.758 709.916L501.995 677.337C501.995 677.337 505.692 679.034 509.621 684.344Z" fill="black"/>
<path opacity="0.2" d="M449.357 705.176C451.424 708.006 453.114 711.092 454.385 714.357C454.721 715.201 455.049 716.088 455.361 717.018C460.358 731.953 452.439 749.863 450.176 747.931C447.912 746 440.857 742.415 439.493 747.452C438.129 752.489 433.091 757.637 433.091 757.637C423.91 766.871 415.601 756.895 410.146 746.587C408.364 743.186 406.78 739.685 405.401 736.102C404.19 732.936 403.494 730.748 403.494 730.748L441.731 698.17C441.731 698.17 445.428 699.867 449.357 705.176Z" fill="black"/>
<path opacity="0.2" d="M328.354 733.956C328.139 737.453 327.471 740.907 326.366 744.232C326.085 745.096 325.773 745.989 325.418 746.904C319.734 761.591 302.208 770.326 301.698 767.394C301.188 764.462 298.045 757.201 293.78 760.208C289.515 763.215 282.35 763.963 282.35 763.963C269.39 765.213 269.359 752.229 271.738 740.813C272.537 737.057 273.551 733.351 274.777 729.712C275.864 726.502 276.725 724.374 276.725 724.374L326.954 723.695C326.954 723.695 328.717 727.36 328.354 733.956Z" fill="black"/>
<path opacity="0.2" d="M263.455 717.588C263.24 721.085 262.572 724.539 261.467 727.864C261.187 728.728 260.874 729.621 260.519 730.536C254.835 745.224 237.309 753.958 236.799 751.026C236.289 748.094 233.146 740.833 228.881 743.84C224.616 746.847 217.451 747.595 217.451 747.595C204.491 748.845 204.46 735.862 206.84 724.445C207.638 720.689 208.652 716.983 209.878 713.344C210.966 710.134 211.826 708.006 211.826 708.006L262.056 707.327C262.056 707.327 263.818 710.992 263.455 717.588Z" fill="black"/>
<path d="M611.616 497.454C611.616 631.613 566.232 740.37 356.796 740.37C216.063 740.37 107.184 705.402 101.976 497.454C98.6168 363.337 216.063 254.538 356.796 254.538C497.529 254.538 611.616 363.295 611.616 497.454Z" fill="#F05E3C"/>
<path opacity="0.2" d="M308.994 258.779H309.024C309.017 258.783 309.009 258.785 309.001 258.786L308.994 258.779Z" fill="black"/>
<path opacity="0.2" d="M309.492 258.697C310.14 258.593 311.419 258.414 313.279 258.273L309.135 258.764C309.195 258.749 309.269 258.734 309.358 258.719C309.403 258.712 309.44 258.704 309.492 258.697Z" fill="black"/>
<path opacity="0.2" d="M497.784 357.954L479.184 364.65C469.702 351.934 459.5 339.772 448.628 328.224C436.761 315.567 423.814 303.968 409.932 293.561C362.309 258.265 325.474 257.365 313.309 258.273L341.269 254.984C367.694 259.531 393.106 268.717 416.331 282.118C432.579 291.484 447.712 302.664 461.44 315.442C485.783 338.037 497.784 357.954 497.784 357.954Z" fill="black"/>
<path opacity="0.2" d="M329.64 370.602C329.64 370.602 305.088 288.762 325.92 266.442C325.92 266.442 358.656 255.282 383.208 318.522L329.64 370.602Z" fill="black"/>
<path d="M453.962 294.163C453.962 294.163 519.071 238.834 547.875 248.959C547.875 248.959 571.233 274.465 523.161 322.331L453.962 294.163Z" fill="#F05E3C"/>
<path opacity="0.2" d="M453.962 294.163C453.962 294.163 519.071 238.834 547.875 248.959C547.875 248.959 571.233 274.465 523.161 322.331L453.962 294.163Z" fill="black"/>
<path d="M657 559.206C657 631.319 605.252 688.29 556.56 688.29C507.868 688.29 480.672 631.319 480.672 559.206C480.672 487.093 520.226 431.452 568.836 428.634C645.84 424.17 657 487.093 657 559.206Z" fill="#F05E3C"/>
<path opacity="0.2" d="M657 559.206C657 631.319 605.252 688.29 556.56 688.29C507.868 688.29 480.672 631.319 480.672 559.206C480.672 487.093 520.226 431.452 568.836 428.634C645.84 424.17 657 487.093 657 559.206Z" fill="black"/>
<path d="M553.584 590.826C562.624 590.826 569.952 581.499 569.952 569.994C569.952 558.489 562.624 549.162 553.584 549.162C544.544 549.162 537.216 558.489 537.216 569.994C537.216 581.499 544.544 590.826 553.584 590.826Z" fill="#F05E3C"/>
<path d="M611.616 572.97C620.656 572.97 627.984 563.643 627.984 552.138C627.984 540.633 620.656 531.306 611.616 531.306C602.576 531.306 595.248 540.633 595.248 552.138C595.248 563.643 602.576 572.97 611.616 572.97Z" fill="#F05E3C"/>
<path d="M464.616 302.005C464.628 306.671 463.539 311.274 461.439 315.442C458.668 320.979 454.171 325.465 448.628 328.224C436.761 315.567 423.814 303.968 409.932 293.561C411.169 289.31 413.357 285.397 416.331 282.118C418.895 279.26 422.03 276.972 425.534 275.402C429.038 273.832 432.832 273.015 436.672 273.004C452.102 273.004 464.616 285.987 464.616 302.005Z" fill="#FAD46F"/>
<path d="M950.093 191H924.707C923.6 190.999 922.539 190.559 921.757 189.776C920.975 188.994 920.534 187.933 920.533 186.827V150.333C920.534 149.227 920.975 148.166 921.757 147.384C922.539 146.601 923.6 146.161 924.707 146.16H950.093C951.2 146.161 952.261 146.601 953.043 147.384C953.825 148.166 954.265 149.227 954.267 150.333V186.827C954.265 187.933 953.825 188.994 953.043 189.776C952.261 190.559 951.2 190.999 950.093 191V191ZM924.707 148.16C924.13 148.161 923.578 148.39 923.171 148.797C922.763 149.205 922.534 149.757 922.533 150.333V186.827C922.534 187.403 922.763 187.955 923.171 188.363C923.578 188.77 924.13 188.999 924.707 189H950.093C950.669 188.999 951.222 188.77 951.629 188.363C952.037 187.955 952.266 187.403 952.267 186.827V150.333C952.266 149.757 952.037 149.205 951.629 148.797C951.222 148.39 950.669 148.161 950.093 148.16H924.707Z" fill="#3F3D56"/>
<path d="M996.463 191H973.537C972.104 190.998 970.731 190.428 969.718 189.415C968.705 188.402 968.135 187.029 968.133 185.596V111.897C968.135 110.464 968.705 109.091 969.718 108.078C970.731 107.065 972.104 106.495 973.537 106.493H996.463C997.896 106.495 999.269 107.065 1000.28 108.078C1001.3 109.091 1001.87 110.464 1001.87 111.897V185.596C1001.87 187.029 1001.3 188.402 1000.28 189.415C999.269 190.428 997.896 190.998 996.463 191V191ZM973.537 108.493C972.635 108.494 971.769 108.853 971.131 109.491C970.493 110.129 970.134 110.995 970.133 111.897V185.596C970.134 186.499 970.493 187.364 971.131 188.002C971.769 188.64 972.635 188.999 973.537 189H996.463C997.365 188.999 998.231 188.64 998.869 188.002C999.507 187.364 999.866 186.499 999.867 185.596V111.897C999.866 110.995 999.507 110.129 998.869 109.491C998.231 108.853 997.365 108.494 996.463 108.493L973.537 108.493Z" fill="#3F3D56"/>
<path d="M1043.18 191H1022.02C1020.36 190.998 1018.76 190.335 1017.58 189.156C1016.4 187.977 1015.74 186.378 1015.73 184.711V76.2891C1015.74 74.6217 1016.4 73.0231 1017.58 71.8441C1018.76 70.6651 1020.36 70.0019 1022.02 70H1043.18C1044.85 70.0019 1046.44 70.6651 1047.62 71.8441C1048.8 73.0231 1049.46 74.6217 1049.47 76.2891V184.711C1049.46 186.378 1048.8 187.977 1047.62 189.156C1046.44 190.335 1044.85 190.998 1043.18 191V191ZM1022.02 72C1020.89 72.0013 1019.8 72.4536 1018.99 73.2577C1018.19 74.0617 1017.73 75.1519 1017.73 76.2891V184.711C1017.73 185.848 1018.19 186.938 1018.99 187.742C1019.8 188.546 1020.89 188.999 1022.02 189H1043.18C1044.31 188.999 1045.41 188.546 1046.21 187.742C1047.01 186.938 1047.47 185.848 1047.47 184.711V76.2891C1047.47 75.1519 1047.01 74.0617 1046.21 73.2577C1045.41 72.4536 1044.31 72.0013 1043.18 72H1022.02Z" fill="#3F3D56"/>
<path d="M946.92 153.11H927.88V184.05H946.92V153.11Z" fill="#F05E3C"/>
<path d="M994.52 113.84H975.48V184.05H994.52V113.84Z" fill="#F05E3C"/>
<path d="M1042.12 77.3467H1023.08V184.05H1042.12V77.3467Z" fill="#F05E3C"/>
<path d="M1063 205H905C904.869 205 904.739 204.974 904.617 204.924C904.496 204.874 904.386 204.8 904.293 204.707C904.2 204.614 904.126 204.504 904.076 204.383C904.026 204.261 904 204.131 904 204V47C904 46.7348 904.105 46.4804 904.293 46.2929C904.48 46.1054 904.735 46 905 46C905.265 46 905.52 46.1054 905.707 46.2929C905.895 46.4804 906 46.7348 906 47V203H1063C1063.27 203 1063.52 203.105 1063.71 203.293C1063.89 203.48 1064 203.735 1064 204C1064 204.265 1063.89 204.52 1063.71 204.707C1063.52 204.895 1063.27 205 1063 205Z" fill="#3F3D56"/>
<path d="M144 230C199.228 230 244 185.228 244 130C244 74.7715 199.228 30 144 30C88.7715 30 44 74.7715 44 130C44 185.228 88.7715 230 144 230Z" fill="#3F3D56"/>
<path opacity="0.1" d="M144 216C191.496 216 230 177.496 230 130C230 82.5035 191.496 44 144 44C96.5035 44 58 82.5035 58 130C58 177.496 96.5035 216 144 216Z" fill="black"/>
<path d="M139.879 180.748V168.231C133.552 168.107 127.006 165.876 123.188 162.778L125.806 154.475C130.343 157.875 135.846 159.741 141.515 159.803C149.261 159.803 154.498 154.722 154.498 147.658C154.498 140.842 150.243 136.628 142.17 132.91C131.042 127.953 124.17 122.252 124.17 111.47C124.17 101.184 130.606 93.3759 140.643 91.5171V79H147.406V91.0215C152.45 91.0903 157.37 92.5949 161.589 95.3588L158.861 103.539C154.814 100.769 150.019 99.2985 145.116 99.3246C136.716 99.3246 133.552 105.025 133.552 109.983C133.552 116.427 137.588 119.649 147.079 124.111C158.316 129.316 163.989 135.761 163.989 146.79C163.989 156.581 157.989 165.752 146.752 167.858V180.748H139.879Z" fill="#F05E3C"/>
</g>
<defs>
<clipPath id="clip0">
<rect width="1118" height="802.819" fill="white"/>
</clipPath>
</defs>
</svg>
