<svg width="877" height="640" viewBox="0 0 877 640" fill="none" xmlns="http://www.w3.org/2000/svg">
<g clip-path="url(#clip0)">
<path d="M645 0.365723H0.275299V413.276H645V0.365723Z" fill="#E6E6E6"/>
<path d="M626.564 52.1548H18.7111V388.848H626.564V52.1548Z" fill="white"/>
<path d="M644.725 0H0V27.3903H644.725V0Z" fill="#F05E3C"/>
<path d="M20.3542 19.0799C23.158 19.0799 25.4308 16.807 25.4308 14.0033C25.4308 11.1996 23.158 8.92676 20.3542 8.92676C17.5505 8.92676 15.2777 11.1996 15.2777 14.0033C15.2777 16.807 17.5505 19.0799 20.3542 19.0799Z" fill="white"/>
<path d="M39.6236 19.0799C42.4273 19.0799 44.7002 16.807 44.7002 14.0033C44.7002 11.1996 42.4273 8.92676 39.6236 8.92676C36.8199 8.92676 34.5471 11.1996 34.5471 14.0033C34.5471 16.807 36.8199 19.0799 39.6236 19.0799Z" fill="white"/>
<path d="M58.893 19.0799C61.6967 19.0799 63.9696 16.807 63.9696 14.0033C63.9696 11.1996 61.6967 8.92676 58.893 8.92676C56.0893 8.92676 53.8165 11.1996 53.8165 14.0033C53.8165 16.807 56.0893 19.0799 58.893 19.0799Z" fill="white"/>
<path d="M212.388 79.8477H93.5006V208.829H212.388V79.8477Z" fill="#E6E6E6"/>
<path d="M382.08 79.8477H263.193V208.829H382.08V79.8477Z" fill="#E6E6E6"/>
<path d="M551.772 79.8477H432.885V208.829H551.772V79.8477Z" fill="#E6E6E6"/>
<path d="M212.388 232.176H93.5006V361.158H212.388V232.176Z" fill="#E6E6E6"/>
<path d="M382.08 232.176H263.193V361.158H382.08V232.176Z" fill="#E6E6E6"/>
<path d="M551.772 232.176H432.885V361.158H551.772V232.176Z" fill="#E6E6E6"/>
<path d="M613 612.618L532.578 629.079L530.745 628.892L460.071 621.759V532.196L546.587 517.569L609.346 524.888L609.369 525.285V525.472L613 612.618Z" fill="#E6E6E6"/>
<path opacity="0.1" d="M613 612.618L532.578 629.079L530.745 628.892V537.076L609.369 525.285L613 612.618Z" fill="black"/>
<path opacity="0.05" d="M609.369 525.472L609.346 525.495L530.745 537.076L460.071 532.196L546.587 517.569L609.346 524.888L609.369 525.285V525.472Z" fill="black"/>
<path d="M518.697 566.645L469.801 563.453L468.303 586.405L517.199 589.596L518.697 566.645Z" fill="white"/>
<path d="M506.733 573.38L480.788 571.687L480.267 579.67L506.212 581.363L506.733 573.38Z" fill="#F05E3C"/>
<path d="M722 612.618L641.578 629.079L639.745 628.892L569.071 621.759V532.196L655.587 517.569L718.346 524.888L718.369 525.285V525.472L722 612.618Z" fill="#F05E3C"/>
<path opacity="0.1" d="M722 612.618L641.578 629.079L639.745 628.892V537.076L718.369 525.285L722 612.618Z" fill="black"/>
<path opacity="0.05" d="M718.369 525.472L718.346 525.495L639.745 537.076L569.071 532.196L655.587 517.569L718.346 524.888L718.369 525.285V525.472Z" fill="black"/>
<path d="M627.697 566.645L578.801 563.453L577.303 586.405L626.199 589.596L627.697 566.645Z" fill="white"/>
<path d="M615.733 573.38L589.788 571.687L589.267 579.67L615.212 581.363L615.733 573.38Z" fill="#F05E3C"/>
<path d="M780.195 165.621C780.195 165.621 794.384 202.277 768.37 202.277C742.356 202.277 808.574 238.934 834.588 217.65C860.602 196.365 845.23 195.183 845.23 195.183C845.23 195.183 810.939 198.73 812.121 167.986L780.195 165.621Z" fill="#FFB8B8"/>
<path d="M798.679 176.655C821.776 176.655 840.499 157.931 840.499 134.835C840.499 111.739 821.776 93.0156 798.679 93.0156C775.583 93.0156 756.86 111.739 756.86 134.835C756.86 157.931 775.583 176.655 798.679 176.655Z" fill="#2F2E41"/>
<path d="M773.1 318.159L728.166 434.04C728.166 434.04 705.7 469.514 713.977 504.988C722.254 540.462 745 605.025 745 605.025C745 605.025 762.183 609.397 761 594.025C759.818 578.653 761.737 504.126 744 484.025L815.669 402.114L818.034 495.528C818.034 495.528 813.304 538.097 814.486 557.017C815.669 575.936 818.034 607.863 818.034 607.863L832.223 605.498C832.223 605.498 851.365 518.404 849 490.025C849 490.025 892.934 352.134 848 319.025L773.1 318.159Z" fill="#2F2E41"/>
<path d="M749.94 604.832C749.94 604.832 744.154 603.359 743.488 608.665C742.821 613.971 730.652 637.569 743.357 638.75C756.062 639.931 760.457 628.045 762.585 619.688C764.713 611.332 765.519 610.852 767.296 609.251C769.073 607.65 773.302 598.878 767.995 598.212C762.689 597.545 759.969 592.327 759.969 592.327C759.969 592.327 758.296 606.96 749.94 604.832Z" fill="#2F2E41"/>
<path d="M827.297 600.728C827.297 600.728 816.567 599.196 817.333 603.028C818.1 606.86 815.801 622.954 817.333 624.487C818.866 626.02 821.932 629.085 821.932 631.385C821.932 633.684 822.698 641.348 835.727 639.049C848.756 636.75 845.69 625.253 844.924 623.721C844.158 622.188 834.961 614.524 835.727 609.925C836.494 605.327 831.895 597.663 827.297 600.728Z" fill="#2F2E41"/>
<path d="M799.196 181.242C815.193 181.242 828.162 168.274 828.162 152.276C828.162 136.279 815.193 123.31 799.196 123.31C783.198 123.31 770.229 136.279 770.229 152.276C770.229 168.274 783.198 181.242 799.196 181.242Z" fill="#FFB8B8"/>
<path d="M826.902 192.226C826.902 192.226 837.005 212.215 806.553 212.782C797.191 212.956 786.057 206.134 781.461 197.976C778.754 193.17 778.07 199.808 773.691 199.321C765.4 198.4 756.542 201.84 748.616 206.055C747.592 206.598 746.789 207.48 746.343 208.55C745.898 209.62 745.838 210.811 746.173 211.92C752.184 231.864 769.35 327.801 772 333.024C778.767 346.363 852 324.024 852 324.024C853.004 287.731 839.83 236.953 863 200.024C857.903 196.195 852.037 193.514 845.806 192.168C839.574 190.822 833.125 190.842 826.902 192.226Z" fill="#575A89"/>
<path d="M826.283 130.002L805.06 118.886L775.753 123.433L769.69 150.214L784.784 149.633L789 139.794V149.471L795.965 149.203L800.007 133.539L802.534 150.214L827.292 149.708L826.283 130.002Z" fill="#2F2E41"/>
<path d="M800.88 104.021C810.2 104.021 817.755 96.4656 817.755 87.146C817.755 77.8265 810.2 70.2715 800.88 70.2715C791.561 70.2715 784.006 77.8265 784.006 87.146C784.006 96.4656 791.561 104.021 800.88 104.021Z" fill="#2F2E41"/>
<path d="M779.604 82.0103C779.604 77.9797 781.047 74.0823 783.671 71.0229C786.295 67.9635 789.927 65.9441 793.911 65.3299C791.507 64.9621 789.052 65.1181 786.714 65.7874C784.376 66.4566 782.21 67.6233 780.365 69.2075C778.52 70.7917 777.039 72.7559 776.024 74.9656C775.009 77.1754 774.483 79.5785 774.483 82.0103C774.483 84.4421 775.009 86.8452 776.024 89.055C777.039 91.2647 778.52 93.229 780.365 94.8131C782.21 96.3973 784.376 97.564 786.714 98.2332C789.052 98.9025 791.507 99.0586 793.911 98.6907C789.927 98.0765 786.295 96.0571 783.671 92.9977C781.047 89.9383 779.604 86.0409 779.604 82.0103Z" fill="#2F2E41"/>
<path d="M877 483.618L796.578 500.079L794.745 499.892L724.071 492.759V403.196L810.587 388.569L873.346 395.888L873.369 396.285V396.472L877 483.618Z" fill="#E6E6E6"/>
<path opacity="0.1" d="M877 483.618L796.578 500.079L794.745 499.892V408.076L873.369 396.285L877 483.618Z" fill="black"/>
<path opacity="0.05" d="M873.369 396.472L873.346 396.495L794.745 408.076L724.071 403.196L810.587 388.569L873.346 395.888L873.369 396.285V396.472Z" fill="black"/>
<path d="M782.697 437.645L733.801 434.453L732.303 457.405L781.199 460.596L782.697 437.645Z" fill="white"/>
<path d="M770.733 444.38L744.788 442.686L744.267 450.669L770.212 452.363L770.733 444.38Z" fill="#F05E3C"/>
<path d="M751.721 380.194C751.721 380.194 722.159 403.844 735.166 412.121C748.174 420.398 763.546 380.194 763.546 380.194H751.721Z" fill="#FFB8B8"/>
<path d="M753 205.025C751.469 203.299 732.133 213.16 735 226.025L736.349 315.159C736.349 315.159 729.254 388.472 746.991 388.472C764.728 388.472 762.635 390.937 765 385.025C767.365 379.112 768 329.025 768 329.025L753 205.025Z" fill="#575A89"/>
<path d="M844.454 372.194C844.454 372.194 859.827 412.398 872.834 404.121C885.841 395.844 856.279 372.194 856.279 372.194H844.454Z" fill="#FFB8B8"/>
<path d="M848 322.025C848 322.025 840.635 371.112 843 377.025C845.365 382.937 843.272 380.472 861.009 380.472C878.746 380.472 871.651 307.159 871.651 307.159L873 218.025C875.867 205.16 856.531 195.299 855 197.025L838 255.025L848 322.025Z" fill="#575A89"/>
<g clip-path="url(#clip1)">
<path fill-rule="evenodd" clip-rule="evenodd" d="M153.5 169.555C151.263 171.116 148.71 172 146 172C137.163 172 130 157.598 130 146C130 134.402 137.163 130 146 130C148.71 130 151.263 130.884 153.5 132.445C155.737 130.884 158.29 130 161 130C169.837 130 177 134.402 177 146C177 157.598 169.837 172 161 172C158.29 172 155.737 171.116 153.5 169.555Z" stroke="#535353" stroke-width="2" stroke-linecap="round" stroke-linejoin="round"/>
<path d="M134 144C134 149.848 135.821 156.408 138.76 161.476" stroke="#535353" stroke-width="2" stroke-linecap="round" stroke-linejoin="round"/>
<path d="M153.447 131.704C153.447 131.704 151.55 126.036 159.361 119.871" stroke="#535353" stroke-width="2" stroke-linecap="round" stroke-linejoin="round"/>
<path fill-rule="evenodd" clip-rule="evenodd" d="M169.512 117.834C169.512 117.834 158.736 132.224 156.014 120.533C154.097 112.297 169.512 117.834 169.512 117.834Z" stroke="#535353" stroke-width="2" stroke-linecap="round" stroke-linejoin="round"/>
</g>
<g clip-path="url(#clip2)">
<path d="M352.381 116.63H342.236V134.895H352.381V116.63Z" fill="#E8EAE9"/>
<path d="M343.46 134.895C346.434 132.747 349.407 135.433 352.38 130.598V127.016C349.057 132.568 345.559 128.27 342.236 132.388V134.716H343.46V134.895V134.895Z" fill="#66C6B9"/>
<path d="M344.86 116.63C343.986 116.809 343.111 117.346 342.237 118.421V122.002C345.56 117.884 349.058 122.002 352.381 116.63H344.86Z" fill="#66C6B9"/>
<path d="M352.555 120.032C349.232 125.584 345.734 121.286 342.411 125.405V128.986C345.734 124.867 349.232 129.165 352.555 123.614V120.032Z" fill="#66C6B9"/>
<path d="M351.156 111.258C351.156 109.109 347.483 103.021 347.483 103.021C347.483 103.021 343.81 109.109 343.81 111.258C343.81 113.407 345.559 115.018 347.483 115.018C349.407 115.018 351.156 113.407 351.156 111.258Z" fill="#FFD15C"/>
<path d="M349.582 112.87C349.582 111.616 347.483 108.214 347.483 108.214C347.483 108.214 345.384 111.795 345.384 112.87C345.384 114.123 346.259 115.019 347.483 115.019C348.533 115.019 349.582 114.123 349.582 112.87Z" fill="#F3705A"/>
<path d="M328.068 104.632H317.924V134.895H328.068V104.632Z" fill="#E8EAE9"/>
<path d="M328.068 115.018C324.745 120.57 321.247 116.272 317.924 120.39V123.972C321.247 119.853 324.745 124.151 328.068 118.6V115.018Z" fill="#66C6B9"/>
<path d="M328.068 122.181C324.745 127.733 321.247 123.435 317.924 127.554V131.135C321.247 127.016 324.745 131.314 328.068 125.763V122.181Z" fill="#66C6B9"/>
<path d="M325.97 134.895C326.669 134.358 327.369 133.642 328.068 132.567V128.986C324.745 134.537 321.247 130.24 317.924 134.358V134.716H325.97V134.895Z" fill="#66C6B9"/>
<path d="M320.547 104.632C319.673 104.99 318.798 105.349 317.924 106.423V110.004C321.247 105.886 324.745 110.004 328.068 104.632H320.547Z" fill="#66C6B9"/>
<path d="M328.068 108.034C324.745 113.586 321.247 109.288 317.924 113.407V116.988C321.247 112.869 324.745 117.167 328.068 111.616V108.034Z" fill="#66C6B9"/>
<path d="M326.669 99.2603C326.669 97.1114 322.996 91.0229 322.996 91.0229C322.996 91.0229 319.323 97.1114 319.323 99.2603C319.323 101.409 321.072 103.021 322.996 103.021C325.095 103.021 326.669 101.409 326.669 99.2603Z" fill="#FFD15C"/>
<path d="M325.095 100.872C325.095 99.6183 322.996 96.2161 322.996 96.2161C322.996 96.2161 320.897 99.7974 320.897 100.872C320.897 102.125 321.772 103.021 322.996 103.021C324.22 103.021 325.095 102.125 325.095 100.872Z" fill="#F3705A"/>
<path d="M303.582 116.63H293.437V134.895H303.582V116.63Z" fill="#E8EAE9"/>
<path d="M294.661 134.895C297.635 132.747 300.608 135.433 303.581 130.598V127.016C300.258 132.568 296.76 128.27 293.437 132.388V134.716H294.661V134.895Z" fill="#66C6B9"/>
<path d="M296.061 116.63C295.187 116.809 294.312 117.346 293.438 118.421V122.002C296.761 117.884 300.259 122.002 303.582 116.63H296.061Z" fill="#66C6B9"/>
<path d="M303.756 120.032C300.433 125.584 296.935 121.286 293.612 125.405V128.986C296.935 124.867 300.433 129.165 303.756 123.614V120.032Z" fill="#66C6B9"/>
<path d="M302.357 111.258C302.357 109.109 298.684 103.021 298.684 103.021C298.684 103.021 295.011 109.109 295.011 111.258C295.011 113.407 296.76 115.018 298.684 115.018C300.608 115.018 302.357 113.407 302.357 111.258Z" fill="#FFD15C"/>
<path d="M300.783 112.87C300.783 111.616 298.684 108.214 298.684 108.214C298.684 108.214 296.585 111.795 296.585 112.87C296.585 114.123 297.46 115.019 298.684 115.019C299.734 115.019 300.783 114.123 300.783 112.87Z" fill="#F3705A"/>
<path d="M364.099 176.977H282.942V136.865C282.942 133.821 285.391 131.314 288.365 131.314H358.502C361.476 131.314 363.924 133.821 363.924 136.865V176.977H364.099Z" fill="#FFD15C"/>
<path d="M281.718 146.356L289.239 140.805C309.179 138.835 329.293 140.088 348.708 144.744C353.43 145.819 358.677 139.372 361.826 143.133C364.624 146.535 364.974 155.668 364.449 162.472C364.099 166.591 359.727 168.74 356.403 166.412C355.529 165.696 354.654 165.159 354.13 165.159C348.533 163.547 343.285 168.74 337.513 169.098C332.966 169.456 328.593 167.307 324.395 165.338C320.198 163.547 315.475 161.935 311.102 163.368C307.254 164.621 303.756 168.382 299.734 167.487C296.06 166.77 293.437 162.293 289.764 162.472C287.49 162.652 285.216 164.621 283.292 163.547C281.718 162.652 281.543 160.503 281.718 158.712V146.356Z" fill="#344A5E"/>
<path d="M364.624 152.982C364.274 157.996 356.054 159.07 352.031 156.563C349.757 155.131 347.833 152.623 345.209 152.803C342.761 152.982 341.012 155.489 338.913 156.921C336.289 158.712 332.966 158.712 329.992 157.996C327.019 157.279 324.046 156.026 321.072 155.13C318.099 154.235 316.874 153.877 313.726 153.698C312.677 153.519 311.627 153.519 310.578 153.34C308.304 153.161 306.205 152.803 303.931 153.34C300.958 153.877 298.684 155.668 295.886 154.414C293.962 153.519 292.737 151.549 290.638 151.012C288.714 150.654 286.266 155.309 283.117 154.056C280.319 151.907 278.57 129.523 289.414 129.523C301.832 129.523 355.004 129.523 355.004 129.523C361.825 129.523 366.373 131.314 364.624 152.982Z" fill="#415A6B"/>
</g>
<path d="M515.778 125.185H472.222C470.511 125.185 469.111 123.818 469.111 122.148V120.63C469.111 118.959 470.511 117.593 472.222 117.593H515.778C517.489 117.593 518.889 118.959 518.889 120.63V122.148C518.889 123.818 517.489 125.185 515.778 125.185Z" fill="#E6E6E6"/>
<path d="M476.889 117.593V110H483.111L487.778 117.593H476.889Z" fill="#D2D5D7"/>
<path d="M515.778 147.963L517.333 140.37H470.667L472.222 147.963H515.778Z" fill="#E6E6E6"/>
<path d="M475.242 178.333L476.889 192H512.667L514.222 178.333H475.242Z" fill="#E6E6E6"/>
<path d="M517.333 178.333H472.222L469.111 147.963H518.889L517.333 178.333Z" fill="#F75B57"/>
<path d="M494 172.259C501.732 172.259 508 168.18 508 163.148C508 158.116 501.732 154.037 494 154.037C486.268 154.037 480 158.116 480 163.148C480 168.18 486.268 172.259 494 172.259Z" fill="#F9DA49"/>
<path d="M518.889 140.37H469.111C467.4 140.37 466 139.004 466 137.333V128.222C466 126.552 467.4 125.185 469.111 125.185H518.889C520.6 125.185 522 126.552 522 128.222V137.333C522 139.004 520.6 140.37 518.889 140.37Z" fill="#D2D5D7"/>
<path d="M522.171 33.8935L510.025 42.1758C509.784 42.3484 509.703 42.6935 509.944 42.9005C510.065 43.0386 510.226 43.1076 510.427 43.1076C510.548 43.1076 510.709 43.0731 510.789 43.0041L522.935 34.7217C523.176 34.5492 523.256 34.2041 523.015 33.997C522.814 33.7554 522.452 33.7209 522.171 33.8935Z" fill="black"/>
<path d="M513.283 37.5859C513.443 37.5859 513.604 37.5859 513.765 37.5514C515.414 37.3443 516.58 35.9984 516.299 34.549C516.178 33.8588 515.736 33.2376 515.092 32.8235C514.449 32.4094 513.645 32.2369 512.84 32.3404C512.036 32.4439 511.312 32.8235 510.829 33.3757C510.347 33.9278 510.146 34.618 510.266 35.3082C510.508 36.6541 511.835 37.5859 513.283 37.5859ZM513.001 33.4102C513.081 33.4102 513.202 33.3757 513.283 33.3757C514.167 33.3757 514.972 33.9278 515.092 34.7216C515.253 35.5843 514.57 36.378 513.564 36.5161C512.559 36.6541 511.634 36.0674 511.473 35.2047C511.312 34.342 512.036 33.5482 513.001 33.4102Z" fill="black"/>
<path d="M519.717 39.3115C518.028 39.3115 516.661 40.4849 516.661 41.9343C516.661 43.3837 518.028 44.557 519.717 44.557C521.406 44.557 522.774 43.3837 522.774 41.9343C522.734 40.4849 521.366 39.3115 519.717 39.3115ZM519.717 43.4872C518.712 43.4872 517.867 42.7625 517.867 41.8998C517.867 41.037 518.712 40.3123 519.717 40.3123C520.723 40.3123 521.567 41.037 521.567 41.8998C521.527 42.797 520.723 43.4872 519.717 43.4872Z" fill="black"/>
<path d="M534.759 38.1037C534.759 38.0692 534.799 38.0001 534.799 37.9656C534.799 36.4817 532.989 35.7225 531.421 35.0668C530.295 34.5837 529.088 34.066 528.766 33.4448C528.445 32.7892 528.887 31.7194 529.329 30.7186C529.933 29.3037 530.536 27.8543 529.41 26.888C528.284 25.9217 526.675 26.2668 525.066 26.5774C523.94 26.7845 522.774 27.026 522.01 26.7499C521.246 26.4739 520.602 25.6111 519.999 24.7829C519.114 23.6096 518.149 22.2637 516.46 22.2637C514.771 22.2637 513.805 23.6096 512.961 24.8174C512.358 25.6801 511.754 26.5429 510.99 26.819C510.226 27.095 509.02 26.8535 507.893 26.6119C506.285 26.2668 504.636 25.9217 503.55 26.8535C502.424 27.8198 502.987 29.2692 503.51 30.6841C503.912 31.7194 504.274 32.7547 503.952 33.4448C503.63 34.1005 502.504 34.5837 501.418 35.0668C499.89 35.757 498.161 36.5162 498.161 37.9656C498.161 38.0001 498.161 38.0692 498.201 38.1037C498.201 38.1382 498.161 38.2072 498.161 38.2417C498.161 39.6911 499.89 40.4848 501.418 41.1405C502.504 41.6237 503.63 42.1068 503.952 42.7625C504.274 43.4182 503.872 44.488 503.51 45.5233C502.987 46.9382 502.424 48.3876 503.55 49.3539C504.676 50.3201 506.325 49.9405 507.893 49.5954C509.02 49.3539 510.226 49.1123 510.99 49.3884C511.754 49.6645 512.358 50.5272 512.961 51.3899C513.805 52.5978 514.771 53.9437 516.46 53.9437C518.149 53.9437 519.154 52.5978 519.999 51.4245C520.602 50.5962 521.246 49.7335 522.01 49.4574C522.814 49.1813 523.94 49.3884 525.066 49.6299C526.635 49.9405 528.284 50.2856 529.41 49.3194C530.536 48.3531 529.933 46.9037 529.329 45.4888C528.887 44.4535 528.445 43.4182 528.766 42.7625C529.088 42.1068 530.254 41.6237 531.421 41.1405C532.989 40.4503 534.799 39.6911 534.799 38.2417C534.799 38.1727 534.759 38.1382 534.759 38.1037ZM530.858 40.2088C529.53 40.7954 528.123 41.3821 527.64 42.3829C527.117 43.4182 527.68 44.6605 528.163 45.8684C528.646 47.0072 529.128 48.1115 528.525 48.5947C527.881 49.1468 526.635 48.9052 525.308 48.6292C523.98 48.3531 522.653 48.1115 521.487 48.5256C520.361 48.9398 519.637 49.906 518.953 50.8723C518.189 51.9076 517.465 52.9084 516.42 52.9084C515.414 52.9084 514.69 51.9076 513.926 50.8378C513.242 49.837 512.518 48.8362 511.392 48.4221C510.226 48.008 508.859 48.2841 507.531 48.5947C506.204 48.8707 504.958 49.1468 504.314 48.6292C503.711 48.1115 504.113 47.0072 504.555 45.8684C504.998 44.6605 505.48 43.4182 504.958 42.4174C504.475 41.4166 503.148 40.8299 501.861 40.2778C500.534 39.6911 499.287 39.139 499.287 38.2762C499.287 38.2417 499.287 38.1727 499.247 38.1382C499.247 38.1037 499.287 38.0347 499.287 38.0001C499.287 37.1719 500.534 36.6198 501.861 35.9986C503.148 35.4464 504.475 34.8598 504.958 33.859C505.44 32.8237 504.998 31.5813 504.555 30.408C504.113 29.2347 503.711 28.1303 504.314 27.6472C504.958 27.095 506.204 27.3711 507.531 27.6817C508.859 27.9578 510.226 28.2684 511.392 27.8543C512.518 27.4401 513.242 26.4394 513.926 25.4386C514.69 24.3688 515.374 23.368 516.42 23.368C517.465 23.368 518.189 24.3688 518.953 25.4041C519.677 26.3703 520.401 27.3366 521.487 27.7507C522.653 28.1648 523.98 27.8888 525.308 27.6472C526.635 27.3711 527.881 27.1296 528.525 27.6817C529.128 28.1648 528.646 29.2692 528.163 30.408C527.64 31.6158 527.117 32.8582 527.64 33.8935C528.123 34.8943 529.53 35.4809 530.858 36.0676C532.265 36.6543 533.552 37.2409 533.552 38.0692C533.552 38.1037 533.552 38.1727 533.592 38.2072C533.592 38.2417 533.552 38.3107 533.552 38.3452C533.592 39.0354 532.265 39.6221 530.858 40.2088Z" fill="#F3705A"/>
<path d="M202.446 42.758C204.27 42.758 205.182 42.134 205.182 40.886C205.182 40.502 205.098 40.178 204.93 39.914C204.774 39.638 204.558 39.404 204.282 39.212C204.006 39.008 203.688 38.834 203.328 38.69C202.98 38.546 202.608 38.402 202.212 38.258C201.756 38.102 201.324 37.928 200.916 37.736C200.508 37.532 200.154 37.298 199.854 37.034C199.554 36.758 199.314 36.434 199.134 36.062C198.966 35.69 198.882 35.24 198.882 34.712C198.882 33.62 199.254 32.768 199.998 32.156C200.742 31.544 201.768 31.238 203.076 31.238C203.832 31.238 204.516 31.322 205.128 31.49C205.752 31.646 206.208 31.82 206.496 32.012L205.938 33.434C205.686 33.278 205.308 33.128 204.804 32.984C204.312 32.828 203.736 32.75 203.076 32.75C202.74 32.75 202.428 32.786 202.14 32.858C201.852 32.93 201.6 33.038 201.384 33.182C201.168 33.326 200.994 33.512 200.862 33.74C200.742 33.956 200.682 34.214 200.682 34.514C200.682 34.85 200.748 35.132 200.88 35.36C201.012 35.588 201.198 35.792 201.438 35.972C201.678 36.14 201.954 36.296 202.266 36.44C202.59 36.584 202.944 36.728 203.328 36.872C203.868 37.088 204.36 37.304 204.804 37.52C205.26 37.736 205.65 37.994 205.974 38.294C206.31 38.594 206.568 38.954 206.748 39.374C206.928 39.782 207.018 40.28 207.018 40.868C207.018 41.96 206.616 42.8 205.812 43.388C205.02 43.976 203.898 44.27 202.446 44.27C201.954 44.27 201.498 44.234 201.078 44.162C200.67 44.102 200.304 44.03 199.98 43.946C199.656 43.85 199.374 43.754 199.134 43.658C198.906 43.55 198.726 43.46 198.594 43.388L199.116 41.948C199.392 42.104 199.812 42.278 200.376 42.47C200.94 42.662 201.63 42.758 202.446 42.758ZM212.188 42.794C212.584 42.794 212.932 42.788 213.232 42.776C213.544 42.752 213.802 42.716 214.006 42.668V39.878C213.886 39.818 213.688 39.77 213.412 39.734C213.148 39.686 212.824 39.662 212.44 39.662C212.188 39.662 211.918 39.68 211.63 39.716C211.354 39.752 211.096 39.83 210.856 39.95C210.628 40.058 210.436 40.214 210.28 40.418C210.124 40.61 210.046 40.868 210.046 41.192C210.046 41.792 210.238 42.212 210.622 42.452C211.006 42.68 211.528 42.794 212.188 42.794ZM212.044 34.406C212.716 34.406 213.28 34.496 213.736 34.676C214.204 34.844 214.576 35.09 214.852 35.414C215.14 35.726 215.344 36.104 215.464 36.548C215.584 36.98 215.644 37.46 215.644 37.988V43.838C215.5 43.862 215.296 43.898 215.032 43.946C214.78 43.982 214.492 44.018 214.168 44.054C213.844 44.09 213.49 44.12 213.106 44.144C212.734 44.18 212.362 44.198 211.99 44.198C211.462 44.198 210.976 44.144 210.532 44.036C210.088 43.928 209.704 43.76 209.38 43.532C209.056 43.292 208.804 42.98 208.624 42.596C208.444 42.212 208.354 41.75 208.354 41.21C208.354 40.694 208.456 40.25 208.66 39.878C208.876 39.506 209.164 39.206 209.524 38.978C209.884 38.75 210.304 38.582 210.784 38.474C211.264 38.366 211.768 38.312 212.296 38.312C212.464 38.312 212.638 38.324 212.818 38.348C212.998 38.36 213.166 38.384 213.322 38.42C213.49 38.444 213.634 38.468 213.754 38.492C213.874 38.516 213.958 38.534 214.006 38.546V38.078C214.006 37.802 213.976 37.532 213.916 37.268C213.856 36.992 213.748 36.752 213.592 36.548C213.436 36.332 213.22 36.164 212.944 36.044C212.68 35.912 212.332 35.846 211.9 35.846C211.348 35.846 210.862 35.888 210.442 35.972C210.034 36.044 209.728 36.122 209.524 36.206L209.326 34.82C209.542 34.724 209.902 34.634 210.406 34.55C210.91 34.454 211.456 34.406 212.044 34.406ZM221.232 44.18C220.2 44.156 219.468 43.934 219.036 43.514C218.604 43.094 218.388 42.44 218.388 41.552V30.32L220.062 30.032V41.282C220.062 41.558 220.086 41.786 220.134 41.966C220.182 42.146 220.26 42.29 220.368 42.398C220.476 42.506 220.62 42.59 220.8 42.65C220.98 42.698 221.202 42.74 221.466 42.776L221.232 44.18ZM222.824 39.338C222.824 38.51 222.944 37.79 223.184 37.178C223.424 36.554 223.742 36.038 224.138 35.63C224.534 35.222 224.99 34.916 225.506 34.712C226.022 34.508 226.55 34.406 227.09 34.406C228.35 34.406 229.316 34.802 229.988 35.594C230.66 36.374 230.996 37.568 230.996 39.176C230.996 39.248 230.996 39.344 230.996 39.464C230.996 39.572 230.99 39.674 230.978 39.77H224.57C224.642 40.742 224.924 41.48 225.416 41.984C225.908 42.488 226.676 42.74 227.72 42.74C228.308 42.74 228.8 42.692 229.196 42.596C229.604 42.488 229.91 42.386 230.114 42.29L230.348 43.694C230.144 43.802 229.784 43.916 229.268 44.036C228.764 44.156 228.188 44.216 227.54 44.216C226.724 44.216 226.016 44.096 225.416 43.856C224.828 43.604 224.342 43.262 223.958 42.83C223.574 42.398 223.286 41.888 223.094 41.3C222.914 40.7 222.824 40.046 222.824 39.338ZM229.25 38.42C229.262 37.664 229.07 37.046 228.674 36.566C228.29 36.074 227.756 35.828 227.072 35.828C226.688 35.828 226.346 35.906 226.046 36.062C225.758 36.206 225.512 36.398 225.308 36.638C225.104 36.878 224.942 37.154 224.822 37.466C224.714 37.778 224.642 38.096 224.606 38.42H229.25ZM235.345 34.91C235.345 35.918 235.309 36.836 235.237 37.664C235.165 38.48 235.075 39.296 234.967 40.112H233.923C233.815 39.296 233.725 38.48 233.653 37.664C233.581 36.836 233.545 35.918 233.545 34.91V31.526H235.345V34.91ZM235.651 43.028C235.651 43.352 235.543 43.634 235.327 43.874C235.111 44.114 234.817 44.234 234.445 44.234C234.073 44.234 233.779 44.114 233.563 43.874C233.347 43.634 233.239 43.352 233.239 43.028C233.239 42.704 233.347 42.422 233.563 42.182C233.779 41.942 234.073 41.822 234.445 41.822C234.817 41.822 235.111 41.942 235.327 42.182C235.543 42.422 235.651 42.704 235.651 43.028ZM240.32 34.91C240.32 35.918 240.284 36.836 240.212 37.664C240.14 38.48 240.05 39.296 239.942 40.112H238.898C238.79 39.296 238.7 38.48 238.628 37.664C238.556 36.836 238.52 35.918 238.52 34.91V31.526H240.32V34.91ZM240.626 43.028C240.626 43.352 240.518 43.634 240.302 43.874C240.086 44.114 239.792 44.234 239.42 44.234C239.048 44.234 238.754 44.114 238.538 43.874C238.322 43.634 238.214 43.352 238.214 43.028C238.214 42.704 238.322 42.422 238.538 42.182C238.754 41.942 239.048 41.822 239.42 41.822C239.792 41.822 240.086 41.942 240.302 42.182C240.518 42.422 240.626 42.704 240.626 43.028ZM250.522 42.758C252.346 42.758 253.258 42.134 253.258 40.886C253.258 40.502 253.174 40.178 253.006 39.914C252.85 39.638 252.634 39.404 252.358 39.212C252.082 39.008 251.764 38.834 251.404 38.69C251.056 38.546 250.684 38.402 250.288 38.258C249.832 38.102 249.4 37.928 248.992 37.736C248.584 37.532 248.23 37.298 247.93 37.034C247.63 36.758 247.39 36.434 247.21 36.062C247.042 35.69 246.958 35.24 246.958 34.712C246.958 33.62 247.33 32.768 248.074 32.156C248.818 31.544 249.844 31.238 251.152 31.238C251.908 31.238 252.592 31.322 253.204 31.49C253.828 31.646 254.284 31.82 254.572 32.012L254.014 33.434C253.762 33.278 253.384 33.128 252.88 32.984C252.388 32.828 251.812 32.75 251.152 32.75C250.816 32.75 250.504 32.786 250.216 32.858C249.928 32.93 249.676 33.038 249.46 33.182C249.244 33.326 249.07 33.512 248.938 33.74C248.818 33.956 248.758 34.214 248.758 34.514C248.758 34.85 248.824 35.132 248.956 35.36C249.088 35.588 249.274 35.792 249.514 35.972C249.754 36.14 250.03 36.296 250.342 36.44C250.666 36.584 251.02 36.728 251.404 36.872C251.944 37.088 252.436 37.304 252.88 37.52C253.336 37.736 253.726 37.994 254.05 38.294C254.386 38.594 254.644 38.954 254.824 39.374C255.004 39.782 255.094 40.28 255.094 40.868C255.094 41.96 254.692 42.8 253.888 43.388C253.096 43.976 251.974 44.27 250.522 44.27C250.03 44.27 249.574 44.234 249.154 44.162C248.746 44.102 248.38 44.03 248.056 43.946C247.732 43.85 247.45 43.754 247.21 43.658C246.982 43.55 246.802 43.46 246.67 43.388L247.192 41.948C247.468 42.104 247.888 42.278 248.452 42.47C249.016 42.662 249.706 42.758 250.522 42.758ZM260.264 42.794C260.66 42.794 261.008 42.788 261.308 42.776C261.62 42.752 261.878 42.716 262.082 42.668V39.878C261.962 39.818 261.764 39.77 261.488 39.734C261.224 39.686 260.9 39.662 260.516 39.662C260.264 39.662 259.994 39.68 259.706 39.716C259.43 39.752 259.172 39.83 258.932 39.95C258.704 40.058 258.512 40.214 258.356 40.418C258.2 40.61 258.122 40.868 258.122 41.192C258.122 41.792 258.314 42.212 258.698 42.452C259.082 42.68 259.604 42.794 260.264 42.794ZM260.12 34.406C260.792 34.406 261.356 34.496 261.812 34.676C262.28 34.844 262.652 35.09 262.928 35.414C263.216 35.726 263.42 36.104 263.54 36.548C263.66 36.98 263.72 37.46 263.72 37.988V43.838C263.576 43.862 263.372 43.898 263.108 43.946C262.856 43.982 262.568 44.018 262.244 44.054C261.92 44.09 261.566 44.12 261.182 44.144C260.81 44.18 260.438 44.198 260.066 44.198C259.538 44.198 259.052 44.144 258.608 44.036C258.164 43.928 257.78 43.76 257.456 43.532C257.132 43.292 256.88 42.98 256.7 42.596C256.52 42.212 256.43 41.75 256.43 41.21C256.43 40.694 256.532 40.25 256.736 39.878C256.952 39.506 257.24 39.206 257.6 38.978C257.96 38.75 258.38 38.582 258.86 38.474C259.34 38.366 259.844 38.312 260.372 38.312C260.54 38.312 260.714 38.324 260.894 38.348C261.074 38.36 261.242 38.384 261.398 38.42C261.566 38.444 261.71 38.468 261.83 38.492C261.95 38.516 262.034 38.534 262.082 38.546V38.078C262.082 37.802 262.052 37.532 261.992 37.268C261.932 36.992 261.824 36.752 261.668 36.548C261.512 36.332 261.296 36.164 261.02 36.044C260.756 35.912 260.408 35.846 259.976 35.846C259.424 35.846 258.938 35.888 258.518 35.972C258.11 36.044 257.804 36.122 257.6 36.206L257.402 34.82C257.618 34.724 257.978 34.634 258.482 34.55C258.986 34.454 259.532 34.406 260.12 34.406ZM269.309 44.18C268.277 44.156 267.545 43.934 267.113 43.514C266.681 43.094 266.465 42.44 266.465 41.552V30.32L268.139 30.032V41.282C268.139 41.558 268.163 41.786 268.211 41.966C268.259 42.146 268.337 42.29 268.445 42.398C268.553 42.506 268.697 42.59 268.877 42.65C269.057 42.698 269.279 42.74 269.543 42.776L269.309 44.18ZM270.9 39.338C270.9 38.51 271.02 37.79 271.26 37.178C271.5 36.554 271.818 36.038 272.214 35.63C272.61 35.222 273.066 34.916 273.582 34.712C274.098 34.508 274.626 34.406 275.166 34.406C276.426 34.406 277.392 34.802 278.064 35.594C278.736 36.374 279.072 37.568 279.072 39.176C279.072 39.248 279.072 39.344 279.072 39.464C279.072 39.572 279.066 39.674 279.054 39.77H272.646C272.718 40.742 273 41.48 273.492 41.984C273.984 42.488 274.752 42.74 275.796 42.74C276.384 42.74 276.876 42.692 277.272 42.596C277.68 42.488 277.986 42.386 278.19 42.29L278.424 43.694C278.22 43.802 277.86 43.916 277.344 44.036C276.84 44.156 276.264 44.216 275.616 44.216C274.8 44.216 274.092 44.096 273.492 43.856C272.904 43.604 272.418 43.262 272.034 42.83C271.65 42.398 271.362 41.888 271.17 41.3C270.99 40.7 270.9 40.046 270.9 39.338ZM277.326 38.42C277.338 37.664 277.146 37.046 276.75 36.566C276.366 36.074 275.832 35.828 275.148 35.828C274.764 35.828 274.422 35.906 274.122 36.062C273.834 36.206 273.588 36.398 273.384 36.638C273.18 36.878 273.018 37.154 272.898 37.466C272.79 37.778 272.718 38.096 272.682 38.42H277.326ZM283.421 34.91C283.421 35.918 283.385 36.836 283.313 37.664C283.241 38.48 283.151 39.296 283.043 40.112H281.999C281.891 39.296 281.801 38.48 281.729 37.664C281.657 36.836 281.621 35.918 281.621 34.91V31.526H283.421V34.91ZM283.727 43.028C283.727 43.352 283.619 43.634 283.403 43.874C283.187 44.114 282.893 44.234 282.521 44.234C282.149 44.234 281.855 44.114 281.639 43.874C281.423 43.634 281.315 43.352 281.315 43.028C281.315 42.704 281.423 42.422 281.639 42.182C281.855 41.942 282.149 41.822 282.521 41.822C282.893 41.822 283.187 41.942 283.403 42.182C283.619 42.422 283.727 42.704 283.727 43.028ZM288.396 34.91C288.396 35.918 288.36 36.836 288.288 37.664C288.216 38.48 288.126 39.296 288.018 40.112H286.974C286.866 39.296 286.776 38.48 286.704 37.664C286.632 36.836 286.596 35.918 286.596 34.91V31.526H288.396V34.91ZM288.702 43.028C288.702 43.352 288.594 43.634 288.378 43.874C288.162 44.114 287.868 44.234 287.496 44.234C287.124 44.234 286.83 44.114 286.614 43.874C286.398 43.634 286.29 43.352 286.29 43.028C286.29 42.704 286.398 42.422 286.614 42.182C286.83 41.942 287.124 41.822 287.496 41.822C287.868 41.822 288.162 41.942 288.378 42.182C288.594 42.422 288.702 42.704 288.702 43.028ZM298.598 42.758C300.422 42.758 301.334 42.134 301.334 40.886C301.334 40.502 301.25 40.178 301.082 39.914C300.926 39.638 300.71 39.404 300.434 39.212C300.158 39.008 299.84 38.834 299.48 38.69C299.132 38.546 298.76 38.402 298.364 38.258C297.908 38.102 297.476 37.928 297.068 37.736C296.66 37.532 296.306 37.298 296.006 37.034C295.706 36.758 295.466 36.434 295.286 36.062C295.118 35.69 295.034 35.24 295.034 34.712C295.034 33.62 295.406 32.768 296.15 32.156C296.894 31.544 297.92 31.238 299.228 31.238C299.984 31.238 300.668 31.322 301.28 31.49C301.904 31.646 302.36 31.82 302.648 32.012L302.09 33.434C301.838 33.278 301.46 33.128 300.956 32.984C300.464 32.828 299.888 32.75 299.228 32.75C298.892 32.75 298.58 32.786 298.292 32.858C298.004 32.93 297.752 33.038 297.536 33.182C297.32 33.326 297.146 33.512 297.014 33.74C296.894 33.956 296.834 34.214 296.834 34.514C296.834 34.85 296.9 35.132 297.032 35.36C297.164 35.588 297.35 35.792 297.59 35.972C297.83 36.14 298.106 36.296 298.418 36.44C298.742 36.584 299.096 36.728 299.48 36.872C300.02 37.088 300.512 37.304 300.956 37.52C301.412 37.736 301.802 37.994 302.126 38.294C302.462 38.594 302.72 38.954 302.9 39.374C303.08 39.782 303.17 40.28 303.17 40.868C303.17 41.96 302.768 42.8 301.964 43.388C301.172 43.976 300.05 44.27 298.598 44.27C298.106 44.27 297.65 44.234 297.23 44.162C296.822 44.102 296.456 44.03 296.132 43.946C295.808 43.85 295.526 43.754 295.286 43.658C295.058 43.55 294.878 43.46 294.746 43.388L295.268 41.948C295.544 42.104 295.964 42.278 296.528 42.47C297.092 42.662 297.782 42.758 298.598 42.758ZM308.34 42.794C308.736 42.794 309.084 42.788 309.384 42.776C309.696 42.752 309.954 42.716 310.158 42.668V39.878C310.038 39.818 309.84 39.77 309.564 39.734C309.3 39.686 308.976 39.662 308.592 39.662C308.34 39.662 308.07 39.68 307.782 39.716C307.506 39.752 307.248 39.83 307.008 39.95C306.78 40.058 306.588 40.214 306.432 40.418C306.276 40.61 306.198 40.868 306.198 41.192C306.198 41.792 306.39 42.212 306.774 42.452C307.158 42.68 307.68 42.794 308.34 42.794ZM308.196 34.406C308.868 34.406 309.432 34.496 309.888 34.676C310.356 34.844 310.728 35.09 311.004 35.414C311.292 35.726 311.496 36.104 311.616 36.548C311.736 36.98 311.796 37.46 311.796 37.988V43.838C311.652 43.862 311.448 43.898 311.184 43.946C310.932 43.982 310.644 44.018 310.32 44.054C309.996 44.09 309.642 44.12 309.258 44.144C308.886 44.18 308.514 44.198 308.142 44.198C307.614 44.198 307.128 44.144 306.684 44.036C306.24 43.928 305.856 43.76 305.532 43.532C305.208 43.292 304.956 42.98 304.776 42.596C304.596 42.212 304.506 41.75 304.506 41.21C304.506 40.694 304.608 40.25 304.812 39.878C305.028 39.506 305.316 39.206 305.676 38.978C306.036 38.75 306.456 38.582 306.936 38.474C307.416 38.366 307.92 38.312 308.448 38.312C308.616 38.312 308.79 38.324 308.97 38.348C309.15 38.36 309.318 38.384 309.474 38.42C309.642 38.444 309.786 38.468 309.906 38.492C310.026 38.516 310.11 38.534 310.158 38.546V38.078C310.158 37.802 310.128 37.532 310.068 37.268C310.008 36.992 309.9 36.752 309.744 36.548C309.588 36.332 309.372 36.164 309.096 36.044C308.832 35.912 308.484 35.846 308.052 35.846C307.5 35.846 307.014 35.888 306.594 35.972C306.186 36.044 305.88 36.122 305.676 36.206L305.478 34.82C305.694 34.724 306.054 34.634 306.558 34.55C307.062 34.454 307.608 34.406 308.196 34.406ZM317.385 44.18C316.353 44.156 315.621 43.934 315.189 43.514C314.757 43.094 314.541 42.44 314.541 41.552V30.32L316.215 30.032V41.282C316.215 41.558 316.239 41.786 316.287 41.966C316.335 42.146 316.413 42.29 316.521 42.398C316.629 42.506 316.773 42.59 316.953 42.65C317.133 42.698 317.355 42.74 317.619 42.776L317.385 44.18ZM318.977 39.338C318.977 38.51 319.097 37.79 319.337 37.178C319.577 36.554 319.895 36.038 320.291 35.63C320.687 35.222 321.143 34.916 321.659 34.712C322.175 34.508 322.703 34.406 323.243 34.406C324.503 34.406 325.469 34.802 326.141 35.594C326.813 36.374 327.149 37.568 327.149 39.176C327.149 39.248 327.149 39.344 327.149 39.464C327.149 39.572 327.143 39.674 327.131 39.77H320.723C320.795 40.742 321.077 41.48 321.569 41.984C322.061 42.488 322.829 42.74 323.873 42.74C324.461 42.74 324.953 42.692 325.349 42.596C325.757 42.488 326.063 42.386 326.267 42.29L326.501 43.694C326.297 43.802 325.937 43.916 325.421 44.036C324.917 44.156 324.341 44.216 323.693 44.216C322.877 44.216 322.169 44.096 321.569 43.856C320.981 43.604 320.495 43.262 320.111 42.83C319.727 42.398 319.439 41.888 319.247 41.3C319.067 40.7 318.977 40.046 318.977 39.338ZM325.403 38.42C325.415 37.664 325.223 37.046 324.827 36.566C324.443 36.074 323.909 35.828 323.225 35.828C322.841 35.828 322.499 35.906 322.199 36.062C321.911 36.206 321.665 36.398 321.461 36.638C321.257 36.878 321.095 37.154 320.975 37.466C320.867 37.778 320.795 38.096 320.759 38.42H325.403ZM335.861 36.332C337.673 36.404 338.999 36.8 339.839 37.52C340.691 38.24 341.117 39.218 341.117 40.454C341.117 41.006 341.021 41.516 340.829 41.984C340.649 42.452 340.367 42.854 339.983 43.19C339.611 43.526 339.137 43.79 338.561 43.982C337.985 44.174 337.301 44.27 336.509 44.27C336.197 44.27 335.879 44.246 335.555 44.198C335.231 44.15 334.931 44.09 334.655 44.018C334.379 43.946 334.133 43.874 333.917 43.802C333.701 43.73 333.545 43.67 333.449 43.622L333.773 42.164C333.977 42.26 334.307 42.386 334.763 42.542C335.231 42.698 335.801 42.776 336.473 42.776C337.013 42.776 337.463 42.716 337.823 42.596C338.195 42.476 338.495 42.314 338.723 42.11C338.951 41.906 339.113 41.672 339.209 41.408C339.317 41.132 339.371 40.844 339.371 40.544C339.371 40.088 339.293 39.686 339.137 39.338C338.981 38.978 338.705 38.678 338.309 38.438C337.913 38.198 337.385 38.018 336.725 37.898C336.065 37.766 335.231 37.7 334.223 37.7C334.295 37.112 334.349 36.56 334.385 36.044C334.433 35.528 334.475 35.024 334.511 34.532C334.547 34.04 334.577 33.554 334.601 33.074C334.625 32.582 334.649 32.066 334.673 31.526H340.685V32.948H336.131C336.119 33.128 336.101 33.374 336.077 33.686C336.053 33.986 336.029 34.304 336.005 34.64C335.981 34.964 335.957 35.282 335.933 35.594C335.909 35.906 335.885 36.152 335.861 36.332ZM343.339 37.754C343.339 35.666 343.705 34.058 344.437 32.93C345.181 31.802 346.207 31.238 347.515 31.238C348.823 31.238 349.843 31.802 350.575 32.93C351.319 34.058 351.691 35.666 351.691 37.754C351.691 39.842 351.319 41.45 350.575 42.578C349.843 43.706 348.823 44.27 347.515 44.27C346.207 44.27 345.181 43.706 344.437 42.578C343.705 41.45 343.339 39.842 343.339 37.754ZM349.927 37.754C349.927 37.07 349.885 36.422 349.801 35.81C349.729 35.198 349.597 34.664 349.405 34.208C349.225 33.752 348.979 33.392 348.667 33.128C348.355 32.852 347.971 32.714 347.515 32.714C347.059 32.714 346.675 32.852 346.363 33.128C346.051 33.392 345.799 33.752 345.607 34.208C345.427 34.664 345.295 35.198 345.211 35.81C345.139 36.422 345.103 37.07 345.103 37.754C345.103 38.438 345.139 39.086 345.211 39.698C345.295 40.31 345.427 40.844 345.607 41.3C345.799 41.756 346.051 42.122 346.363 42.398C346.675 42.662 347.059 42.794 347.515 42.794C347.971 42.794 348.355 42.662 348.667 42.398C348.979 42.122 349.225 41.756 349.405 41.3C349.597 40.844 349.729 40.31 349.801 39.698C349.885 39.086 349.927 38.438 349.927 37.754ZM353.5 34.568C353.5 34.028 353.572 33.554 353.716 33.146C353.86 32.738 354.058 32.396 354.31 32.12C354.574 31.832 354.88 31.616 355.228 31.472C355.576 31.328 355.954 31.256 356.362 31.256C356.77 31.256 357.148 31.328 357.496 31.472C357.844 31.616 358.144 31.832 358.396 32.12C358.66 32.396 358.864 32.738 359.008 33.146C359.152 33.554 359.224 34.028 359.224 34.568C359.224 35.108 359.152 35.582 359.008 35.99C358.864 36.398 358.66 36.746 358.396 37.034C358.144 37.31 357.844 37.52 357.496 37.664C357.148 37.808 356.77 37.88 356.362 37.88C355.954 37.88 355.576 37.808 355.228 37.664C354.88 37.52 354.574 37.31 354.31 37.034C354.058 36.746 353.86 36.398 353.716 35.99C353.572 35.582 353.5 35.108 353.5 34.568ZM357.82 34.568C357.82 33.92 357.694 33.416 357.442 33.056C357.19 32.684 356.83 32.498 356.362 32.498C355.894 32.498 355.534 32.684 355.282 33.056C355.03 33.416 354.904 33.92 354.904 34.568C354.904 35.216 355.03 35.726 355.282 36.098C355.534 36.458 355.894 36.638 356.362 36.638C356.83 36.638 357.19 36.458 357.442 36.098C357.694 35.726 357.82 35.216 357.82 34.568ZM361.42 40.958C361.42 40.418 361.492 39.944 361.636 39.536C361.78 39.128 361.978 38.786 362.23 38.51C362.494 38.222 362.8 38.006 363.148 37.862C363.496 37.718 363.874 37.646 364.282 37.646C364.69 37.646 365.068 37.718 365.416 37.862C365.764 38.006 366.064 38.222 366.316 38.51C366.58 38.786 366.784 39.128 366.928 39.536C367.072 39.944 367.144 40.418 367.144 40.958C367.144 41.498 367.072 41.972 366.928 42.38C366.784 42.788 366.58 43.136 366.316 43.424C366.064 43.7 365.764 43.91 365.416 44.054C365.068 44.198 364.69 44.27 364.282 44.27C363.874 44.27 363.496 44.198 363.148 44.054C362.8 43.91 362.494 43.7 362.23 43.424C361.978 43.136 361.78 42.788 361.636 42.38C361.492 41.972 361.42 41.498 361.42 40.958ZM365.74 40.958C365.74 40.31 365.614 39.806 365.362 39.446C365.11 39.074 364.75 38.888 364.282 38.888C363.814 38.888 363.454 39.074 363.202 39.446C362.95 39.806 362.824 40.31 362.824 40.958C362.824 41.606 362.95 42.116 363.202 42.488C363.454 42.848 363.814 43.028 364.282 43.028C364.75 43.028 365.11 42.848 365.362 42.488C365.614 42.116 365.74 41.606 365.74 40.958ZM364.66 31.526L357.622 44H355.984L363.022 31.526H364.66ZM381.919 39.32C381.919 40.064 381.811 40.736 381.595 41.336C381.379 41.936 381.073 42.452 380.677 42.884C380.293 43.316 379.831 43.652 379.291 43.892C378.751 44.12 378.163 44.234 377.527 44.234C376.891 44.234 376.303 44.12 375.763 43.892C375.223 43.652 374.755 43.316 374.359 42.884C373.975 42.452 373.675 41.936 373.459 41.336C373.243 40.736 373.135 40.064 373.135 39.32C373.135 38.588 373.243 37.922 373.459 37.322C373.675 36.71 373.975 36.188 374.359 35.756C374.755 35.324 375.223 34.994 375.763 34.766C376.303 34.526 376.891 34.406 377.527 34.406C378.163 34.406 378.751 34.526 379.291 34.766C379.831 34.994 380.293 35.324 380.677 35.756C381.073 36.188 381.379 36.71 381.595 37.322C381.811 37.922 381.919 38.588 381.919 39.32ZM380.173 39.32C380.173 38.264 379.933 37.43 379.453 36.818C378.985 36.194 378.343 35.882 377.527 35.882C376.711 35.882 376.063 36.194 375.583 36.818C375.115 37.43 374.881 38.264 374.881 39.32C374.881 40.376 375.115 41.216 375.583 41.84C376.063 42.452 376.711 42.758 377.527 42.758C378.343 42.758 378.985 42.452 379.453 41.84C379.933 41.216 380.173 40.376 380.173 39.32ZM387.928 30.032C388.42 30.032 388.84 30.068 389.188 30.14C389.548 30.212 389.8 30.278 389.944 30.338L389.638 31.778C389.494 31.706 389.29 31.64 389.026 31.58C388.762 31.508 388.438 31.472 388.054 31.472C387.274 31.472 386.728 31.688 386.416 32.12C386.104 32.54 385.948 33.11 385.948 33.83V34.64H389.548V36.044H385.948V44H384.274V33.794C384.274 32.594 384.568 31.67 385.156 31.022C385.744 30.362 386.668 30.032 387.928 30.032ZM394.948 30.032C395.44 30.032 395.86 30.068 396.208 30.14C396.568 30.212 396.82 30.278 396.964 30.338L396.658 31.778C396.514 31.706 396.31 31.64 396.046 31.58C395.782 31.508 395.458 31.472 395.074 31.472C394.294 31.472 393.748 31.688 393.436 32.12C393.124 32.54 392.968 33.11 392.968 33.83V34.64H396.568V36.044H392.968V44H391.294V33.794C391.294 32.594 391.588 31.67 392.176 31.022C392.764 30.362 393.688 30.032 394.948 30.032Z" fill="#F75B57"/>
<g clip-path="url(#clip3)">
<path d="M95.1611 48.1449C97.2646 49.0605 99.7612 49.9786 101.933 51.4427C102.574 51.8658 102.497 52.6392 102.029 53.2489C101.56 53.8909 100.809 54.0798 100.095 53.7852C97.9205 52.8692 95.7819 51.8566 93.6792 50.812C93.0378 50.4856 92.6842 49.8386 93.0462 49.0993C93.408 48.3921 93.9464 48.0407 95.1611 48.1449Z" fill="#F75B57"/>
<path d="M94.2727 29.7292C93.1166 31.7212 92.1375 34.0045 90.4814 35.9289C90.0132 36.5064 89.1199 36.4365 88.4791 36.0134C87.8739 35.5906 87.4845 34.9756 87.882 34.2687C88.9662 32.3407 90.0506 30.3805 91.206 28.4853C91.603 27.8751 92.355 27.654 93.1398 27.9167C93.8885 28.2437 94.2426 28.794 94.2727 29.7292Z" fill="#F3705A"/>
<path d="M102.648 39.6783C102.572 40.4194 102.104 40.9325 101.245 41.1852C99.2393 41.7855 97.2338 42.3859 95.2285 42.954C94.1901 43.2379 93.2985 42.91 92.911 41.9726C92.5239 40.9707 93.1357 40.2974 94.1743 39.9813C96.1797 39.3809 98.1852 38.7805 100.226 38.2771C101.586 37.963 102.583 38.5817 102.648 39.6783Z" fill="#F75B57"/>
<path d="M92.9617 57.0951C89.6577 47.8857 86.4252 38.6768 83.2284 29.4681C82.6664 27.8526 81.7046 27.2986 79.9497 27.836C78.0874 28.405 76.1898 28.9093 74.2917 29.4781C72.9668 29.8569 71.9981 30.4313 72.561 31.9179C72.8072 32.5643 72.4476 32.9168 71.9095 33.2359C63.8746 37.7653 57.4342 44.5937 47.6987 46.6301C46.1954 46.9433 45.7611 47.8112 46.2531 49.2007C47.5539 52.7876 48.8188 56.3742 50.0479 59.9929C50.6447 61.7699 51.7147 62.1634 53.72 61.5952C56.3344 60.8051 58.8792 59.6922 61.8095 59.839C62.9889 59.8785 63.5591 60.1721 64.0532 61.2069C65.3598 63.8265 67.6738 65.3883 70.9265 65.4404C74.1791 65.4925 76.6187 64.0565 78.0285 61.4857C78.6432 60.3287 79.2898 59.8167 80.7534 60.1481C81.7918 59.8643 82.5409 60.1268 82.9989 61.2258C83.3861 62.1955 84.3866 62.2661 85.4252 61.95C87.3592 61.3492 89.2934 60.7161 91.2981 60.2447C93.303 59.7411 93.5591 58.7754 92.9617 57.0951ZM56.4224 58.0973L54.0589 58.7922C53.5934 58.9183 53.0943 58.6896 52.9181 58.2693L49.8257 49.5449C49.6853 49.1249 49.9382 48.6751 50.4039 48.5167L52.7674 47.8218C53.2329 47.6956 53.732 47.9244 53.9081 48.3446L57.0006 57.069C57.1408 57.5213 56.8879 57.9711 56.4224 58.0973ZM71.5179 62.252C69.7294 62.4345 68.2682 61.7163 67.1707 59.9685C69.8159 59.9846 72.2108 59.9992 74.7487 60.0147C74.31 61.6242 72.9842 62.132 71.5179 62.252ZM61.8284 56.7438C61.0063 56.7388 60.7221 56.4469 60.476 55.7683C59.5631 53.0543 58.543 50.3397 57.5944 47.6255C57.3837 47.0116 57.4224 46.5282 58.0686 46.0808C63.3083 42.695 68.5124 39.2768 73.8959 35.763C76.3905 42.8716 78.8506 49.7866 81.3456 56.8307C74.7327 56.7904 68.2628 56.7509 61.8284 56.7438ZM88.595 58.0035L86.6612 58.572C86.16 58.6979 85.6609 58.4692 85.485 58.0167L76.4529 32.651C76.3127 32.1988 76.5656 31.7489 77.0671 31.5908L79.0008 31.0222C79.5021 30.8963 80.0011 31.125 80.1771 31.5775L89.2092 56.9432C89.3494 57.3955 89.0605 57.8773 88.595 58.0035Z" fill="#F75B57"/>
</g>
</g>
<defs>
<clipPath id="clip0">
<rect width="877" height="639.474" fill="white"/>
</clipPath>
<clipPath id="clip1">
<rect width="60" height="60" fill="white" transform="translate(123 114)"/>
</clipPath>
<clipPath id="clip2">
<rect width="84" height="86" fill="white" transform="translate(281 91)"/>
</clipPath>
<clipPath id="clip3">
<rect width="57.7814" height="38.7597" fill="white" transform="translate(45.1657 26.9443) rotate(0.34973)"/>
</clipPath>
</defs>
</svg>
