<svg width="1076" height="647" viewBox="0 0 1076 647" fill="none" xmlns="http://www.w3.org/2000/svg">
<g clip-path="url(#clip0)">
<path d="M74.3508 607.007L137.782 515.868L74.3185 616.92L74.2815 627.29C69.7581 627.252 65.2803 627.104 60.8483 626.848C60.8281 624.494 66.2195 494.949 65.9903 492.605C66.3032 492.517 66.4788 480.353 66.6029 479.821L0.335724 380.227L66.6741 470.395L66.8719 473.06L70.8074 372.412L13.8436 269.345L71.2579 354.727C71.2793 353.358 73.9754 146.705 74.0019 145.43C74.0182 146.107 75.2556 309.885 75.2647 310.575L129.744 244.652L75.2125 324.741L74.934 414.82L125.49 327.712C62.3966 454.745 76.3595 410.291 74.748 478.152L148.184 356.86L74.6852 495.625L74.3508 607.007Z" fill="#D0CDE1"/>
<path d="M1044.75 619.38L1071.18 581.4L1044.73 623.511L1044.72 627.832C1042.83 627.816 1040.97 627.755 1039.12 627.648C1039.11 626.667 1041.36 572.683 1041.26 571.706C1041.39 571.669 1041.47 566.6 1041.52 566.378L1013.9 524.875L1041.55 562.45L1041.63 563.561L1043.27 521.619L1019.53 478.668L1043.46 514.249C1043.47 513.678 1044.59 427.561 1044.6 427.029C1044.61 427.312 1045.12 495.562 1045.13 495.849L1067.83 468.378L1045.11 501.753L1044.99 539.291L1066.06 502.991C1039.77 555.929 1045.58 537.404 1044.91 565.683L1075.52 515.138L1044.89 572.964L1044.75 619.38Z" fill="#D0CDE1"/>
<path d="M536 646.899C832.025 646.899 1072 637.497 1072 625.899C1072 614.301 832.025 604.899 536 604.899C239.975 604.899 0 614.301 0 625.899C0 637.497 239.975 646.899 536 646.899Z" fill="#D0CDE1"/>
<path d="M796 248.031H184V612.901H796V248.031Z" fill="#3F3D56"/>
<path d="M335.46 248.031C334.834 286.425 319.144 323.036 291.772 349.969C264.4 376.901 227.54 391.997 189.14 392.001C187.42 392.001 185.71 391.971 184 391.911V248.031H335.46Z" fill="#F05E3C"/>
<path d="M519.937 612.9H461.73C463.92 606.944 467.885 601.803 473.09 598.172C478.294 594.54 484.487 592.593 490.834 592.593C497.18 592.593 503.373 594.54 508.578 598.172C513.782 601.803 517.747 606.944 519.937 612.9V612.9Z" fill="#F05E3C"/>
<path d="M796 424.17V547.07C780.222 546.299 765.345 539.488 754.451 528.049C743.557 516.609 737.48 501.417 737.48 485.62C737.48 469.823 743.557 454.632 754.451 443.192C765.345 431.752 780.222 424.942 796 424.17V424.17Z" fill="#F05E3C"/>
<path d="M683.57 380.615H297.49C287.532 380.615 279.459 388.688 279.459 398.646V398.646C279.459 408.605 287.532 416.677 297.49 416.677H683.57C693.529 416.677 701.601 408.605 701.601 398.646C701.601 388.688 693.529 380.615 683.57 380.615Z" fill="white"/>
<path d="M683.57 451.679H297.49C287.532 451.679 279.459 459.752 279.459 469.71V469.71C279.459 479.669 287.532 487.741 297.49 487.741H683.57C693.529 487.741 701.601 479.669 701.601 469.71C701.601 459.752 693.529 451.679 683.57 451.679Z" fill="white"/>
<path d="M683.57 522.743H571.628C561.67 522.743 553.597 530.816 553.597 540.774C553.597 550.733 561.67 558.806 571.628 558.806H683.57C693.529 558.806 701.601 550.733 701.601 540.774C701.601 530.816 693.529 522.743 683.57 522.743Z" fill="white"/>
<path d="M595.208 541.96H591.702V548H589.723V533.07H594.665C596.347 533.07 597.639 533.453 598.541 534.219C599.45 534.984 599.905 536.099 599.905 537.562C599.905 538.491 599.652 539.301 599.146 539.992C598.647 540.682 597.95 541.198 597.054 541.54L600.561 547.877V548H598.449L595.208 541.96ZM591.702 540.351H594.727C595.704 540.351 596.48 540.098 597.054 539.592C597.635 539.086 597.926 538.409 597.926 537.562C597.926 536.639 597.649 535.931 597.095 535.439C596.548 534.947 595.755 534.697 594.716 534.69H591.702V540.351ZM606.98 548.205C605.476 548.205 604.252 547.713 603.309 546.729C602.366 545.737 601.894 544.415 601.894 542.76V542.412C601.894 541.311 602.103 540.33 602.52 539.469C602.943 538.601 603.531 537.924 604.283 537.438C605.042 536.946 605.862 536.7 606.744 536.7C608.187 536.7 609.308 537.175 610.107 538.125C610.907 539.076 611.307 540.436 611.307 542.207V542.996H603.791C603.818 544.09 604.136 544.975 604.745 545.652C605.36 546.322 606.139 546.657 607.083 546.657C607.752 546.657 608.32 546.52 608.785 546.247C609.25 545.973 609.656 545.611 610.005 545.16L611.164 546.062C610.234 547.491 608.839 548.205 606.98 548.205ZM606.744 538.259C605.979 538.259 605.336 538.539 604.816 539.1C604.297 539.653 603.976 540.433 603.853 541.438H609.41V541.294C609.355 540.33 609.096 539.585 608.631 539.059C608.166 538.525 607.537 538.259 606.744 538.259ZM613.061 542.36C613.061 540.631 613.46 539.257 614.26 538.238C615.06 537.213 616.12 536.7 617.439 536.7C618.792 536.7 619.849 537.179 620.607 538.136L620.7 536.905H622.433V547.733C622.433 549.169 622.005 550.3 621.151 551.127C620.303 551.955 619.162 552.368 617.726 552.368C616.926 552.368 616.144 552.197 615.378 551.855C614.612 551.514 614.028 551.045 613.625 550.451L614.609 549.312C615.422 550.317 616.417 550.82 617.593 550.82C618.516 550.82 619.233 550.56 619.746 550.041C620.266 549.521 620.525 548.79 620.525 547.846V546.893C619.767 547.768 618.731 548.205 617.418 548.205C616.12 548.205 615.067 547.682 614.26 546.636C613.46 545.59 613.061 544.165 613.061 542.36ZM614.968 542.576C614.968 543.827 615.224 544.811 615.737 545.529C616.25 546.24 616.967 546.595 617.89 546.595C619.086 546.595 619.965 546.052 620.525 544.965V539.899C619.944 538.84 619.073 538.31 617.911 538.31C616.988 538.31 616.267 538.669 615.747 539.387C615.228 540.104 614.968 541.167 614.968 542.576ZM627.365 548H625.468V536.905H627.365V548ZM625.314 533.962C625.314 533.655 625.406 533.395 625.591 533.183C625.782 532.971 626.062 532.865 626.432 532.865C626.801 532.865 627.081 532.971 627.272 533.183C627.464 533.395 627.56 533.655 627.56 533.962C627.56 534.27 627.464 534.526 627.272 534.731C627.081 534.937 626.801 535.039 626.432 535.039C626.062 535.039 625.782 534.937 625.591 534.731C625.406 534.526 625.314 534.27 625.314 533.962ZM636.87 545.057C636.87 544.544 636.675 544.148 636.286 543.868C635.903 543.581 635.229 543.334 634.266 543.129C633.309 542.924 632.546 542.678 631.979 542.391C631.418 542.104 631.001 541.762 630.728 541.366C630.461 540.969 630.328 540.498 630.328 539.951C630.328 539.042 630.711 538.272 631.477 537.644C632.249 537.015 633.233 536.7 634.43 536.7C635.688 536.7 636.706 537.025 637.485 537.674C638.271 538.324 638.665 539.154 638.665 540.166H636.757C636.757 539.646 636.535 539.199 636.091 538.823C635.653 538.447 635.1 538.259 634.43 538.259C633.739 538.259 633.199 538.409 632.81 538.71C632.42 539.011 632.225 539.404 632.225 539.889C632.225 540.347 632.406 540.692 632.769 540.925C633.131 541.157 633.784 541.379 634.727 541.591C635.677 541.803 636.446 542.056 637.034 542.35C637.622 542.644 638.056 543 638.336 543.417C638.624 543.827 638.767 544.329 638.767 544.924C638.767 545.915 638.371 546.711 637.578 547.313C636.785 547.908 635.756 548.205 634.491 548.205C633.603 548.205 632.816 548.048 632.133 547.733C631.449 547.419 630.913 546.981 630.523 546.421C630.14 545.854 629.949 545.242 629.949 544.585H631.846C631.88 545.221 632.133 545.727 632.604 546.103C633.083 546.472 633.712 546.657 634.491 546.657C635.209 546.657 635.783 546.513 636.214 546.226C636.651 545.932 636.87 545.542 636.87 545.057ZM643.812 534.219V536.905H645.883V538.372H643.812V545.252C643.812 545.696 643.904 546.031 644.089 546.257C644.273 546.476 644.588 546.585 645.032 546.585C645.251 546.585 645.552 546.544 645.935 546.462V548C645.436 548.137 644.95 548.205 644.479 548.205C643.631 548.205 642.992 547.949 642.561 547.436C642.13 546.923 641.915 546.195 641.915 545.252V538.372H639.895V536.905H641.915V534.219H643.812ZM652.712 548.205C651.208 548.205 649.985 547.713 649.042 546.729C648.098 545.737 647.626 544.415 647.626 542.76V542.412C647.626 541.311 647.835 540.33 648.252 539.469C648.676 538.601 649.264 537.924 650.016 537.438C650.774 536.946 651.595 536.7 652.477 536.7C653.919 536.7 655.04 537.175 655.84 538.125C656.64 539.076 657.04 540.436 657.04 542.207V542.996H649.523C649.551 544.09 649.869 544.975 650.477 545.652C651.092 546.322 651.872 546.657 652.815 546.657C653.485 546.657 654.052 546.52 654.517 546.247C654.982 545.973 655.389 545.611 655.737 545.16L656.896 546.062C655.966 547.491 654.572 548.205 652.712 548.205ZM652.477 538.259C651.711 538.259 651.068 538.539 650.549 539.1C650.029 539.653 649.708 540.433 649.585 541.438H655.143V541.294C655.088 540.33 654.828 539.585 654.363 539.059C653.898 538.525 653.27 538.259 652.477 538.259ZM664.607 538.607C664.32 538.56 664.009 538.536 663.674 538.536C662.43 538.536 661.585 539.065 661.141 540.125V548H659.244V536.905H661.09L661.121 538.187C661.743 537.196 662.625 536.7 663.766 536.7C664.135 536.7 664.416 536.748 664.607 536.844V538.607Z" fill="#F05E3C"/>
</g>
<defs>
<clipPath id="clip0">
<rect width="1075.52" height="646.899" fill="white"/>
</clipPath>
</defs>
</svg>
